<svg xmlns="http://www.w3.org/2000/svg" width="15" height="14" fill="none" viewBox="0 0 15 14">
    <path fill="#939799" fill-rule="evenodd" d="M8.168 0c.07 0 .138.002.207.005V2.8c0 .87.705 1.575 1.575 1.575h2.795c.004.069.005.138.005.207V13.3c0 .387-.313.7-.7.7h-9.1c-.387 0-.7-.313-.7-.7V.7c0-.387.313-.7.7-.7h5.218zm1.695 9.8H5.138c-.242 0-.438.196-.438.438v.175c0 .241.196.437.438.437h4.725c.241 0 .437-.196.437-.438v-.175c0-.241-.196-.437-.438-.437zm0-2.1H5.138c-.242 0-.438.196-.438.437v.175c0 .242.196.438.438.438h4.725c.241 0 .437-.196.437-.438v-.175c0-.241-.196-.437-.438-.437zm0-2.1H5.138c-.242 0-.438.196-.438.438v.175c0 .241.196.437.438.437h4.725c.241 0 .437-.196.437-.438v-.175c0-.241-.196-.437-.438-.437zM9.425.175c1.52.432 2.718 1.63 3.15 3.15H9.95c-.29 0-.525-.235-.525-.525V.175z" clip-rule="evenodd"/>
</svg>
