<svg xmlns="http://www.w3.org/2000/svg" width="14" height="15" fill="none" viewBox="0 0 14 15">
    <path fill="#939799" fill-rule="evenodd" d="M12.25 1.594c.966 0 1.75.783 1.75 1.75v8.312c0 .967-.784 1.75-1.75 1.75H1.75c-.966 0-1.75-.783-1.75-1.75V3.344c0-.967.784-1.75 1.75-1.75h10.5zM2.187 4.219H1.75v6.562h.438V4.22zm1.313 0h-.438v6.562H3.5V4.22zm1.75 0H3.937v6.562H5.25V4.22zm1.313 0h-.875v6.562h.875V4.22zm1.312 0h-.438v6.562h.438V4.22zm2.188 0h-1.75v6.562h1.75V4.22zm.874 0H10.5v6.562h.438V4.22zm1.313 0h-.875v6.562h.875V4.22z" clip-rule="evenodd"/>
</svg>
