<svg width="249" height="296" fill="none" xmlns="http://www.w3.org/2000/svg">
  <path d="M5.335 186.46l.276-.276 69.194-40.158c4.41-2.208 9.51-2.07 13.784.414l155.618 89.837c.275.138.551.276.689.552 5.375 4.14 4.548 12.834-1.516 16.422h-.138l-.138.138-69.194 40.157c-4.273 2.208-9.373 1.932-13.508-.414L5.335 203.571c-.275-.138-.551-.414-.827-.552-5.927-4.002-5.513-12.972.827-16.559z" fill="#fff"/>
  <path d="M5.06 186.045l.137.276-.137-.276c.137-.138.137-.138.275-.138l69.194-40.295c4.549-2.208 9.787-2.07 14.06.414l155.756 89.837c.275.276.551.414.827.69 2.481 1.932 3.859 5.106 3.721 8.418-.276 3.588-2.205 6.762-5.238 8.418l-.137.138s-.138 0-.138.138l-69.194 40.157c-2.068.966-4.273 1.518-6.479 1.518-2.481 0-5.1-.69-7.305-1.932L5.335 203.847c-.275-.138-.551-.414-.827-.552-2.894-1.932-4.41-5.106-4.41-8.556 0-3.588 1.93-6.9 4.962-8.694zm239.56 51.06c-.275-.276-.413-.414-.689-.552L88.313 146.716c-2.205-1.242-4.686-1.932-7.03-1.932-1.24 0-2.618.138-3.859.552 2.894-.414 5.79 0 7.305 1.242l76.776 128.062s-2.068 8.832-.414 12.972c1.654 4.14 5.789 4.83 5.927 4.968 2.343.138 4.824-.414 7.03-1.518l69.194-40.019c.138 0 .138-.138.138-.138h.138c2.343-1.38 3.859-3.45 4.548-5.796v-.138c.276-3.174-.965-6.072-3.446-7.866z" fill="#C8193C"/>
  <path d="M5.06 186.045l.137.276-.137-.276c.137-.138.137-.138.275-.138l69.194-40.295c4.549-2.208 9.787-2.07 14.06.414l155.756 89.837c.275.276.551.414.827.69 2.481 1.932 3.859 5.106 3.721 8.418-.276 3.588-2.205 6.762-5.238 8.418l-.137.138s-.138 0-.138.138l-69.194 40.157c-2.068.966-4.273 1.518-6.479 1.518-2.481 0-5.1-.69-7.305-1.932L5.335 203.847c-.275-.138-.551-.414-.827-.552-2.894-1.932-4.41-5.106-4.41-8.556 0-3.588 1.93-6.9 4.962-8.694zm239.56 51.06c-.275-.276-.413-.414-.689-.552L88.313 146.716c-2.205-1.242-4.686-1.932-7.03-1.932-1.24 0-2.618.138-3.859.552 2.894-.414 5.79 0 7.305 1.242l76.776 128.062s-2.068 8.832-.414 12.972c1.654 4.14 5.789 4.83 5.927 4.968 2.343.138 4.824-.414 7.03-1.518l69.194-40.019c.138 0 .138-.138.138-.138h.138c2.343-1.38 3.859-3.45 4.548-5.796v-.138c.276-3.174-.965-6.072-3.446-7.866z" fill="#fff" fill-opacity=".32" style="mix-blend-mode:overlay"/>
  <path d="M244.345 237.519L88.037 147.406c-4.273-2.484-9.373-2.622-13.783-.414L5.06 187.15c-3.584 2.622-4.273 7.865-.276 10.073l155.618 89.975a13.85 13.85 0 0013.508.414l69.194-40.157c4.962-3.036 4.686-7.59 1.241-9.936z" fill="#EDEFF0"/>
  <path d="M244.345 237.519L88.037 147.406c-4.273-2.484-9.373-2.622-13.783-.414L5.06 187.15c-3.584 2.622-4.273 7.865-.276 10.073l155.618 89.975a13.85 13.85 0 0013.508.414l69.194-40.157c4.962-3.036 4.686-7.59 1.241-9.936z" stroke="#31388B" stroke-width=".492" stroke-miterlimit="10"/>
  <path d="M244.345 237.519L88.037 147.406c-4.273-2.484-9.373-2.622-13.783-.414L5.06 187.15c-3.584 2.622-4.273 7.865-.276 10.073l155.618 89.975a13.85 13.85 0 0013.508.414l69.194-40.157c4.962-3.036 4.686-7.59 1.241-9.936z" stroke="#fff" stroke-opacity=".32" stroke-width=".492" stroke-miterlimit="10" style="mix-blend-mode:overlay"/>
  <path d="M167.431 288.026c2.206 0 4.411-.552 6.479-1.518l69.194-40.157c2.481-1.518 3.859-3.45 3.859-5.52 0-1.794-.965-3.588-2.756-4.83L88.589 146.302c-4.273-2.484-9.511-2.622-13.922-.414L5.473 186.046c-2.068 1.518-3.17 3.864-3.033 6.072.138 1.931 1.103 3.449 2.757 4.415l154.929 89.561c2.343 1.242 4.824 1.932 7.305 1.932zm76.638-51.611c1.654 1.104 2.619 2.76 2.481 4.416 0 1.932-1.379 3.864-3.722 5.244l-69.194 40.157c-4.273 2.07-9.235 1.932-13.37-.414L5.197 196.257c-1.516-.966-2.48-2.346-2.619-4.139-.138-2.07.965-4.278 2.895-5.658l69.332-40.296a13.85 13.85 0 0113.508.414l155.756 89.837z" fill="#31388B"/>
  <path d="M167.431 288.026c2.206 0 4.411-.552 6.479-1.518l69.194-40.157c2.481-1.518 3.859-3.45 3.859-5.52 0-1.794-.965-3.588-2.756-4.83L88.589 146.302c-4.273-2.484-9.511-2.622-13.922-.414L5.473 186.046c-2.068 1.518-3.17 3.864-3.033 6.072.138 1.931 1.103 3.449 2.757 4.415l154.929 89.561c2.343 1.242 4.824 1.932 7.305 1.932zm76.638-51.611c1.654 1.104 2.619 2.76 2.481 4.416 0 1.932-1.379 3.864-3.722 5.244l-69.194 40.157c-4.273 2.07-9.235 1.932-13.37-.414L5.197 196.257c-1.516-.966-2.48-2.346-2.619-4.139-.138-2.07.965-4.278 2.895-5.658l69.332-40.296a13.85 13.85 0 0113.508.414l155.756 89.837z" fill="#fff" fill-opacity=".32" style="mix-blend-mode:overlay"/>
  <path d="M15.51 191.171l-.01.005-.008.004c-2.558 1.341-2.664 4.852-.254 6.302l.003.003 147.339 85.277.001.001a9.597 9.597 0 009.024.269l66.976-38.632c1.688-.975 2.381-2.187 2.439-3.268.057-1.083-.514-2.165-1.626-2.913L91.657 152.813l-.005-.003c-2.892-1.577-6.294-1.704-9.167-.271L15.51 191.171z" fill="#31388B" stroke="#C6CACC"/>
  <g filter="url(#Security_Illustration__filter0_d)">
    <path d="M106 170.659L45.375 204.89 125 251.659l59.5-36-78.5-45z" fill="#FAFAFA"/>
  </g>
  <rect x=".535" width="25.827" height="2.395" rx="1.03" transform="matrix(.86603 -.5 .86603 .5 77.501 216.472)" fill="#fff" stroke="#4F347D" stroke-width=".617"/>
  <rect x=".535" width="11.266" height="2.395" rx="1.03" transform="matrix(.86603 -.5 .86603 .5 91.416 224.505)" fill="#fff" stroke="#4F347D" stroke-width=".617"/>
  <rect x=".535" width="33.023" height="2.395" rx="1.03" transform="matrix(.86603 -.5 .86603 .5 110.838 213.292)" fill="#fff" stroke="#4F347D" stroke-width=".617"/>
  <rect x=".535" width="17.123" height="2.395" rx="1.03" transform="matrix(.86603 -.5 .86603 .5 138.523 213.375)" fill="#fff" stroke="#4F347D" stroke-width=".617"/>
  <rect x=".535" width="21.81" height="2.395" rx="1.03" transform="matrix(.86603 -.5 .86603 .5 105.33 232.539)" fill="#fff" stroke="#4F347D" stroke-width=".617"/>
  <rect x=".535" width="55.451" height="2.395" rx="1.03" transform="matrix(.86603 -.5 .86603 .5 82.14 219.149)" fill="#fff" stroke="#4F347D" stroke-width=".617"/>
  <rect x=".535" width="55.451" height="2.395" rx="1.03" transform="matrix(.86603 -.5 .86603 .5 67.516 212.368)" fill="#C8193C" stroke="#4F347D" stroke-width=".617"/>
  <rect x=".535" width="55.451" height="2.395" rx="1.03" transform="matrix(.86603 -.5 .86603 .5 96.054 227.183)" fill="#fff" stroke="#4F347D" stroke-width=".617"/>
  <rect x=".535" width="55.451" height="2.395" rx="1.03" transform="matrix(.86603 -.5 .86603 .5 100.692 229.861)" fill="#fff" stroke="#4F347D" stroke-width=".617"/>
  <rect x=".535" width="55.451" height="2.395" rx="1.03" transform="matrix(.86602 -.5 .86602 .5 114.607 237.892)" fill="#fff" stroke="#4F347D" stroke-width=".617"/>
  <rect x=".535" width="55.451" height="2.395" rx="1.03" transform="matrix(.86603 -.5 .86603 .5 109.969 235.217)" fill="#fff" stroke="#4F347D" stroke-width=".617"/>
  <rect x=".535" width="55.451" height="2.395" rx="1.03" transform="matrix(.86603 -.5 .86603 .5 86.778 221.827)" fill="#fff" stroke="#4F347D" stroke-width=".617"/>
  <rect x=".535" width="12.437" height="2.395" rx="1.03" transform="matrix(.86603 -.5 .86603 .5 114.752 194.965)" fill="#fff" stroke="#4F347D" stroke-width=".617"/>
  <rect x=".535" width="12.27" height="2.395" rx="1.03" transform="matrix(.86603 -.5 .86603 .5 101.852 202.413)" fill="#C8193C" stroke="#4F347D" stroke-width=".617"/>
  <rect x=".535" width="4.906" height="2.395" rx="1.03" transform="matrix(.86603 -.5 .86603 .5 103.881 217.308)" fill="#C8193C" stroke="#4F347D" stroke-width=".617"/>
  <rect x=".535" width="12.27" height="2.395" rx="1.03" transform="matrix(.86603 -.5 .86603 .5 126.492 220.321)" fill="#C8193C" stroke="#4F347D" stroke-width=".617"/>
  <path d="M46.134 225.099c0-.828-.413-1.656-1.103-1.932l-5.927-3.45c-.275-.138-.55-.138-.689 0l.965-.69h.138c.276-.138.413-.138.827 0l5.927 3.45c.551.276.965 1.242.965 1.932 0 .414 0 .552-.276.69l-1.103.828c.138-.138.276-.414.276-.828z" fill="#31388B"/>
  <path d="M46.134 225.099c0-.828-.413-1.656-1.103-1.932l-5.927-3.45c-.275-.138-.55-.138-.689 0l.965-.69h.138c.276-.138.413-.138.827 0l5.927 3.45c.551.276.965 1.242.965 1.932 0 .414 0 .552-.276.69l-1.103.828c.138-.138.276-.414.276-.828z" fill="#fff" fill-opacity=".32" style="mix-blend-mode:overlay"/>
  <path d="M45.997 226.065l1.24-.828c.276-.276.276-.552.276-.828 0-.828-.551-1.794-1.102-2.07l-5.927-3.45c-.414-.276-.827-.138-.965 0l-1.103.69.276.276c.138-.138.413 0 .551 0l5.927 3.45c.551.276.965 1.104.965 1.794 0 .276-.138.552-.276.69l.138.276zm-6.065-7.176c.138 0 .138 0 .276.138l5.927 3.45c.551.276.965 1.104.965 1.794 0 .276 0 .552-.138.552l-.551.414v-.276c0-.828-.552-1.794-1.103-2.07l-5.927-3.45s-.138 0-.138-.138l.551-.414c0 .138 0 0 .138 0z" fill="#31388B"/>
  <path d="M45.997 226.065l1.24-.828c.276-.276.276-.552.276-.828 0-.828-.551-1.794-1.102-2.07l-5.927-3.45c-.414-.276-.827-.138-.965 0l-1.103.69.276.276c.138-.138.413 0 .551 0l5.927 3.45c.551.276.965 1.104.965 1.794 0 .276-.138.552-.276.69l.138.276zm-6.065-7.176c.138 0 .138 0 .276.138l5.927 3.45c.551.276.965 1.104.965 1.794 0 .276 0 .552-.138.552l-.551.414v-.276c0-.828-.552-1.794-1.103-2.07l-5.927-3.45s-.138 0-.138-.138l.551-.414c0 .138 0 0 .138 0z" fill="#fff" fill-opacity=".32" style="mix-blend-mode:overlay"/>
  <path d="M39.243 222.477l5.927 3.45c.551.276 1.103 0 1.103-.828s-.414-1.656-1.103-1.932l-5.927-3.45c-.551-.276-1.103 0-1.103.828 0 .69.552 1.518 1.103 1.932z" fill="#fff"/>
  <path d="M45.584 226.203c.137 0 .275 0 .413-.138.276-.138.414-.552.414-.966 0-.828-.552-1.794-1.103-2.07l-5.927-3.45a.878.878 0 00-.827 0c-.276.138-.414.552-.414.966 0 .828.552 1.794 1.103 2.07l5.927 3.45s.138.138.414.138zm-6.755-6.486c.138 0 .276 0 .276.138l5.927 3.45c.552.276.965 1.104.965 1.794 0 .276-.138.552-.276.69-.137.138-.413 0-.55 0l-5.928-3.45c-.551-.276-.965-1.104-.965-1.794 0-.276.138-.552.276-.69.138-.138.138-.138.276-.138z" fill="#31388B"/>
  <path d="M45.584 226.203c.137 0 .275 0 .413-.138.276-.138.414-.552.414-.966 0-.828-.552-1.794-1.103-2.07l-5.927-3.45a.878.878 0 00-.827 0c-.276.138-.414.552-.414.966 0 .828.552 1.794 1.103 2.07l5.927 3.45s.138.138.414.138zm-6.755-6.486c.138 0 .276 0 .276.138l5.927 3.45c.552.276.965 1.104.965 1.794 0 .276-.138.552-.276.69-.137.138-.413 0-.55 0l-5.928-3.45c-.551-.276-.965-1.104-.965-1.794 0-.276.138-.552.276-.69.138-.138.138-.138.276-.138z" fill="#fff" fill-opacity=".32" style="mix-blend-mode:overlay"/>
  <path d="M54.819 164.932c.55-.276.413-.69 0-1.104-.552-.276-1.24-.276-1.792-.138h-.138c-.414.276-.414.69.138.966.551.414 1.24.552 1.792.276z" fill="#31388B"/>
  <path d="M54.819 164.932c.55-.276.413-.69 0-1.104-.552-.276-1.24-.276-1.792-.138h-.138c-.414.276-.414.69.138.966.551.414 1.24.552 1.792.276z" fill="#fff" fill-opacity=".32" style="mix-blend-mode:overlay"/>
  <path d="M36.9 175.144l15.438-8.832c.413-.276.413-.69-.138-.966-.552-.276-1.24-.276-1.792-.138L34.97 174.04c-.413.276-.413.69.138.966.551.414 1.378.414 1.792.138z" fill="#31388B"/>
  <path d="M36.9 175.144l15.438-8.832c.413-.276.413-.69-.138-.966-.552-.276-1.24-.276-1.792-.138L34.97 174.04c-.413.276-.413.69.138.966.551.414 1.378.414 1.792.138z" fill="#fff" fill-opacity=".32" style="mix-blend-mode:overlay"/>
  <path d="M53.992 164.518c.275 0 .689 0 .827-.138h.138a.759.759 0 00.413-.69c0-.276-.138-.552-.551-.69-.552-.276-1.379-.414-1.93-.138h-.138c-.276.138-.413.414-.413.552 0 .276.137.552.551.69.414.276.69.414 1.103.414zM53.716 163c.276 0 .69.138.827.276.138.138.276.276.276.414 0 .138-.138.138-.138.276h-.138c-.413.276-1.103.138-1.516-.138-.138-.138-.276-.276-.276-.414 0-.138.138-.138.138-.276h.138c.276 0 .413-.138.69-.138z" fill="#31388B"/>
  <path d="M53.992 164.518c.275 0 .689 0 .827-.138h.138a.759.759 0 00.413-.69c0-.276-.138-.552-.551-.69-.552-.276-1.379-.414-1.93-.138h-.138c-.276.138-.413.414-.413.552 0 .276.137.552.551.69.414.276.69.414 1.103.414zM53.716 163c.276 0 .69.138.827.276.138.138.276.276.276.414 0 .138-.138.138-.138.276h-.138c-.413.276-1.103.138-1.516-.138-.138-.138-.276-.276-.276-.414 0-.138.138-.138.138-.276h.138c.276 0 .413-.138.69-.138z" fill="#fff" fill-opacity=".32" style="mix-blend-mode:overlay"/>
  <path d="M36.073 174.73c.276 0 .689 0 .827-.138l15.438-8.832c.275-.138.413-.414.413-.552 0-.276-.138-.552-.551-.69-.552-.276-1.379-.414-1.93-.138l-15.438 8.832c-.275.138-.413.414-.413.552 0 .276.138.552.551.69.414.276.827.276 1.103.276zm15.024-10.212c.276 0 .69.138.827.276.138.138.276.276.276.414 0 .138-.138.138-.138.276l-15.438 8.832c-.413.276-1.102.138-1.516-.138-.138-.138-.276-.276-.276-.414 0-.138.138-.138.138-.276l15.576-8.832c.138 0 .413-.138.551-.138z" fill="#31388B"/>
  <path d="M36.073 174.73c.276 0 .689 0 .827-.138l15.438-8.832c.275-.138.413-.414.413-.552 0-.276-.138-.552-.551-.69-.552-.276-1.379-.414-1.93-.138l-15.438 8.832c-.275.138-.413.414-.413.552 0 .276.138.552.551.69.414.276.827.276 1.103.276zm15.024-10.212c.276 0 .69.138.827.276.138.138.276.276.276.414 0 .138-.138.138-.138.276l-15.438 8.832c-.413.276-1.102.138-1.516-.138-.138-.138-.276-.276-.276-.414 0-.138.138-.138.138-.276l15.576-8.832c.138 0 .413-.138.551-.138z" fill="#fff" fill-opacity=".32" style="mix-blend-mode:overlay"/>
  <path d="M178.259 47.658l-.004-.006a5.277 5.277 0 00-1.036-1.183c-.363-.3-.677-.458-.896-.53-3.522-1.157-7.073-3.351-10.451-5.9-3.415-2.578-6.867-5.686-10.184-8.866-2.792-2.676-5.428-5.334-7.904-7.832-3.607-3.639-6.876-6.935-9.794-9.446-3.101-2.662-5.595-4.802-7.688-6.466-2.088-1.661-3.572-2.68-4.675-3.239a2.203 2.203 0 00-.545-.17c-.856-.071-2.072.04-3.953.457-1.918.424-4.215 1.089-7.19 1.953l64.32 41.228zm0 0l.004.007m-.004-.007l.004.007m0 0c.705 1.077 1.028 2.242 1.022 3.142v.021c-.029 28.869-4.189 50.578-11.902 66.376-7.637 15.644-18.816 25.627-33.361 31.123a.738.738 0 01-.161-.032c-.223-.066-.632-.264-1.12-.718-32.036-30.003-51.466-71.035-56.35-130.116v-.01c-.042-.492.007-.859.076-1.1.017-.06.035-.112.052-.154m101.744 31.468L76.519 16.197m0 0c7.164 1.912 14.674-.302 20.945-2.817 2.55-1.023 5.072-2.174 7.395-3.234.587-.268 1.162-.53 1.72-.782 2.858-1.292 5.288-2.33 7.36-2.934l-37.42 9.767zm-.175-.028h.003-.003zm84.116 47.166l.005-.008c1.175-1.802 1.314-3.923.966-5.699a9.964 9.964 0 00-2.516-4.866l-.006-.007-5.687-5.983-.003-.003c-1.244-1.306-3.016-2.406-5.101-2.568-2.252-.175-4.409.81-5.703 2.757l-.007.01-.007.012-16.791 25.623-9.58-13.348-.008-.01c-1.056-1.462-2.599-2.75-4.495-3.314-1.979-.59-4.314-.337-6.115 1.277l-.012.01-.012.012-4.478 4.078-.004.003c-1.697 1.55-2.234 3.713-2.157 5.562.077 1.874.766 3.7 1.827 5.183l.003.004 19.959 27.814h0c1.402 1.954 3.78 4.168 6.451 4.964 3.466 1.032 6.663-.606 8.373-3.216l.001-.001 25.097-38.286z" stroke="#31388B" stroke-width="8"/>
  <path d="M175.517 48.962l-.003-.005a7.751 7.751 0 00-1.545-1.754c-.571-.472-1.158-.799-1.713-.982h-.001l.464-1.402c-8.151-2.673-18.098-12.695-26.755-21.419-3.73-3.758-7.22-7.274-10.225-9.859l39.778 35.42zm0 0c.945 1.443 1.444 3.088 1.435 4.54v.009c-.03 29.07-4.213 51.206-12.158 67.48-7.92 16.224-19.601 26.674-34.8 32.4-.478.175-1.06.197-1.711.003-.663-.197-1.404-.623-2.125-1.294-32.577-30.511-52.215-72.172-57.14-131.751v-.004c-.131-1.537.27-2.69.884-3.35l.003-.003m105.612 31.97L69.905 16.992m0 0c.277-.3.612-.499.997-.597.39-.099.862-.102 1.4.04m-2.397.557l2.397-.558m0 0c6.314 1.69 13.152-.226 19.365-2.718 2.49-.998 4.942-2.117 7.26-3.175.594-.27 1.18-.538 1.755-.798 2.849-1.288 5.428-2.397 7.693-3.057l-36.073 9.748zm81.189 48.197l.002-.003c.722-1.108.863-2.513.603-3.834a7.433 7.433 0 00-1.872-3.618l-.003-.002-5.686-5.983-.001-.001c-.935-.981-2.159-1.69-3.469-1.792-1.372-.107-2.636.48-3.405 1.637l-.005.008-18.808 28.7-11.725-16.336-.003-.004c-.803-1.111-1.916-2-3.171-2.374-1.285-.383-2.669-.193-3.709.739h0l-.009.008-4.478 4.078-.001.001c-1 .912-1.393 2.265-1.338 3.593.056 1.338.556 2.697 1.358 3.819l.001.001 19.959 27.814h0c1.219 1.699 3.182 3.438 5.122 4.016 2.23.664 4.341-.35 5.54-2.18l25.098-38.287z" fill="#C8193C" stroke="#EDEFF0" stroke-width="2.951"/>
  <g filter="url(#Security_Illustration__filter1_f)">
    <path d="M118.22 192.161l22.691 31.571H95.528l22.692-31.571z" fill="#6E7375" fill-opacity=".2"/>
  </g>
  <defs>
    <filter id="Security_Illustration__filter0_d" x="41.375" y="170.659" width="147.124" height="89" filterUnits="userSpaceOnUse" color-interpolation-filters="sRGB">
      <feFlood flood-opacity="0" result="BackgroundImageFix"/>
      <feColorMatrix in="SourceAlpha" values="0 0 0 0 0 0 0 0 0 0 0 0 0 0 0 0 0 0 127 0"/>
      <feOffset dy="4"/>
      <feGaussianBlur stdDeviation="2"/>
      <feColorMatrix values="0 0 0 0 0 0 0 0 0 0 0 0 0 0 0 0 0 0 0.25 0"/>
      <feBlend in2="BackgroundImageFix" result="effect1_dropShadow"/>
      <feBlend in="SourceGraphic" in2="effect1_dropShadow" result="shape"/>
    </filter>
    <filter id="Security_Illustration__filter1_f" x="78.528" y="175.161" width="79.382" height="65.571" filterUnits="userSpaceOnUse" color-interpolation-filters="sRGB">
      <feFlood flood-opacity="0" result="BackgroundImageFix"/>
      <feBlend in="SourceGraphic" in2="BackgroundImageFix" result="shape"/>
      <feGaussianBlur stdDeviation="8.5" result="effect1_foregroundBlur"/>
    </filter>
  </defs>
</svg>
