<svg width="321" height="237" fill="none" xmlns="http://www.w3.org/2000/svg">
  <path d="M34.472 200.201l-.764-1.2 15.923-9.597.545-8.834 16.25-9.706.763 1.308-15.595 9.27-.545 8.834-16.577 9.925z" fill="#EDEFF0"/>
  <path d="M34.472 199.655l-.982-1.636 15.923-9.597.545-8.834 16.577-9.815.982 1.636-15.814 9.379-.545 8.834-16.686 10.033zm-.437-1.418l.546.873 16.25-9.815.545-8.834 15.595-9.27-.545-.873-16.032 9.489-.545 8.833-15.813 9.597z" fill="#31388B"/>
  <path d="M66.535 206.635l-12.105-7.416.654-15.923 14.177-8.506.764 1.199-13.523 8.18-.546 14.287 11.343 6.87-.764 1.309z" fill="#EDEFF0"/>
  <path d="M66.644 206.09l-12.433-7.525.655-16.141 14.505-8.725.981 1.636-13.632 8.18-.545 14.068 11.45 6.98-.98 1.527zm-11.996-7.743l11.887 7.197.545-.872-11.342-6.871.655-14.505 13.414-8.07-.546-.981-13.959 8.397-.654 15.705z" fill="#31388B"/>
  <path d="M33.163 155.159c-1.09-.654-2.726-.654-4.035-.109l-7.198-4.253-6.216 3.599-1.418-6.98 8.507-4.69 4.798 2.836c-.218.327-.436.654-.436 1.091 0 .654.436 1.199 1.09 1.635.546.328 1.31.546 2.073.546a5.06 5.06 0 002.29-.546c.763-.436 1.2-1.09 1.2-1.744 0-.655-.437-1.2-1.091-1.636-1.09-.655-2.617-.655-3.926-.218l-6.107-3.599-10.143 5.562 1.745 8.506-6.107 3.599 3.271 18.322 1.418-.218-3.053-17.34 11.996-6.98 5.89 3.49c-.219.327-.328.654-.328.981 0 .655.436 1.2 1.09 1.636.546.327 1.31.545 2.073.545.872 0 1.636-.218 2.29-.545.763-.436 1.2-1.091 1.2-1.745.218-.763-.11-1.309-.873-1.745zm-2.4-9.379c.546 0 .982.109 1.419.327.218.109.327.327.327.437 0 .109-.11.327-.436.545-.873.436-2.182.545-2.945.109-.218-.109-.327-.327-.327-.436 0-.109.109-.328.436-.546.436-.327.982-.436 1.527-.436zm1.637 11.56c-.873.437-2.181.546-2.945.109-.218-.109-.327-.327-.327-.436 0-.109.11-.327.436-.545.436-.218.982-.327 1.636-.327.545 0 .982.109 1.418.327.218.109.327.327.327.436-.109 0-.218.218-.545.436z" fill="#EDEFF0"/>
  <path d="M11.57 176.426l-3.272-18.649 6.107-3.599-1.745-8.507L23.02 140l6.108 3.599c1.309-.436 2.945-.327 4.035.218.764.436 1.2 1.091 1.2 1.854 0 .763-.436 1.418-1.309 1.963-.654.436-1.527.545-2.4.545-.872 0-1.635-.218-2.18-.545-.764-.436-1.2-1.09-1.2-1.854 0-.327.109-.654.327-.981l-4.471-2.618-8.289 4.581 1.309 6.543 5.998-3.599 7.198 4.254c1.309-.546 2.945-.437 4.035.218.764.436 1.2 1.09 1.2 1.854 0 .763-.436 1.417-1.309 1.963-.654.436-1.527.545-2.4.545-.872 0-1.635-.218-2.18-.545-.764-.437-1.2-1.091-1.2-1.854 0-.327.11-.655.218-.982l-5.67-3.381-11.67 6.98 3.054 17.34-1.854.328zm-2.836-18.431l3.163 17.994.981-.218-3.053-17.231 12.214-7.198 6.216 3.708-.109.218c-.218.327-.327.546-.327.873 0 .545.327 1.09.982 1.417.545.328 1.309.437 2.072.437.872 0 1.636-.218 2.181-.546.654-.436 1.09-.981 1.09-1.526 0-.546-.326-1.091-.98-1.418-.982-.545-2.618-.655-3.818-.109h-.109l-7.089-4.254-6.325 3.708-1.527-7.416 8.725-4.798 5.125 2.944-.327.219c-.218.327-.327.654-.327.981 0 .545.327 1.091.982 1.418.545.327 1.2.436 1.963.436.872 0 1.636-.218 2.18-.545.655-.436 1.091-.982 1.091-1.636 0-.545-.327-1.091-.981-1.418-.982-.545-2.508-.654-3.708-.218h-.11l-6.106-3.599-9.925 5.453 1.745 8.507-5.889 3.817zm22.03-.873c-.545 0-1.09-.109-1.527-.327-.109-.109-.436-.327-.436-.545 0-.218.218-.436.545-.655.436-.218 1.09-.436 1.745-.436.545 0 1.09.109 1.527.327.109.109.436.328.436.546 0 .218-.218.436-.545.654-.436.218-1.09.436-1.745.436zm-.218-10.36c-.546 0-1.09-.109-1.527-.328-.11-.109-.436-.327-.436-.545 0-.218.218-.436.545-.654.436-.218 1.09-.436 1.745-.436.545 0 1.09.109 1.527.327.109.109.436.327.436.545 0 .218-.218.436-.545.654-.546.219-1.2.437-1.745.437z" fill="#31388B"/>
  <path d="M103.942 223.103l-12.65-7.416-10.034.218-6.216 3.599.763 1.309 5.89-3.381 9.27-.218 10.142 5.998-8.07 4.799-.11-.11c-1.2-.654-3.162-.654-4.471.11-.764.436-1.2 1.09-1.2 1.744 0 .655.436 1.2 1.09 1.636.546.328 1.31.546 2.073.546a5.06 5.06 0 002.29-.546c.764-.436 1.2-1.09 1.2-1.745 0-.109 0-.218-.11-.436l10.143-6.107zm-11.887 6.871c-.873.436-2.181.545-2.945.109-.218-.109-.327-.328-.327-.437 0-.109.11-.327.436-.545.437-.218.982-.327 1.636-.327.545 0 .982.109 1.418.327.218.109.327.327.327.436 0 0-.218.218-.545.437z" fill="#EDEFF0"/>
  <path d="M90.528 231.173c-.872 0-1.636-.218-2.181-.545-.763-.436-1.2-1.091-1.2-1.854 0-.763.436-1.418 1.309-1.963 1.309-.763 3.38-.763 4.58-.109l7.635-4.581-9.816-5.78-9.16.218-5.999 3.49-.872-1.636 6.434-3.708 10.034-.218 12.977 7.634-10.251 5.999v.327c0 .763-.436 1.418-1.309 1.963-.436.545-1.309.763-2.18.763zm.218-4.471c-.763 0-1.636.218-2.181.545-.654.436-1.09.982-1.09 1.527 0 .545.327 1.091.98 1.418.546.327 1.2.436 2.073.436.872 0 1.636-.218 2.181-.545.655-.437 1.09-.982 1.09-1.636v-.436l9.925-5.781-12.324-7.306-9.924.218-5.998 3.49.545.872 5.78-3.272 9.27-.218 10.47 6.216-8.507 5.017-.109-.109s-.109 0-.109-.109c-.545-.218-1.308-.327-2.072-.327zm-.218 3.054c-.545 0-1.09-.109-1.527-.328-.109-.109-.436-.327-.436-.545 0-.218.218-.436.545-.654.436-.218 1.09-.436 1.745-.436.545 0 1.09.109 1.527.327.11.109.436.327.436.545 0 .218-.218.436-.545.654-.545.218-1.2.437-1.745.437z" fill="#31388B"/>
  <path d="M78.314 223.103v-11.015l-23.23-.436v10.797c-.11.218 0 .545.327.654l10.47 6.216c.545.327 1.527.327 2.18-.109l9.707-5.453c.436-.109.654-.327.546-.654z" fill="#C8193C"/>
  <path d="M66.971 229.865c-.436 0-.763-.109-1.09-.218l-10.47-6.217c-.327-.218-.545-.545-.436-.872v-11.015l23.557.436v11.233c0 .327-.218.654-.655.982l-9.706 5.453c-.327.109-.763.218-1.2.218zM55.302 211.87v10.579c-.109.218.11.327.218.436l10.47 6.216c.436.327 1.418.218 1.963-.109l9.706-5.453c.327-.109.436-.327.436-.545v-10.797l-22.793-.327z" fill="#31388B"/>
  <path d="M65.99 218.304l-10.47-6.216c-.545-.327-.436-.872.218-1.2l9.707-5.453c.654-.327 1.636-.436 2.18-.109l10.47 6.217c.546.327.437.872-.218 1.199l-9.706 5.453c-.654.437-1.636.437-2.181.109z" fill="#C8193C"/>
  <path d="M65.99 219.395l-10.252-6.107c-.545-.328-.436-.873.11-1.2l9.487-5.344c.655-.327 1.527-.327 2.073-.109l10.251 6.107c.545.328.436.873-.109 1.2l-9.488 5.344c-.654.327-1.527.436-2.072.109z" fill="#EDEFF0"/>
  <path d="M66.97 218.741c-.436 0-.763-.109-1.09-.219l-10.47-6.216c-.327-.218-.436-.436-.436-.763s.218-.655.654-.873l9.707-5.453c.654-.436 1.745-.436 2.29-.109l10.47 6.217c.327.218.436.436.436.763s-.218.654-.655.872l-9.706 5.453c-.327.219-.763.328-1.2.328zm-.545-13.415c-.327 0-.763.109-1.09.218l-9.707 5.453c-.218.109-.436.328-.436.546 0 .218.11.327.218.327l10.47 6.216c.436.327 1.418.218 1.963-.109l9.706-5.453c.218-.109.436-.327.436-.545 0-.218-.109-.327-.218-.327l-10.47-6.217c-.218 0-.545-.109-.872-.109z" fill="#31388B"/>
  <path d="M78.314 209.361v-4.689l-7.744-.218-3.053-1.854c-.545-.327-1.527-.327-2.181.109l-2.836 1.527-7.416-.218v4.689a.6.6 0 00.327.545l10.47 6.217c.545.327 1.527.327 2.181-.109l9.706-5.453c.436-.109.546-.327.546-.546z" fill="#C8193C"/>
  <path d="M66.972 216.014c-.437 0-.764-.109-1.091-.218l-10.47-6.216c-.327-.219-.436-.437-.436-.655v-4.689c0-.109.11-.218.218-.218l7.307.218 2.727-1.527c.654-.436 1.745-.436 2.29-.109l3.053 1.745 7.744.218c.109 0 .218.109.218.218v4.69c0 .327-.218.654-.655.872l-9.706 5.453c-.327.109-.763.218-1.2.218zm-11.67-11.778v4.58c0 .218.11.327.218.327l10.47 6.217c.436.327 1.418.218 1.963-.109l9.706-5.453c.327-.109.436-.327.436-.546v-4.471l-7.634-.218-3.162-1.854c-.437-.327-1.418-.218-1.963.109l-2.836 1.636-7.198-.218z" fill="#31388B"/>
  <path d="M65.99 210.779l-10.47-6.216c-.545-.327-.436-.873.218-1.2l9.707-5.453c.654-.327 1.636-.436 2.18-.109l10.47 6.217c.546.327.437.872-.218 1.199l-9.706 5.453c-.654.436-1.636.436-2.181.109z" fill="#C8193C"/>
  <path d="M65.99 211.652l-10.36-6.108c-.546-.327-.437-.872.108-1.199l9.489-5.344c.654-.327 1.526-.327 2.072-.109l10.36 6.107c.545.327.436.873-.109 1.2l-9.488 5.344c-.545.436-1.527.436-2.072.109z" fill="#EDEFF0"/>
  <path d="M66.97 211.215c-.436 0-.763-.109-1.09-.218l-10.47-6.216c-.327-.218-.436-.436-.436-.763 0-.328.218-.655.654-.873l9.707-5.453c.654-.436 1.745-.436 2.29-.109l10.47 6.216c.327.219.436.437.436.764s-.218.654-.655.872l-9.706 5.453c-.327.218-.763.327-1.2.327zm-.872-.654c.436.327 1.418.218 1.963-.109l9.706-5.453c.219-.109.437-.327.437-.545 0-.218-.11-.327-.218-.327l-10.47-6.217c-.436-.327-1.418-.218-1.963.109l-9.706 5.453c-.219.109-.437.327-.437.546 0 .218.11.327.218.327l10.47 6.216z" fill="#31388B"/>
  <path d="M66.208 209.034l-6.434-3.817c-.328-.218-.328-.545.109-.763l5.889-3.381c.436-.218.981-.218 1.308 0l6.435 3.817c.327.218.327.545-.11.764l-5.888 3.38c-.328.219-.982.219-1.309 0z" fill="#C8193C"/>
  <path d="M66.971 208.489c-.218 0-.545 0-.654-.218l-6.434-3.817a.6.6 0 01-.328-.545c0-.219.11-.437.437-.546l5.889-3.381c.436-.218 1.09-.218 1.527 0l6.434 3.817c.218.11.327.328.327.546 0 .218-.109.436-.436.545l-5.89 3.381c-.326.109-.654.218-.872.218zm-.327-8.179c-.218 0-.436 0-.654.109l-5.89 3.38c-.108.11-.218.219-.218.219 0 .109.11.109.11.109l6.434 3.817a1.86 1.86 0 001.09 0l5.89-3.381.218-.218c0-.109-.11-.109-.11-.109l-6.434-3.817c-.109-.109-.218-.109-.436-.109z" fill="#31388B"/>
  <path d="M72.642 205.544l-5.453-3.271a1.86 1.86 0 00-1.09 0l-5.017 2.835-1.2-.654a.6.6 0 01-.327-.545c0-.219.11-.437.437-.546l5.889-3.381c.436-.218 1.09-.218 1.527 0l6.434 3.817c.218.11.327.328.327.546 0 .218-.109.436-.436.545l-1.09.654zm-5.998-3.708c.218 0 .545 0 .655.219l5.234 3.162.873-.545.218-.218c0-.109-.109-.109-.109-.109l-6.434-3.817a1.86 1.86 0 00-1.091 0l-5.89 3.381-.217.218c0 .109.109.109.109.109l.981.545 4.799-2.726c.327-.11.654-.219.872-.219zm.436 9.161v4.799l1.963-.873 9.27-5.234v-4.799l-2.726 1.745-7.089 4.035-1.418.327zm0 7.525v11.124l1.091-.327 10.142-5.671v-11.233l-1.526.982-8.398 4.689-1.309.436z" fill="#31388B"/>
  <path d="M39.161 206.635V171.3l-35.335-.764v35.008c-.109.437 0 .764.546 1.091l16.031 9.488c.873.545 2.29.436 3.272-.109l14.723-8.288c.545-.328.763-.764.763-1.091z" fill="#C8193C"/>
  <path d="M21.821 216.669c-.545 0-1.09-.11-1.527-.328l-16.031-9.488c-.546-.327-.764-.763-.655-1.308v-35.227l35.772.655v35.553c0 .545-.328.982-.873 1.309l-14.723 8.288c-.654.436-1.309.546-1.963.546zM3.935 170.755v34.899c-.109.327 0 .654.437.872l16.031 9.488c.764.436 2.181.436 3.054-.109l14.723-8.288c.436-.218.763-.655.654-.982v-35.117l-34.899-.763z" fill="#31388B"/>
  <path d="M20.294 180.57l-16.031-9.488c-.873-.546-.764-1.309.218-1.854l14.723-8.289c.981-.545 2.399-.545 3.271-.109l16.032 9.488c.873.546.764 1.309-.218 1.854l-14.723 8.289c-.982.545-2.4.654-3.272.109z" fill="#C8193C"/>
  <path d="M20.403 182.315L4.59 172.936c-.873-.436-.764-1.309.218-1.854l14.614-8.18c.981-.545 2.4-.545 3.272-.109l15.813 9.379c.873.437.764 1.309-.218 1.854l-14.614 8.18c-1.09.545-2.508.545-3.272.109z" fill="#EDEFF0"/>
  <path d="M21.82 181.115c-.545 0-1.09-.109-1.527-.327L4.262 171.3c-.437-.218-.655-.654-.655-.982 0-.436.328-.872.873-1.199l14.723-8.289c1.09-.545 2.508-.654 3.49-.109l16.031 9.488c.437.218.655.655.655.982 0 .436-.328.872-.873 1.199l-14.723 8.289c-.654.327-1.309.436-1.963.436zm-1.418-.654c.764.436 2.182.436 3.054-.109l14.723-8.289c.436-.218.654-.545.654-.872 0-.327-.218-.545-.436-.655l-16.031-9.488c-.764-.436-2.182-.436-3.054.109l-14.723 8.289c-.436.218-.654.545-.654.872 0 .218.109.437.436.655l16.031 9.488z" fill="#31388B"/>
  <path d="M20.73 178.171l-9.815-5.781c-.545-.327-.436-.763.11-1.199l9.051-5.126c.545-.327 1.527-.327 1.963-.109l9.815 5.78c.546.327.437.764-.109 1.2l-9.052 5.126c-.545.327-1.417.327-1.963.109z" fill="#C8193C"/>
  <path d="M21.712 176.971c-.327 0-.764-.109-.982-.218l-9.815-5.78c-.327-.218-.436-.437-.436-.655 0-.327.218-.654.545-.872l9.052-5.126c.654-.327 1.636-.436 2.181-.109l9.815 5.78c.328.218.437.436.437.654 0 .328-.218.655-.546.873l-9.051 5.126c-.328.218-.764.327-1.2.327zm-.764-.545c.437.218 1.31.218 1.745-.109l9.052-5.126c.218-.109.437-.327.437-.436 0-.11-.11-.219-.219-.328l-9.815-5.78c-.436-.218-1.309-.218-1.745.109l-9.052 5.126c-.218.109-.436.327-.436.436 0 .109.11.218.218.327l9.816 5.781z" fill="#31388B"/>
  <path d="M30.328 172.499l-8.289-4.907c-.436-.218-1.309-.218-1.745.109l-7.634 4.362-1.745-1.09c-.327-.218-.436-.437-.436-.655 0-.327.218-.654.545-.872l9.052-5.126c.654-.327 1.636-.436 2.181-.109l9.815 5.78c.328.218.437.436.437.654 0 .328-.218.655-.546.873l-1.635.981zm-9.052-5.452c.327 0 .763.109.981.218l8.07 4.798 1.418-.763c.218-.109.437-.327.437-.436 0-.109-.11-.219-.219-.328l-9.815-5.78c-.436-.218-1.309-.218-1.745.109l-9.052 5.126c-.218.109-.436.327-.436.436 0 .109.11.218.218.328l1.527.872 7.416-4.144c.327-.327.763-.436 1.2-.436z" fill="#31388B"/>
  <path d="M17.568 203.036c0-.654-.327-1.418-.873-1.745l-11.887-7.089c-.218-.109-.436-.109-.545-.109h-.11L1.1 196.056l12.978 9.597 3.053-1.745c.11 0 .11-.109.219-.109.109-.218.218-.436.218-.763z" fill="#C8193C"/>
  <path d="M17.35 203.69c0-.654-.11-1.199-.546-1.417l-11.887-7.089c-.218-.109-.436-.109-.545-.109h-.11l-2.944 1.745 12.324 8.179 3.053-.981c.11 0 .218-.11.436-.328.11 0 .11.328.219 0z" fill="#EDEFF0"/>
  <path d="M14.078 205.872L.99 196.165c-.11-.109-.11-.218 0-.327l2.944-1.745h.11c.218-.109.545-.109.763.109l11.887 7.089c.546.327.982 1.2.982 1.854 0 .327-.11.654-.327.764-.11.109-.11.109-.219.109l-3.053 1.854zm-12.651-9.816l12.65 9.27 2.945-1.745s.11 0 .11-.109a.832.832 0 00.218-.545c0-.545-.328-1.309-.764-1.527L4.7 194.311c-.11-.109-.218-.109-.436 0h-.11l-2.726 1.745z" fill="#31388B"/>
  <path d="M13.533 205.544l-11.888-7.088c-.545-.328-.872-1.091-.872-1.745 0-.655.436-.982.981-.655l11.888 7.089c.545.327.872 1.091.872 1.745 0 .654-.436.872-.981.654z" fill="#C8193C"/>
  <path d="M13.969 205.871c-.11 0-.327 0-.436-.109l-11.888-7.088c-.545-.328-.981-1.2-.981-1.854 0-.437.218-.764.436-.873.218-.109.545-.109.763.109l11.888 7.089c.545.327.981 1.2.981 1.854 0 .436-.218.763-.436.872-.11-.109-.218 0-.327 0zm-.327-.545c.109 0 .218.109.436 0a.832.832 0 00.218-.545c0-.545-.327-1.309-.763-1.527l-11.888-7.089c-.109 0-.218-.109-.436 0a.833.833 0 00-.218.546c0 .545.327 1.308.763 1.526l11.888 7.089z" fill="#31388B"/>
  <path d="M14.187 203.691l3.054-1.745.327 1.09-.218.655-3.054 1.854.218-.982-.327-.872z" fill="#31388B"/>
  <path d="M17.568 197.801c0-.654-.328-1.418-.873-1.745l-11.887-7.089c-.218-.109-.436-.109-.545-.109h-.11l-2.944 1.745 12.978 9.597 3.054-1.745c.109 0 .109-.109.218-.109 0-.109.109-.327.109-.545z" fill="#C8193C"/>
  <path d="M17.35 198.455c0-.654-.11-1.199-.546-1.417l-11.887-7.089c-.218-.109-.436-.109-.545-.109h-.11l-3.053 1.854 12.324 8.179 3.053-.981c.11 0 .218-.109.436-.327.219-.219.219.109.328-.11z" fill="#EDEFF0"/>
  <path d="M14.078 200.528L.99 190.821c-.11-.109-.11-.218 0-.327l2.944-1.745h.11c.218-.109.545-.109.763.109l11.887 7.089c.546.327.982 1.2.982 1.854 0 .327-.11.654-.327.764-.11.109-.11.109-.219.109l-3.053 1.854zm-12.651-9.816l12.65 9.27 2.945-1.745s.11 0 .11-.109a.832.832 0 00.218-.545c0-.545-.328-1.309-.764-1.527L4.7 188.967c-.11-.109-.218-.109-.436 0h-.11l-2.726 1.745z" fill="#31388B"/>
  <path d="M13.533 200.2l-11.888-6.979c-.545-.328-.872-1.091-.872-1.745 0-.655.436-.982.981-.655l11.888 7.089c.545.327.872 1.091.872 1.745 0 .545-.436.873-.981.545z" fill="#C8193C"/>
  <path d="M13.969 200.528c-.11 0-.327 0-.436-.109L1.645 193.33c-.545-.327-.981-1.2-.981-1.854 0-.437.218-.764.436-.873.218-.109.545-.109.763.109l11.888 7.089c.545.327.981 1.2.981 1.854 0 .436-.218.764-.436.873h-.327zm-.327-.437c.109 0 .218.109.436 0a.832.832 0 00.218-.545c0-.545-.327-1.309-.763-1.527L1.645 190.93c-.109 0-.218-.109-.436 0a.835.835 0 00-.218.546c0 .545.327 1.308.763 1.527l11.888 7.088z" fill="#31388B"/>
  <path d="M14.187 198.455l3.054-1.854.327 1.2-.218.654-3.054 1.854.218-.981-.327-.873z" fill="#31388B"/>
  <path d="M17.568 192.566c0-.654-.328-1.417-.873-1.745l-11.887-7.088c-.218-.109-.436-.109-.545-.109h-.11l-2.944 1.744 12.978 9.598 3.054-1.745c.109 0 .109-.109.218-.109 0 0 .109-.218.109-.546z" fill="#C8193C"/>
  <path d="M17.35 193.221c0-.655-.11-1.2-.546-1.418l-11.887-7.089c-.218-.109-.436-.109-.545-.109h-.11l-2.944 1.745 12.324 8.179 3.053-.981c.11 0 .218-.109.436-.327.11 0 .11.327.218 0z" fill="#EDEFF0"/>
  <path d="M14.078 195.402L.99 185.696c-.11-.109-.11-.218 0-.328l2.944-1.744h.11c.217-.11.545-.11.763.109l11.887 7.088c.546.328.982 1.2.982 1.854 0 .328-.11.655-.328.764-.108.109-.108.109-.218.109l-3.053 1.854zm-12.651-9.815l12.65 9.27 2.945-1.745s.11 0 .11-.109a.835.835 0 00.217-.546c0-.545-.327-1.308-.763-1.527L4.7 183.842c-.11-.109-.218-.109-.437 0h-.109l-2.726 1.745z" fill="#31388B"/>
  <path d="M13.533 195.075l-11.888-7.089c-.545-.327-.872-1.091-.872-1.745 0-.654.436-.982.981-.654l11.887 7.088c.546.328.873 1.091.873 1.745 0 .655-.436.873-.981.655z" fill="#C8193C"/>
  <path d="M13.969 195.293c-.11 0-.327 0-.436-.109l-11.888-7.089c-.654-.327-1.09-1.091-1.09-1.854 0-.436.218-.763.436-.872.218-.11.545-.11.763.109l11.888 7.088c.545.328.981 1.2.981 1.854 0 .437-.218.764-.436.873h-.218zm-.327-.436c.109 0 .218.109.436 0a.835.835 0 00.218-.546c0-.545-.327-1.308-.763-1.526l-11.888-7.089c-.109 0-.218-.109-.436 0a.832.832 0 00-.218.545c0 .545.327 1.309.763 1.527l11.888 7.089z" fill="#31388B"/>
  <path d="M14.187 193.221l3.054-1.745.327 1.09-.218.655-3.054 1.854.218-.982-.327-.872z" fill="#31388B"/>
  <path d="M17.568 187.331c0-.654-.328-1.417-.873-1.744l-11.887-7.089c-.218-.109-.436-.109-.545-.109h-.11l-2.944 1.745 12.978 9.597 3.054-1.745c.109 0 .109-.109.218-.109 0-.109.109-.327.109-.546z" fill="#C8193C"/>
  <path d="M17.35 187.986c0-.654-.11-1.2-.546-1.418l-11.887-7.089c-.218-.109-.436-.109-.545-.109h-.11l-2.944 1.745 12.324 8.18 3.053-.982c.11 0 .218-.109.436-.327.11-.109.11.218.219 0z" fill="#EDEFF0"/>
  <path d="M14.078 190.058L.99 180.352c-.11-.109-.11-.218 0-.327l2.944-1.745h.11c.218-.109.545-.109.763.109l11.887 7.089c.546.327.982 1.199.982 1.854 0 .327-.11.654-.327.763-.11.109-.11.109-.219.109l-3.053 1.854zm-12.651-9.815l12.65 9.27 2.945-1.745s.11 0 .11-.109a.833.833 0 00.218-.546c0-.545-.328-1.308-.764-1.526L4.7 178.498c-.11-.109-.218-.109-.436 0h-.11l-2.726 1.745z" fill="#31388B"/>
  <path d="M13.533 189.731l-11.888-6.98c-.545-.327-.872-1.09-.872-1.745 0-.654.436-.981.981-.654l11.888 6.98c.545.327.872 1.09.872 1.745 0 .654-.436.981-.981.654z" fill="#C8193C"/>
  <path d="M13.969 190.058c-.11 0-.327 0-.436-.109L1.645 182.86c-.545-.327-.981-1.2-.981-1.854 0-.436.218-.763.436-.872.218-.109.545-.109.763.109l11.888 7.089c.545.327.981 1.199.981 1.854 0 .436-.218.763-.436.872h-.327zm-.327-.436c.109 0 .218.109.436 0a.833.833 0 00.218-.546c0-.545-.327-1.308-.763-1.526l-11.888-7.089c-.109 0-.218-.109-.436 0a.832.832 0 00-.218.545c0 .545.327 1.309.763 1.527l11.888 7.089z" fill="#31388B"/>
  <path d="M14.187 187.986l3.054-1.854.327 1.2-.218.654-3.054 1.854.218-.982-.327-.872zm7.634-7.198v35.444l.981.218 15.487-8.724.872-.764v-35.226l-.763.436-15.377 8.616h-1.2z" fill="#31388B"/>
  <path d="M25.202 187.659v-2.181l.109-.109 11.451-6.653v2.181l-.109.109-11.451 6.653zm.436-1.963v1.308l10.797-6.216v-1.309l-10.797 6.217zm7.307.872v-2.181l3.817-2.181v2.181l-3.817 2.181zm.436-1.963v1.309l3.054-1.745v-1.309l-3.054 1.745zm-8.179 6.435v-2.182l6.87-3.926v2.181l-6.87 3.927zm.436-1.964v1.309l5.998-3.49v-1.308l-5.998 3.489zm2.836 3.272v-2.181l8.397-4.798v2.181l-8.397 4.798zm.327-1.963v1.309l7.525-4.362v-1.309l-7.525 4.362zm-3.599 3.817v-2.181l2.29-1.309v2.182l-2.29 1.308zm.436-1.963v1.309l1.527-.873v-1.308l-1.527.872zm-.436 5.344v-2.181l.109-.109 11.451-6.653v2.181l-.109.11-11.451 6.652zm.436-1.963v1.309l10.797-6.217v-1.308l-10.797 6.216zm7.307.873v-2.182l3.817-2.181v2.181l-3.817 2.182zm.436-1.963v1.308l3.054-1.745v-1.308l-3.054 1.745zm-8.179 6.434v-2.181l6.87-3.926v2.181l-6.87 3.926zm.436-1.963v1.309l5.998-3.49v-1.309l-5.998 3.49zm2.836 3.272v-2.182l8.397-4.798v2.181l-8.397 4.799zm.327-1.963v1.308l7.525-4.362v-1.309L28.8 200.31zm-3.599 3.817v-2.182l2.29-1.308v2.181l-2.29 1.309zm.436-1.963v1.308l1.527-.872v-1.309l-1.527.873zm-.436 5.234v-2.181l.109-.109 11.451-6.652v2.181l-.109.109-11.451 6.652zm.436-1.963v1.309l10.797-6.216v-1.309l-10.797 6.216z" fill="#C8193C"/>
  <path d="M233.231 54.69l-.705-1.41 10.935-6.35-1.059-11.287 8.113-4.703.706 1.293-7.173 4.233 1.059 11.405-11.876 6.82z" fill="#EDEFF0"/>
  <path d="M233.113 54.102l-.94-1.763 11.052-6.35-1.058-11.405 8.348-4.82 1.058 1.763-7.172 4.233 1.058 11.405-12.346 6.938zm-.352-1.646l.588.941 11.522-6.584-1.058-11.406 7.055-4.115-.588-.94-7.76 4.468 1.058 11.405-10.817 6.231z" fill="#31388B"/>
  <path d="M239.563 57.08l1.613.67 15.26-12.762.821-10.735-11.141-12.12-1.696.419 11.02 11.875-.916 10.18-14.961 12.473z" fill="#EDEFF0"/>
  <path d="M240.246 57.21l2.015.859 15.41-12.908.964-10.803-11.404-12.295-1.984.552 11.02 11.875-.91 10.103-15.111 12.617zm1.769.449l-1.074-.474 14.961-12.472.923-10.258-10.895-11.71 1.133-.304 11.015 11.953-.952 10.647-15.111 12.618z" fill="#31388B"/>
  <path d="M272.449 52.206c-.339.255-.567.548-.684.881l-10.087-6.047-14.381 12.511 1.058 1.245 13.474-11.708 2.173 1.264.196 12.536 12.742 7.356c-.274.776-.286 1.52-.188 2.302.17.933.679 1.61 1.345 1.845.665.235 1.376-.014 2.054-.523.528-.437 1.023-1.135 1.297-1.911a5.477 5.477 0 00.266-2.525c-.171-.932-.68-1.61-1.345-1.845-.665-.234-1.376.014-2.054.523-.339.255-.567.549-.685.881l-11.932-6.822-.078-10.748 5.448 3.29a4.386 4.386 0 00-.149 2.192c.17.933.679 1.61 1.344 1.845.666.234 1.377-.014 2.055-.523.528-.437 1.023-1.135 1.296-1.912a5.45 5.45 0 00.266-2.524c-.17-.932-.679-1.61-1.344-1.845-.698-.495-1.481-.397-2.087.262zm7.34 16.673c.111.04.294.228.398.64.131 1.042-.227 2.412-.944 3.032-.189.183-.45.216-.56.177-.111-.04-.294-.228-.399-.64-.065-.52.019-1.114.254-1.78a3.25 3.25 0 01.84-1.324c.15-.072.3-.144.411-.105zm-5.507-15.154c.131 1.043-.226 2.413-.944 3.033-.189.183-.449.216-.56.177-.111-.04-.294-.229-.399-.64-.065-.521.019-1.115.254-1.78a3.26 3.26 0 01.84-1.325c.189-.182.45-.215.561-.176.072.15.255.34.248.71z" fill="#EDEFF0"/>
  <path d="M280.86 71.5c-.312.888-.807 1.586-1.336 2.023-.717.62-1.538.83-2.315.556-.776-.274-1.285-.952-1.527-2.034a4.06 4.06 0 01.149-2.192l-12.742-7.356-.196-12.535-1.951-1.186-13.625 11.78-1.35-1.473 14.719-12.766 9.976 6.008c.228-.294.456-.588.645-.77.717-.62 1.539-.83 2.315-.556.777.274 1.286.952 1.528 2.034.209.822.007 1.748-.305 2.635-.313.887-.808 1.586-1.336 2.023-.717.62-1.539.829-2.315.555-.777-.273-1.286-.951-1.528-2.034-.137-.671-.124-1.415.11-2.08l-5.043-3.023.162 10.154 11.6 6.705c.228-.294.417-.476.645-.77.717-.62 1.539-.83 2.315-.556.777.274 1.286.952 1.528 2.034.281.972.19 1.937-.123 2.825zm-17.36-9.108l12.853 7.396-.039.11a4.05 4.05 0 00-.149 2.192c.209.822.607 1.46 1.162 1.656.554.195 1.226.058 1.793-.49.528-.437.873-1.064 1.186-1.95.312-.888.364-1.742.227-2.414-.209-.822-.608-1.46-1.162-1.656-.555-.196-1.226-.058-1.793.49-.189.183-.418.476-.646.77l-.078.222-12.115-7.011-.144-11.27 5.964 3.597-.04.11c-.273.777-.286 1.52-.109 2.081.209.822.607 1.46 1.273 1.695.554.195 1.226.058 1.793-.49.528-.437.873-1.064 1.147-1.84.312-.887.364-1.742.227-2.413-.21-.822-.608-1.46-1.273-1.695-.555-.196-1.226-.058-1.793.49-.189.183-.528.437-.685.88l-.078.223-10.087-6.047-14.152 12.217.692.867 13.474-11.708 2.356 1.453.196 12.535zm15.919 8.6c-.196.555-.502 1.07-.88 1.436-.15.072-.489.326-.711.248-.222-.078-.365-.378-.47-.789-.065-.522-.053-1.265.182-1.93.195-.555.501-1.07.879-1.436.15-.072.489-.326.711-.248.222.078.366.378.47.789.027.633.014 1.376-.181 1.93zm-5.944-15.682c-.196.555-.502 1.07-.88 1.436-.15.072-.489.326-.711.248-.222-.078-.365-.378-.47-.789-.065-.522-.053-1.265.182-1.93.195-.555.501-1.07.879-1.436.15-.072.489-.326.711-.248.222.078.366.378.47.789.138.671.053 1.265-.181 1.93z" fill="#31388B"/>
  <path d="M263.802 27.765V15.889l-24.927-.47v11.64c-.118.236 0 .588.353.706l11.287 6.702c.588.353 1.646.353 2.352-.118l10.464-5.878c.353-.118.471-.353.471-.706z" fill="#C8193C"/>
  <path d="M251.573 35.055c-.47 0-.823-.118-1.175-.235l-11.288-6.702c-.353-.235-.588-.588-.47-.94V15.301l25.397.47v12.11c0 .353-.235.706-.706 1.059l-10.464 5.879c-.353.117-.823.235-1.294.235zm-12.58-19.4V27.06c-.118.235.117.352.235.47l11.287 6.702c.471.353 1.529.235 2.117-.118l10.464-5.879c.353-.117.471-.352.471-.588v-11.64l-24.574-.353z" fill="#31388B"/>
  <path d="M250.515 22.591l-11.287-6.702c-.588-.352-.471-.94.235-1.293l10.464-5.879c.706-.353 1.764-.47 2.352-.117l11.288 6.702c.588.352.47.94-.235 1.293l-10.465 5.879c-.823.47-1.764.47-2.352.117z" fill="#C8193C"/>
  <path d="M250.515 23.767l-11.052-6.584c-.588-.353-.47-.94.118-1.293l10.229-5.762c.705-.353 1.646-.353 2.234-.117l11.052 6.584c.588.353.471.94-.117 1.293l-10.23 5.762c-.705.353-1.646.47-2.234.117z" fill="#EDEFF0"/>
  <path d="M251.456 23.062c-.47 0-.823-.118-1.176-.235l-11.288-6.702c-.352-.236-.47-.47-.47-.823s.235-.706.706-.941l10.464-5.88c.706-.47 1.881-.47 2.469-.117l11.288 6.702c.353.236.47.47.47.823s-.235.706-.705.941l-10.465 5.879c-.235.235-.705.353-1.293.353zm-.47-14.462c-.353 0-.824.117-1.176.235l-10.465 5.879c-.235.117-.47.352-.47.588 0 .235.117.352.235.352l11.288 6.702c.47.353 1.528.235 2.116-.117l10.465-5.88c.235-.117.47-.352.47-.587s-.118-.353-.235-.353l-11.288-6.702c-.235-.117-.588-.117-.94-.117z" fill="#31388B"/>
  <path d="M263.802 12.95V7.894l-8.348-.235-3.293-1.999c-.588-.353-1.646-.353-2.351.118l-3.057 1.646-7.996-.235v5.055c0 .236.118.47.353.588l11.288 6.702c.588.353 1.646.353 2.351-.117l10.465-5.88c.47-.117.588-.352.588-.587z" fill="#C8193C"/>
  <path d="M251.573 20.122c-.47 0-.823-.117-1.175-.235l-11.288-6.702c-.353-.235-.47-.47-.47-.705V7.424c0-.118.117-.235.235-.235l7.878.235 2.939-1.646c.706-.47 1.881-.47 2.469-.118l3.292 1.881 8.349.235c.117 0 .235.118.235.236v5.056c0 .352-.235.705-.706.94l-10.464 5.88c-.353.117-.823.234-1.294.234zM238.992 7.424v4.938c0 .235.118.353.236.353l11.287 6.702c.47.352 1.529.235 2.117-.118l10.464-5.879c.353-.117.47-.352.47-.588V7.894l-8.23-.235-3.41-1.999c-.47-.353-1.528-.235-2.116.118l-3.057 1.763-7.761-.117z" fill="#31388B"/>
  <path d="M250.515 14.478l-11.287-6.702c-.588-.352-.471-.94.235-1.293L249.927.604c.706-.353 1.764-.47 2.352-.118l11.287 6.702c.588.353.471.941-.235 1.294l-10.464 5.879c-.706.47-1.764.47-2.352.117z" fill="#C8193C"/>
  <path d="M250.515 15.419l-11.17-6.584c-.588-.353-.47-.941.118-1.294l10.229-5.761c.706-.353 1.646-.353 2.234-.118l11.17 6.585c.588.352.47.94-.117 1.293l-10.23 5.762c-.588.47-1.646.47-2.234.117z" fill="#EDEFF0"/>
  <path d="M251.573 14.949c-.47 0-.823-.118-1.175-.235L239.11 8.012c-.353-.236-.47-.47-.47-.823s.235-.706.705-.941L249.81.369c.705-.47 1.881-.47 2.469-.118l11.287 6.702c.353.236.471.47.471.823s-.235.706-.706.941l-10.464 5.88c-.353.234-.823.352-1.294.352zm-.94-.706c.47.353 1.528.236 2.116-.117l10.465-5.88c.235-.117.47-.352.47-.587s-.118-.353-.235-.353L252.161.604c-.47-.353-1.528-.235-2.116.118L239.58 6.6c-.235.117-.47.352-.47.588 0 .235.118.352.235.352l11.288 6.702z" fill="#31388B"/>
  <path d="M250.75 12.597l-6.937-4.115c-.353-.235-.353-.588.118-.823l6.349-3.645c.47-.235 1.058-.235 1.411 0l6.937 4.115c.353.235.353.588-.117.823l-6.35 3.645c-.352.235-1.058.235-1.411 0z" fill="#C8193C"/>
  <path d="M251.573 12.01c-.235 0-.588 0-.706-.236L243.93 7.66a.647.647 0 01-.353-.588c0-.235.118-.47.471-.588l6.349-3.645c.47-.235 1.176-.235 1.646 0l6.937 4.115a.647.647 0 01.353.588c0 .235-.118.47-.47.588l-6.35 3.645c-.352.118-.705.235-.94.235zm-.353-8.82c-.235 0-.47 0-.706.118l-6.349 3.645-.235.236c0 .117.118.117.118.117l6.937 4.115c.353.118.823.118 1.176 0l6.349-3.645.235-.235c0-.117-.118-.117-.118-.117l-6.937-4.116c-.117-.117-.235-.117-.47-.117z" fill="#31388B"/>
  <path d="M257.687 8.835l-5.879-3.528a2.001 2.001 0 00-1.175 0l-5.409 3.057-1.293-.705a.647.647 0 01-.353-.588c0-.235.118-.47.47-.588l6.35-3.645c.47-.235 1.175-.235 1.646 0l6.937 4.115a.647.647 0 01.353.588c0 .235-.118.47-.471.588l-1.176.706zm-6.466-3.998c.235 0 .587 0 .705.235l5.644 3.41.94-.588.236-.235c0-.118-.118-.118-.118-.118l-6.937-4.115a2.004 2.004 0 00-1.176 0l-6.349 3.645-.235.235c0 .118.117.118.117.118l1.058.588 5.174-2.94c.353-.117.588-.235.941-.235zm.47 9.877v5.173l2.116-.94 9.995-5.644V8.129l-2.94 1.881-7.643 4.35-1.528.354zm0 8.112V34.82l1.176-.352 10.935-6.114V16.242l-1.647 1.058-9.053 5.056-1.411.47z" fill="#31388B"/>
  <path d="M203.235 157.604l-.854 1.458 14.288 8.26-3.664 10.204 13.922 8.018 17.707-2.065 4.274 2.429c-.244.365-.366.729-.366 1.093 0 .729.488 1.337 1.221 1.823.611.364 1.466.607 2.32.607a5.71 5.71 0 002.565-.607c.855-.486 1.343-1.215 1.343-1.944 0-.729-.488-1.336-1.221-1.822-1.221-.729-3.175-.729-4.518-.122l-5.374-3.037-17.707 2.066-12.334-7.167 3.663-10.204-15.265-8.99zm49.337 28.426c.61 0 1.099.121 1.587.364.245.122.367.365.367.486s-.122.364-.489.607c-.977.486-2.442.608-3.297.122-.244-.122-.366-.365-.366-.486 0-.122.122-.364.488-.607.367-.365 1.099-.486 1.71-.486z" fill="#EDEFF0"/>
  <path d="M252.206 188.702c-.977 0-1.832-.243-2.443-.607-.855-.486-1.343-1.215-1.343-2.065 0-.365.122-.729.244-.972l-4.03-2.308-17.707 2.065-14.166-8.26 3.663-10.204-14.288-8.26 1.1-1.823 15.753 9.111-3.664 10.204 12.09 7.046 17.708-2.066 5.251 3.037c1.465-.607 3.419-.486 4.64.243.855.486 1.344 1.215 1.344 2.065 0 .851-.489 1.58-1.466 2.187-.733.364-1.709.607-2.686.607zm-7.45-6.438l4.519 2.673-.122.242c-.245.365-.367.608-.367.972 0 .608.367 1.215 1.099 1.579.611.365 1.344.486 2.198.486.977 0 1.832-.243 2.443-.607.733-.486 1.221-1.093 1.221-1.701 0-.607-.366-1.214-1.099-1.579-1.099-.607-2.931-.729-4.274-.121h-.122l-5.374-3.037-17.707 2.065-12.578-7.289 3.663-10.204-15.02-8.746-.611.972 14.166 8.26-3.664 10.204 13.678 7.896 17.951-2.065zm7.45 4.859c-.611 0-1.222-.121-1.71-.364-.122-.122-.489-.365-.489-.608s.245-.486.611-.729c.488-.243 1.221-.485 1.954-.485.611 0 1.221.121 1.71.364.122.121.488.364.488.607s-.244.486-.611.729c-.61.365-1.221.486-1.953.486z" fill="#31388B"/>
  <path d="M236.941 158.698l7.449 4.373 8.06-4.738 23.691 13.727-2.198 7.896 10.991 6.317c-.367.364-.489.85-.489 1.214 0 .729.489 1.337 1.222 1.823.61.364 1.465.607 2.32.607.977 0 1.832-.243 2.564-.607.855-.486 1.344-1.215 1.344-1.944 0-.729-.489-1.336-1.222-1.822-1.099-.608-2.93-.729-4.274-.243l-10.624-6.074 2.198-7.896-25.645-14.82-8.06 4.738-5.862-3.402-.122-4.494-13.555-7.896-.855 1.458 12.822 7.41.245 4.373zm51.412 27.818c.611 0 1.099.121 1.588.364.244.121.366.364.366.486 0 .121-.122.364-.488.607-.977.486-2.443.608-3.298.122-.244-.122-.366-.365-.366-.486 0-.122.122-.365.488-.608.367-.364.977-.485 1.71-.485z" fill="#EDEFF0"/>
  <path d="M287.987 189.188c-.977 0-1.832-.243-2.443-.607-.854-.486-1.343-1.215-1.343-2.065 0-.365.122-.851.366-1.215l-10.868-6.317 2.198-7.896-23.447-13.605-8.06 4.738-7.693-4.495-.123-4.495-12.944-7.409 1.099-1.823 13.921 8.018.123 4.494 5.617 3.28 8.06-4.737.122.121 25.767 14.942-2.198 7.895 10.38 5.953c1.466-.486 3.175-.365 4.397.243.855.486 1.343 1.214 1.343 2.065 0 .85-.488 1.579-1.465 2.186a5.697 5.697 0 01-2.809.729zm-13.8-10.325l10.991 6.438-.122.243c-.244.364-.489.729-.489 1.093 0 .608.367 1.215 1.1 1.579.61.365 1.343.486 2.32.486.977 0 1.832-.243 2.442-.607.733-.486 1.221-1.093 1.221-1.701 0-.607-.366-1.215-1.099-1.579-1.099-.607-2.808-.729-4.152-.243h-.122l-10.869-6.317 2.199-7.896-25.401-14.698-8.06 4.738-6.106-3.523-.122-4.495-13.311-7.653-.611.972 12.701 7.289.122 4.494 7.205 4.13 8.06-4.737 24.057 13.848-1.954 8.139zm13.8 8.746c-.611 0-1.221-.122-1.71-.364-.122-.122-.488-.365-.488-.608s.244-.486.61-.729c.489-.243 1.221-.486 1.954-.486.611 0 1.221.122 1.71.365.122.121.488.364.488.607s-.244.486-.61.729c-.611.364-1.344.486-1.954.486z" fill="#31388B"/>
  <path d="M258.678 192.346c-1.099-.607-2.565-.728-3.908-.364l-10.747-6.195-19.05 2.186-16.608-9.596 4.029-10.933-19.905-11.54-.855 1.458 18.684 10.811-4.03 10.933 18.196 10.568 19.051-2.187 9.525 5.467c-.488.486-.732.972-.732 1.458 0 .728.488 1.336 1.221 1.822.61.364 1.465.607 2.32.607a5.71 5.71 0 002.565-.607c.854-.486 1.343-1.215 1.343-1.944.122-.85-.244-1.458-1.099-1.944zm-.855 2.43c-.977.486-2.442.607-3.297.121-.244-.121-.367-.364-.367-.485 0-.122.123-.365.489-.608.488-.243 1.099-.364 1.832-.364.61 0 1.099.121 1.587.364.245.122.367.365.367.486-.122 0-.245.243-.611.486z" fill="#EDEFF0"/>
  <path d="M255.991 196.112c-.977 0-1.831-.243-2.442-.607-.855-.486-1.343-1.215-1.343-2.065 0-.486.244-.972.61-1.458l-9.159-5.345-19.05 2.187-18.44-10.69 4.03-10.933-18.685-10.811 1.099-1.822 20.272 11.661-4.03 10.933 16.364 9.475 19.051-2.187 10.746 6.196c1.344-.365 2.931-.243 4.03.364.855.486 1.344 1.215 1.344 2.065 0 .851-.489 1.579-1.466 2.187a5.426 5.426 0 01-2.931.85zm-12.334-9.839l9.77 5.709-.244.243c-.367.364-.611.85-.611 1.336 0 .607.366 1.215 1.099 1.579.611.365 1.466.486 2.198.486.977 0 1.832-.243 2.443-.607.732-.486 1.221-1.093 1.221-1.701 0-.607-.366-1.215-1.099-1.579-.977-.607-2.443-.729-3.664-.364h-.122l-10.869-6.317-19.05 2.186-16.731-9.718 4.03-10.932-19.539-11.298-.61.972 18.684 10.812-4.03 10.932 17.952 10.447 19.172-2.186zm12.334 8.26c-.61 0-1.221-.122-1.709-.365-.122-.121-.489-.364-.489-.607s.245-.486.611-.729c.488-.243 1.221-.486 1.954-.486.61 0 1.221.122 1.709.365.123.121.489.364.489.607s-.244.486-.611.729c-.61.243-1.221.486-1.954.486z" fill="#31388B"/>
  <path d="M273.21 188.338c-.977-.608-2.442-.729-3.785-.365l-8.06-4.616 3.297-9.596-12.212-7.046-9.403 5.345-1.344 6.56-11.479 1.336-8.426-4.859 3.175-9.111-27.721-16.034-.855 1.457 26.622 15.428-3.175 9.11 10.014 5.831 13.189-1.458 1.343-7.045 7.938-4.495 10.258 5.953-3.297 9.596 8.304 4.738c-.489.486-.855.971-.855 1.579 0 .729.488 1.336 1.221 1.822.611.364 1.466.607 2.32.607a5.71 5.71 0 002.565-.607c.855-.486 1.343-1.215 1.343-1.944.244-1.093-.122-1.7-.977-2.186zm-.855 2.429c-.977.486-2.442.608-3.297.122-.244-.122-.366-.365-.366-.486 0-.122.122-.365.488-.608.489-.242 1.099-.364 1.832-.364.611 0 1.099.122 1.588.364.244.122.366.365.366.486-.122 0-.244.243-.611.486z" fill="#EDEFF0"/>
  <path d="M270.524 192.103c-.977 0-1.832-.242-2.443-.607-.855-.486-1.343-1.215-1.343-2.065 0-.607.244-1.093.611-1.579l-8.182-4.738 3.297-9.596-10.014-5.831-7.694 4.373-1.343 7.046-13.433 1.457-10.258-5.952 3.175-9.111-26.622-15.427 1.099-1.822 28.088 16.278-3.176 9.11 8.182 4.738 11.235-1.215 1.222-6.56 9.525-5.466 12.578 7.288-3.297 9.597 7.816 4.495c1.343-.243 2.809-.122 3.785.486.855.485 1.344 1.214 1.344 2.065 0 .85-.489 1.579-1.466 2.186-.732.608-1.587.85-2.686.85zm-10.747-9.11l8.426 4.859-.244.243c-.488.364-.733.85-.733 1.457 0 .608.367 1.215 1.1 1.58.61.364 1.343.486 2.32.486.977 0 1.832-.243 2.442-.608.733-.486 1.221-1.093 1.221-1.822 0-.607-.366-1.215-1.099-1.579-.977-.486-2.32-.729-3.541-.365h-.122l-8.304-4.859 3.297-9.596-11.968-6.924-9.159 5.223-1.343 6.681-11.724 1.337-8.67-4.981 3.175-9.11-27.355-15.914-.611.972 26.5 15.427-3.175 9.111 9.77 5.709 12.945-1.457 1.343-6.924 8.06-4.616 10.624 6.073-3.175 9.597zm10.747 7.531c-.611 0-1.221-.121-1.71-.364-.122-.122-.488-.365-.488-.608 0-.242.244-.485.61-.728.489-.243 1.221-.486 1.954-.486.611 0 1.221.121 1.71.364.122.122.488.365.488.608 0 .242-.244.485-.61.728-.489.243-1.222.486-1.954.486z" fill="#31388B"/>
  <path d="M295.925 195.748c-1.222-.729-3.053-.729-4.519-.122l-23.203-13.241 3.42-9.353-19.051-11.054-7.449 4.251-32.973-19.193-.854 1.336 33.705 19.558 7.449-4.252 16.975 9.84-3.542 9.353 23.813 13.606c-.244.364-.366.728-.366 1.093 0 .729.489 1.336 1.221 1.822.611.364 1.466.607 2.321.607.976 0 1.831-.243 2.564-.607.855-.486 1.343-1.215 1.343-1.944.367-.607-.122-1.336-.854-1.7zm-.977 2.308c-.977.486-2.443.607-3.298.121-.244-.121-.366-.364-.366-.486 0-.121.122-.364.488-.607.489-.243 1.1-.364 1.832-.364.611 0 1.099.121 1.588.364.244.121.366.364.366.486-.122.121-.244.364-.61.486z" fill="#EDEFF0"/>
  <path d="M293.238 199.513c-.977 0-1.832-.242-2.443-.607-.854-.486-1.343-1.215-1.343-2.065 0-.364.122-.729.244-1.093l-23.691-13.605 3.542-9.354-16.731-9.718-7.449 4.252-.122-.122-34.072-19.557 1.099-1.822 32.973 19.193 7.449-4.252.122.121 19.173 11.055-3.419 9.353 22.958 13.12c1.466-.608 3.297-.486 4.641.242.855.486 1.343 1.215 1.343 2.066 0 .85-.488 1.579-1.465 2.186-.855.365-1.832.607-2.809.607zm-26.744-17.492l23.813 13.605-.122.243c-.244.365-.367.608-.367.972 0 .607.367 1.215 1.1 1.579.61.365 1.343.486 2.198.486.977 0 1.832-.243 2.442-.607.733-.486 1.221-1.094 1.221-1.701s-.366-1.215-1.099-1.579c-1.099-.607-2.931-.729-4.274-.122h-.244l-23.325-13.362 3.419-9.353-18.684-10.812-7.449 4.252-.122-.122-32.729-19.071-.61.972 33.461 19.436 7.449-4.252 17.341 9.961-3.419 9.475zm26.744 15.792c-.611 0-1.221-.122-1.71-.365-.122-.121-.488-.364-.488-.607s.244-.486.61-.729c.489-.243 1.221-.486 1.954-.486.611 0 1.221.122 1.71.365.122.121.488.364.488.607s-.244.486-.61.729c-.611.364-1.344.486-1.954.486z" fill="#31388B"/>
  <path d="M45.464 113.989c-1.365-.819-3.414-.819-5.053-.136l-9.013-5.326-7.784 4.506-1.775-8.74 10.652-5.872 6.008 3.551c-.273.409-.546.819-.546 1.365 0 .82.546 1.502 1.366 2.049.683.409 1.639.683 2.595.683a6.357 6.357 0 002.867-.683c.956-.547 1.503-1.366 1.503-2.185 0-.82-.547-1.503-1.366-2.049-1.366-.819-3.277-.819-4.916-.273l-7.648-4.507-12.7 6.965 2.185 10.652-7.648 4.507 4.097 22.943 1.775-.273-3.823-21.714 15.022-8.74 7.374 4.37c-.273.41-.41.819-.41 1.229 0 .819.547 1.502 1.366 2.048.683.41 1.639.683 2.595.683a6.344 6.344 0 002.868-.683c.956-.546 1.502-1.365 1.502-2.185.273-.956-.137-1.638-1.093-2.185zm-3.004-11.744c.683 0 1.229.136 1.775.409.273.137.41.41.41.547 0 .136-.137.409-.546.683-1.093.546-2.732.682-3.688.136-.273-.136-.41-.41-.41-.546 0-.137.137-.41.547-.683.546-.41 1.23-.546 1.912-.546zm2.048 14.476c-1.092.546-2.73.682-3.687.136-.273-.136-.41-.41-.41-.546 0-.137.137-.41.547-.683.546-.273 1.229-.41 2.048-.41.683 0 1.23.137 1.776.41.273.137.41.41.41.546-.137 0-.274.273-.684.547z" fill="#EDEFF0"/>
  <path d="M18.424 140.619l-4.096-23.352 7.647-4.507-2.185-10.652 12.974-7.101 7.647 4.506c1.64-.546 3.688-.41 5.053.273.956.547 1.503 1.366 1.503 2.322s-.547 1.775-1.64 2.458c-.819.547-1.911.683-3.004.683-1.092 0-2.048-.273-2.73-.683-.957-.546-1.503-1.365-1.503-2.321 0-.41.136-.82.41-1.229l-5.6-3.278-10.378 5.736 1.638 8.194 7.511-4.507 9.014 5.326c1.638-.683 3.687-.546 5.052.273.956.546 1.503 1.366 1.503 2.322s-.547 1.775-1.639 2.458c-.82.546-1.912.683-3.005.683-1.092 0-2.048-.273-2.73-.683-.957-.546-1.503-1.366-1.503-2.322 0-.409.137-.819.273-1.229l-7.101-4.233-14.613 8.74 3.824 21.714-2.322.409zm-3.55-23.079l3.96 22.533 1.23-.273-3.825-21.577 15.296-9.014 7.784 4.644-.137.273c-.273.41-.41.683-.41 1.092 0 .683.41 1.366 1.23 1.776.683.409 1.639.546 2.594.546 1.093 0 2.049-.273 2.732-.683.82-.546 1.365-1.229 1.365-1.912 0-.683-.41-1.365-1.229-1.775-1.229-.683-3.277-.82-4.78-.137h-.136l-8.877-5.326-7.92 4.643-1.912-9.286 10.925-6.009 6.418 3.687-.41.274c-.272.409-.409.819-.409 1.229 0 .682.41 1.365 1.23 1.775.682.41 1.501.546 2.457.546 1.093 0 2.049-.273 2.732-.683.819-.546 1.365-1.229 1.365-2.048 0-.683-.41-1.366-1.229-1.775-1.229-.683-3.14-.82-4.643-.273h-.137l-7.647-4.507-12.428 6.828 2.185 10.652-7.374 4.78zm27.586-1.093c-.683 0-1.366-.136-1.912-.409-.137-.137-.546-.41-.546-.683 0-.273.273-.546.683-.819.546-.274 1.365-.547 2.185-.547.683 0 1.365.137 1.912.41.136.137.546.41.546.683 0 .273-.273.546-.683.819-.546.273-1.366.546-2.185.546zm-.273-12.973c-.683 0-1.366-.137-1.912-.41-.137-.137-.546-.41-.546-.683 0-.273.273-.546.682-.819.547-.273 1.366-.546 2.185-.546.683 0 1.366.136 1.912.409.137.137.547.41.547.683 0 .273-.273.546-.683.819-.683.274-1.502.547-2.185.547z" fill="#31388B"/>
  <path d="M127.636 219.357c-.41-.273-.82-.41-1.229-.41l2.731-13.383-19.256-10.925-.956 1.638 18.027 10.243-.546 2.868-13.657 5.053-3.141 16.797c-.956 0-1.775.273-2.595.683-.956.546-1.502 1.366-1.502 2.185s.546 1.502 1.366 2.048c.683.41 1.639.683 2.595.683a6.34 6.34 0 002.867-.683c.956-.546 1.503-1.365 1.503-2.185 0-.819-.547-1.502-1.366-2.048-.41-.273-.819-.41-1.229-.41l2.868-15.705 11.744-4.233-1.502 7.238c-.819 0-1.775.273-2.458.683-.956.546-1.502 1.365-1.502 2.185 0 .819.546 1.502 1.365 2.048.683.41 1.639.683 2.595.683a6.342 6.342 0 002.868-.683c.956-.546 1.502-1.366 1.502-2.185.273-.956-.136-1.775-1.092-2.185zm-15.432 14.476c0 .136-.137.41-.546.683-1.093.546-2.732.682-3.688.136-.273-.136-.409-.409-.409-.546 0-.137.136-.41.546-.683.546-.273 1.229-.41 2.048-.41.683 0 1.229.137 1.776.41.136.137.273.273.273.41zm14.476-11.881c-1.093.546-2.732.682-3.688.136-.273-.136-.409-.409-.409-.546 0-.137.136-.41.546-.683.546-.273 1.229-.41 2.048-.41.683 0 1.23.137 1.776.41.273.137.41.41.41.546-.137.137-.274.41-.683.547z" fill="#EDEFF0"/>
  <path d="M109.746 236.018c-1.093 0-2.049-.273-2.732-.683-.956-.546-1.502-1.366-1.502-2.321 0-.956.546-1.776 1.639-2.459a4.722 4.722 0 012.458-.682l3.141-16.798 13.657-5.053.546-2.595-18.163-10.379 1.092-2.048 19.666 11.198-2.732 13.247c.41.137.82.273 1.093.41.956.546 1.502 1.365 1.502 2.321 0 .956-.546 1.776-1.639 2.459-.819.546-1.912.682-3.004.682-1.093 0-2.049-.273-2.731-.682-.956-.547-1.503-1.366-1.503-2.322s.547-1.775 1.639-2.458c.683-.41 1.502-.683 2.322-.683l1.365-6.692-11.061 4.097-2.868 15.296c.409.136.683.273 1.092.409.956.546 1.502 1.366 1.502 2.322s-.546 1.775-1.638 2.458c-.956.683-2.049.956-3.141.956zm3.277-22.533l-3.141 16.934h-.136a4.71 4.71 0 00-2.458.683c-.82.546-1.366 1.229-1.366 1.912 0 .682.41 1.365 1.229 1.775.683.41 1.502.546 2.595.546 1.092 0 2.048-.273 2.731-.683.819-.546 1.366-1.229 1.366-1.912 0-.682-.41-1.365-1.229-1.775-.274-.137-.683-.273-1.093-.41h-.273l3.004-15.978 12.291-4.506-1.639 7.92h-.136c-.956 0-1.776.274-2.322.683-.819.546-1.365 1.229-1.365 2.049 0 .683.409 1.365 1.229 1.775.682.41 1.502.546 2.458.546 1.092 0 2.048-.273 2.731-.683.82-.546 1.366-1.229 1.366-2.048 0-.683-.41-1.366-1.229-1.775-.273-.137-.683-.41-1.229-.41h-.274l2.732-13.383-18.846-10.789-.683 1.092 18.027 10.243-.683 3.141-13.657 5.053zm-3.277 20.758c-.683 0-1.366-.137-1.912-.41-.137-.137-.546-.41-.546-.683 0-.273.273-.546.682-.819.547-.273 1.366-.547 2.185-.547.683 0 1.366.137 1.912.41.137.137.547.41.547.683 0 .273-.274.546-.683.819-.683.273-1.502.547-2.185.547zm14.885-12.564c-.683 0-1.365-.137-1.912-.41-.136-.137-.546-.41-.546-.683 0-.273.273-.546.683-.819.546-.273 1.366-.547 2.185-.547.683 0 1.366.137 1.912.41.136.137.546.41.546.683 0 .273-.273.546-.683.819-.683.41-1.365.547-2.185.547z" fill="#31388B"/>
  <path d="M203.922 35.78l-17.617-3.414-7.101 3.96c-1.502-.683-3.687-.546-5.053.273-.956.547-1.502 1.366-1.502 2.185 0 .82.546 1.502 1.365 2.049.683.41 1.639.683 2.595.683a6.346 6.346 0 002.868-.683c.956-.547 1.502-1.366 1.502-2.185 0-.41-.136-.683-.273-1.093l5.872-3.277 16.661 3.277 5.736 3.278.956-1.639-6.009-3.414zm-25.264 3.55c-1.093.547-2.732.683-3.688.137-.273-.136-.409-.41-.409-.546 0-.137.136-.41.546-.683.546-.273 1.229-.41 2.048-.41.683 0 1.229.137 1.776.41.273.137.409.41.409.546-.136 0-.273.273-.682.547z" fill="#EDEFF0"/>
  <path d="M176.746 40.833c-1.093 0-2.049-.273-2.732-.683-.956-.546-1.502-1.366-1.502-2.322s.546-1.775 1.639-2.458c1.502-.82 3.551-.956 5.189-.41l7.102-3.96h.136l17.617 3.414 6.282 3.55-1.092 2.05-5.873-3.278-16.934-3.141-5.599 3.14c.137.274.273.684.273.957 0 .956-.546 1.775-1.638 2.458-.683.41-1.776.683-2.868.683zm.273-5.6c-.956 0-2.049.274-2.731.683-.82.547-1.366 1.23-1.366 1.912 0 .683.41 1.366 1.229 1.776.683.41 1.502.546 2.458.546 1.093 0 2.049-.273 2.731-.683.82-.546 1.366-1.23 1.366-2.048 0-.274-.136-.683-.273-.956l-.137-.273 6.146-3.551h.136l16.661 3.277 5.463 3.141.683-1.092-5.599-3.005-17.481-3.414-7.101 4.097h-.137c-.546-.273-1.229-.41-2.048-.41zm-.273 3.824c-.683 0-1.366-.136-1.912-.41-.137-.136-.546-.41-.546-.682 0-.273.273-.546.682-.82.547-.273 1.366-.546 2.185-.546.683 0 1.366.137 1.912.41.137.136.547.41.547.683 0 .273-.274.546-.683.82-.683.272-1.502.545-2.185.545z" fill="#16110D"/>
  <path d="M51.02 69.711l-13.794-8.057 4.097-11.472-6.691-3.96c.273-.41.41-.82.41-1.229 0-.82-.547-1.502-1.366-2.049-1.503-.819-3.96-.819-5.6.137-.956.546-1.502 1.366-1.502 2.185 0 .82.546 1.502 1.366 2.049.683.41 1.639.682 2.595.682.819 0 1.775-.136 2.458-.546l6.009 3.55-4.097 11.472 15.705 9.15 19.802-2.321 34.277 20.348.956-1.503L70.821 67.39 51.02 69.71zM28.895 45.95c-.273-.137-.41-.41-.41-.546 0-.137.137-.41.546-.683.547-.273 1.23-.41 2.049-.41a3.78 3.78 0 011.775.41c.273.136.41.41.41.546 0 .137-.137.41-.546.683-1.093.41-2.868.546-3.824 0z" fill="#EDEFF0"/>
  <path d="M104.826 89.103l-.273-.136-34.141-20.348-19.802 2.185-15.842-9.287 4.097-11.471-5.736-3.414c-.683.273-1.638.546-2.458.546-1.092 0-2.048-.273-2.731-.683-.956-.546-1.502-1.365-1.502-2.322 0-.955.546-1.775 1.638-2.458 1.64-.956 4.234-.956 5.736-.136.956.546 1.502 1.365 1.502 2.321 0 .41-.136.683-.273 1.093l6.692 3.96-4.097 11.472 13.52 7.92 19.802-2.321h.136l34.961 20.758-1.229 2.321zm-34.278-21.03l34.141 20.348.683-1.093-34.55-20.621-19.803 2.321-14.066-8.194 4.097-11.471-6.828-3.96.136-.273c.274-.274.274-.683.274-1.093 0-.683-.41-1.366-1.23-1.775-1.502-.82-3.823-.82-5.326.136-.819.546-1.365 1.23-1.365 1.912 0 .683.41 1.366 1.229 1.776.683.41 1.502.546 2.458.546.82 0 1.639-.137 2.321-.546h.137l6.282 3.687-4.097 11.471 15.295 8.877 20.212-2.049zM30.671 45.538c-.683 0-1.366-.136-1.912-.41-.136-.136-.546-.41-.546-.682 0-.274.273-.547.683-.82.546-.273 1.365-.546 2.185-.546.683 0 1.365.137 1.912.41.136.136.546.41.546.682 0 .274-.273.547-.683.82-.683.41-1.502.546-2.185.546z" fill="#31388B"/>
  <path d="M92.945 58.376l-13.657-7.92-10.515 6.008-1.502 7.375-12.838 1.502-9.423-5.462 3.551-10.243-27.313-15.978c.41-.41.546-.956.546-1.502 0-.82-.546-1.502-1.365-2.049-1.502-.819-3.96-.819-5.6.137-.955.546-1.502 1.366-1.502 2.185 0 .82.547 1.502 1.366 2.048.683.41 1.639.683 2.595.683a5.48 5.48 0 002.048-.41l27.04 15.569-3.55 10.242 11.198 6.556 14.749-1.64 1.502-7.92 8.877-5.053 11.471 6.692-3.687 10.788 26.22 15.023.956-1.64-24.855-14.202 3.688-10.789zM15.785 32.84c-.273-.137-.41-.41-.41-.547 0-.136.137-.41.547-.682.41-.137 1.23-.41 1.912-.41.683 0 1.23.137 1.775.41.273.136.41.41.41.546 0 .136-.137.41-.546.683-1.093.546-2.732.546-3.687 0z" fill="#EDEFF0"/>
  <path d="M113.43 84.46L86.663 69.165l3.687-10.789-11.198-6.555-8.604 4.917-1.502 7.92-15.022 1.64-11.472-6.693 3.551-10.242-26.63-15.432c-1.639.547-3.55.41-4.78-.41-.956-.546-1.502-1.365-1.502-2.321 0-.956.546-1.775 1.639-2.458 1.638-.956 4.233-.956 5.735-.137.956.546 1.503 1.366 1.503 2.322 0 .546-.137.956-.41 1.365L48.97 48.134l-3.55 10.242 9.15 5.326 12.563-1.365 1.366-7.375 10.652-6.145 14.066 8.194-3.687 11.061 24.991 14.34-1.092 2.048zM87.346 68.892l25.81 14.885.683-1.092-24.855-14.34 3.688-10.788-13.384-7.784-10.242 5.872-1.502 7.511-13.11 1.502-9.697-5.599 3.551-10.242-27.45-16.115.137-.273c.41-.41.546-.82.546-1.366 0-.682-.41-1.365-1.229-1.775-1.365-.82-3.687-.82-5.19.137-.819.546-1.365 1.229-1.365 2.048 0 .683.41 1.366 1.23 1.775 1.092.683 3.004.82 4.506.274h.136l27.177 15.841-3.55 10.242 10.924 6.419 14.476-1.639 1.502-7.784 9.014-5.19 11.88 6.829-3.686 10.652zM17.424 32.429c-.682 0-1.365-.137-1.912-.41-.136-.136-.546-.41-.546-.682 0-.274.273-.547.683-.82.546-.273 1.366-.546 2.185-.546.683 0 1.366.136 1.912.41.137.136.546.41.546.682 0 .274-.273.547-.683.82-.546.41-1.365.546-2.185.546z" fill="#31388B"/>
  <path d="M48.288 74.355l-18.573-10.79 4.507-12.29-10.652-6.282c.41-.41.546-.956.546-1.502 0-.82-.546-1.502-1.366-2.049-1.502-.82-3.96-.82-5.599.137-.956.546-1.502 1.365-1.502 2.185 0 .82.546 1.502 1.366 2.048.682.41 1.638.683 2.594.683.683 0 1.366-.136 2.049-.273L31.9 52.231l-4.506 12.29 20.62 11.745 21.305-2.458 33.868 19.666.956-1.64-34.414-19.938-21.441 2.459zM18.108 44.31c-.274-.136-.41-.41-.41-.546 0-.137.136-.41.546-.683.546-.273 1.229-.41 2.048-.41.683 0 1.23.137 1.775.41.274.137.41.41.41.546 0 .137-.136.41-.546.683-1.23.546-2.868.546-3.824 0z" fill="#EDEFF0"/>
  <path d="M103.324 92.79L69.319 73.126l-21.44 2.322L27.257 63.43l4.507-12.29-9.97-5.736c-1.638.546-3.55.41-4.78-.41-.955-.546-1.502-1.366-1.502-2.322s.547-1.775 1.64-2.458c1.638-.956 4.233-.956 5.735-.136.956.546 1.502 1.365 1.502 2.321 0 .546-.136.956-.546 1.366l10.652 6.145-4.507 12.29 18.3 10.652 21.44-2.185h.137l34.551 20.075-1.092 2.049zM69.319 72.58l33.732 19.528.682-1.093-34.14-19.802-21.305 2.459-18.71-10.926 4.507-12.29-10.788-6.282.136-.274c.41-.41.547-.819.547-1.365 0-.683-.41-1.366-1.23-1.776-1.502-.819-3.823-.819-5.326.137-.819.546-1.365 1.23-1.365 2.048 0 .683.41 1.366 1.229 1.776 1.092.683 3.004.82 4.506.273h.137l10.516 6.145L27.94 63.43l20.075 11.745 21.304-2.595zM19.746 43.9c-.683 0-1.366-.136-1.912-.41-.136-.136-.546-.409-.546-.682 0-.273.273-.546.683-.82.546-.273 1.365-.546 2.185-.546.683 0 1.365.137 1.912.41.136.137.546.41.546.683 0 .273-.273.546-.683.82-.546.409-1.366.545-2.185.545z" fill="#31388B"/>
  <path d="M100.729 57.557L79.425 45.13l-8.33 4.916-20.622-12.018c.273-.41.41-.82.41-1.229 0-.82-.546-1.502-1.366-2.048-1.502-.82-3.96-.82-5.599.136-.956.547-1.502 1.366-1.502 2.185 0 .82.546 1.502 1.366 2.049.682.41 1.638.683 2.594.683.82 0 1.639-.137 2.458-.547l22.26 12.837 8.33-4.78 18.983 11.062-3.96 10.516 28.132 16.251.956-1.639-26.766-15.431 3.96-10.516zM44.737 37.482c-.273-.137-.41-.41-.41-.546 0-.137.137-.41.547-.683.546-.273 1.23-.41 2.048-.41.683 0 1.23.137 1.776.41.273.136.41.41.41.546 0 .137-.137.41-.547.683-1.092.546-2.868.546-3.824 0z" fill="#EDEFF0"/>
  <path d="M122.716 84.46L94.174 68.073l3.96-10.516-18.71-10.925-8.33 4.78-22.123-12.974c-1.639.683-3.824.546-5.19-.137-.956-.546-1.502-1.365-1.502-2.321 0-.956.546-1.776 1.639-2.458 1.639-.956 4.233-.956 5.736-.137.956.546 1.502 1.366 1.502 2.322 0 .41-.137.819-.273 1.092L71.094 48.68l8.33-4.78 21.578 12.564-3.96 10.516 26.903 15.432-1.229 2.048zM94.856 67.8l27.723 15.977.683-1.092-26.766-15.569 3.823-10.515-20.894-12.154-8.33 4.916L50.2 37.073l.136-.274c.274-.41.41-.683.41-1.092 0-.683-.41-1.366-1.229-1.776-1.502-.82-3.824-.82-5.326.137-.82.546-1.366 1.229-1.366 2.048 0 .683.41 1.366 1.23 1.776 1.229.682 3.277.819 4.916.136h.137l21.986 12.837 8.33-4.78 19.393 11.199-3.96 10.515zM46.514 37.071c-.683 0-1.366-.136-1.912-.41-.137-.136-.546-.41-.546-.682 0-.273.273-.547.682-.82.547-.273 1.366-.546 2.185-.546.683 0 1.366.137 1.912.41.137.136.547.41.547.683 0 .273-.273.546-.683.819-.683.41-1.502.546-2.185.546z" fill="#31388B"/>
  <path d="M105.236 64.522l2.458-8.877-28.679-16.66-9.013 5.325-6.555-3.824-.137-5.053-3.14-1.775c.409-.41.682-.956.682-1.502 0-.82-.546-1.502-1.366-2.049-1.502-.819-3.96-.819-5.599.137-.956.546-1.502 1.366-1.502 2.185 0 .82.546 1.502 1.366 2.048.683.41 1.638.683 2.594.683.683 0 1.366-.136 1.912-.273l3.141 1.776.137 5.052 8.33 4.917 9.014-5.326 26.493 15.431-2.185 8.604 22.943 13.384.956-1.503-21.85-12.7zm-50.53-31.683c-.273-.137-.41-.41-.41-.547 0-.136.138-.41.547-.682.546-.273 1.23-.41 2.049-.41a3.78 3.78 0 011.775.41c.273.136.41.41.41.546 0 .136-.137.41-.547.683-1.092.546-2.867.546-3.823 0z" fill="#EDEFF0"/>
  <path d="M126.13 78.042l-23.353-13.657 2.459-8.877L79.152 40.35l-9.014 5.326-8.603-4.916-.137-5.053-3.004-1.776c-1.639.547-3.55.273-4.643-.41-.956-.546-1.503-1.365-1.503-2.321 0-.956.547-1.775 1.64-2.458 1.638-.956 4.233-.956 5.735-.137.956.546 1.502 1.366 1.502 2.322 0 .546-.136.956-.546 1.502l3.004 1.775.137 5.053 6.282 3.688 9.013-5.327 28.952 16.798-2.458 8.877 21.714 12.7-1.093 2.049zm-22.67-13.793l22.533 13.11.683-1.093-21.714-12.564 2.459-8.876L79.015 38.3l-9.013 5.326-6.828-3.96-.137-5.053-3.278-1.912.274-.273c.41-.41.546-.82.546-1.366 0-.682-.41-1.365-1.23-1.775-1.502-.82-3.823-.82-5.325.137-.82.546-1.366 1.229-1.366 1.912 0 .682.41 1.365 1.23 1.775 1.092.683 2.867.82 4.37.273h.136l3.414 1.912.136 5.053 8.058 4.643 9.013-5.326 26.903 15.568-2.458 9.014zm-46.978-31.82c-.683 0-1.366-.137-1.912-.41-.137-.136-.546-.41-.546-.682 0-.274.273-.547.682-.82.547-.273 1.366-.546 2.186-.546.682 0 1.365.136 1.911.41.137.136.547.41.547.682 0 .274-.273.547-.683.82-.683.41-1.502.546-2.185.546z" fill="#31388B"/>
  <path d="M206.975 170.788l-15.842-9.287-12.564.274-7.784 4.506.956 1.639 7.375-4.233 11.608-.274 12.7 7.511-10.106 6.009-.136-.136c-1.502-.82-3.961-.82-5.599.136-.956.547-1.503 1.366-1.503 2.185 0 .82.547 1.503 1.366 2.049.683.41 1.639.683 2.595.683a6.348 6.348 0 002.868-.683c.956-.546 1.502-1.366 1.502-2.185 0-.137 0-.273-.137-.546l12.701-7.648zm-14.886 8.603c-1.092.547-2.731.683-3.687.137-.273-.137-.41-.41-.41-.546 0-.137.137-.41.547-.683.546-.273 1.229-.41 2.048-.41a3.78 3.78 0 011.775.41c.274.137.41.41.41.546 0 0-.273.273-.683.546z" fill="#EDEFF0"/>
  <path d="M190.178 180.894c-1.093 0-2.049-.273-2.732-.683-.956-.546-1.502-1.366-1.502-2.322s.546-1.775 1.639-2.458c1.639-.956 4.233-.956 5.736-.136l9.559-5.736-12.291-7.238-11.471.273-7.511 4.37-1.093-2.048 8.058-4.643 12.563-.274 16.252 9.56-12.837 7.511v.41c0 .956-.547 1.775-1.639 2.458-.546.683-1.639.956-2.731.956zm.273-5.599c-.956 0-2.049.273-2.732.683-.819.546-1.365 1.229-1.365 1.911 0 .683.409 1.366 1.229 1.776.683.409 1.502.546 2.595.546 1.092 0 2.048-.273 2.731-.683.819-.546 1.365-1.229 1.365-2.048v-.547l12.428-7.237-15.432-9.15-12.427.273-7.511 4.37.682 1.092 7.238-4.097 11.608-.273 13.111 7.785-10.652 6.282-.137-.137s-.137 0-.137-.137c-.682-.273-1.638-.409-2.594-.409zm-.273 3.823c-.683 0-1.366-.136-1.912-.409-.137-.137-.547-.41-.547-.683 0-.273.273-.546.683-.819.546-.274 1.366-.547 2.185-.547.683 0 1.366.137 1.912.41.137.137.546.41.546.683 0 .273-.273.546-.682.819-.683.273-1.503.546-2.185.546z" fill="#31388B"/>
  <path d="M199.806 32.41L13.481 139.379l87.127 50.094.658 5.468 10.096 7.875s4.828 2.625 10.973-1.093L308.88 94.973 199.806 32.41z" fill="#EDEFF0"/>
  <g filter="url(#Technology_Illustration__filter0_f)">
    <path d="M199.806 38.972L9.53 147.91c-1.097.656-1.097 1.969 0 2.625l101.832 58.844s4.828 2.625 10.973-1.094l186.545-106.75-109.074-62.563z" fill="#EDEFF0"/>
  </g>
  <path d="M100.608 189.254l.658 5.469 10.096 8.093s4.828 2.625 10.973-1.094L302.954 98.035 199.806 38.754 19.186 142.44l81.422 46.813z" fill="#EDEFF0"/>
  <g filter="url(#Technology_Illustration__filter1_d)">
    <path fill-rule="evenodd" clip-rule="evenodd" d="M99.95 189.691l-88.225-50.312L199.806 31.535l.439.219L310.416 95.19 121.774 202.816l-21.825-13.125zm206.954-94.719L121.676 201.066l-20.19-12.031-86.25-49.656 184.57-106.094 107.098 61.688z" fill="#31388B"/>
  </g>
  <g filter="url(#Technology_Illustration__filter2_d)">
    <path d="M149.758 73.75c6.151 4.542 67 42.501 67 42.501C224.19 111.813 267.512 86 267.512 86c-6.705-4.563-61.103-35.208-67.254-39.75l-50.5 27.5z" fill="#fff" stroke="#C6CACC" stroke-width=".5" stroke-miterlimit="10"/>
    <path d="M150.075 73.603c91.726-16.077 46.141 29.776 73.437 38.397l-73.437-38.397z" fill="#C8193C" fill-opacity=".8"/>
    <path d="M150.075 73.603c91.726-16.077 46.141 29.776 73.437 38.397l-6.751 4.247-66.686-42.644z" fill="#C8193C" fill-opacity=".8"/>
    <path d="M150.075 73.603c91.726-16.077 46.141 29.776 73.437 38.397l-73.437-38.397z" stroke="#C8193C" stroke-width=".25" stroke-miterlimit="10"/>
    <path d="M150.075 73.603c91.726-16.077 46.141 29.776 73.437 38.397l-6.751 4.247-66.686-42.644z" stroke="#C8193C" stroke-width=".25" stroke-miterlimit="10"/>
    <path d="M179.134 57.725c28.578 8.353 1.017 41.72 48 52.001l-10.373 6.521L150.012 73.5l29.122-15.775z" fill="#31388B" fill-opacity=".8" stroke="#31388B" stroke-width=".25" stroke-miterlimit="10"/>
  </g>
  <g filter="url(#Technology_Illustration__filter3_d)">
    <rect width="42.831" height="4.88" rx="2.169" transform="matrix(.86603 .5 -.86603 .5 123.144 90.344)" fill="#fff"/>
    <rect y=".5" width="41.831" height="3.88" rx="1.669" transform="matrix(.86603 .5 -.86603 .5 123.577 90.594)" stroke="#4F347D"/>
  </g>
  <g filter="url(#Technology_Illustration__filter4_d)">
    <rect width="19.247" height="4.88" rx="2.169" transform="matrix(.86603 .5 -.86603 .5 100.607 103.356)" fill="#fff"/>
    <rect y=".5" width="18.247" height="3.88" rx="1.669" transform="matrix(.86603 .5 -.86603 .5 101.04 103.606)" stroke="#4F347D"/>
  </g>
  <g filter="url(#Technology_Illustration__filter5_d)">
    <rect width="54.488" height="4.88" rx="2.169" transform="matrix(.86603 .5 -.86603 .5 132.065 121.519)" fill="#fff"/>
    <rect y=".5" width="53.488" height="3.88" rx="1.669" transform="matrix(.86603 .5 -.86603 .5 132.499 121.769)" stroke="#4F347D"/>
  </g>
  <g filter="url(#Technology_Illustration__filter6_d)">
    <rect width="28.735" height="4.88" rx="2.169" transform="matrix(.86603 .5 -.86603 .5 131.831 147.407)" fill="#fff"/>
    <rect y=".5" width="27.735" height="3.88" rx="1.669" transform="matrix(.86603 .5 -.86603 .5 132.264 147.657)" stroke="#4F347D"/>
  </g>
  <g filter="url(#Technology_Illustration__filter7_d)">
    <rect width="36.325" height="4.88" rx="2.169" transform="matrix(.86603 .5 -.86603 .5 78.07 116.368)" fill="#fff"/>
    <rect y=".5" width="35.325" height="3.88" rx="1.669" transform="matrix(.86603 .5 -.86603 .5 78.502 116.618)" stroke="#4F347D"/>
  </g>
  <g filter="url(#Technology_Illustration__filter8_d)">
    <rect width="90.814" height="4.88" rx="2.169" transform="matrix(.86603 .5 -.86603 .5 115.632 94.681)" fill="#fff"/>
    <rect y=".5" width="89.814" height="3.88" rx="1.669" transform="matrix(.86603 .5 -.86603 .5 116.065 94.931)" stroke="#4F347D"/>
  </g>
  <g filter="url(#Technology_Illustration__filter9_d)">
    <rect width="90.814" height="4.88" rx="2.169" transform="matrix(.86603 .5 -.86603 .5 134.657 81.007)" fill="#C8193C"/>
    <rect y=".5" width="89.814" height="3.88" rx="1.669" transform="matrix(.86603 .5 -.86603 .5 135.09 81.257)" stroke="#4F347D"/>
  </g>
  <g filter="url(#Technology_Illustration__filter10_d)">
    <rect width="90.814" height="4.88" rx="2.169" transform="matrix(.86603 .5 -.86603 .5 93.094 107.693)" fill="#fff"/>
    <rect y=".5" width="89.814" height="3.88" rx="1.669" transform="matrix(.86603 .5 -.86603 .5 93.527 107.943)" stroke="#4F347D"/>
  </g>
  <g filter="url(#Technology_Illustration__filter11_d)">
    <rect width="90.814" height="4.88" rx="2.169" transform="matrix(.86603 .5 -.86603 .5 85.582 112.031)" fill="#fff"/>
    <rect y=".5" width="89.814" height="3.88" rx="1.669" transform="matrix(.86603 .5 -.86603 .5 86.015 112.281)" stroke="#4F347D"/>
  </g>
  <g filter="url(#Technology_Illustration__filter12_d)">
    <rect width="90.814" height="4.88" rx="2.169" transform="matrix(.86603 .5 -.86603 .5 63.044 125.043)" fill="#fff"/>
    <rect y=".5" width="89.814" height="3.88" rx="1.669" transform="matrix(.86603 .5 -.86603 .5 63.477 125.293)" stroke="#4F347D"/>
  </g>
  <g filter="url(#Technology_Illustration__filter13_d)">
    <rect width="90.814" height="4.88" rx="2.169" transform="matrix(.86603 .5 -.86603 .5 70.557 120.706)" fill="#fff"/>
    <rect y=".5" width="89.814" height="3.88" rx="1.669" transform="matrix(.86603 .5 -.86603 .5 70.99 120.956)" stroke="#4F347D"/>
  </g>
  <g filter="url(#Technology_Illustration__filter14_d)">
    <rect width="90.814" height="4.88" rx="2.169" transform="matrix(.86603 .5 -.86603 .5 108.119 99.019)" fill="#fff"/>
    <rect y=".5" width="89.814" height="3.88" rx="1.669" transform="matrix(.86603 .5 -.86603 .5 108.552 99.269)" stroke="#4F347D"/>
  </g>
  <g filter="url(#Technology_Illustration__filter15_d)">
    <rect width="21.145" height="4.88" rx="2.169" transform="matrix(.86603 .5 -.86603 .5 183.479 125.179)" fill="#fff"/>
    <rect y=".5" width="20.145" height="3.88" rx="1.669" transform="matrix(.86603 .5 -.86603 .5 183.912 125.429)" stroke="#4F347D"/>
  </g>
  <g filter="url(#Technology_Illustration__filter16_d)">
    <rect width="20.874" height="4.88" rx="2.169" transform="matrix(.86603 .5 -.86603 .5 162.585 113.115)" fill="#C8193C"/>
    <rect y=".5" width="19.874" height="3.88" rx="1.669" transform="matrix(.86603 .5 -.86603 .5 163.018 113.365)" stroke="#4F347D"/>
  </g>
  <g filter="url(#Technology_Illustration__filter17_d)">
    <rect width="8.946" height="4.88" rx="2.169" transform="matrix(.86603 .5 -.86603 .5 120.797 115.013)" fill="#C8193C"/>
    <rect y=".5" width="7.946" height="3.88" rx="1.669" transform="matrix(.86603 .5 -.86603 .5 121.23 115.263)" stroke="#4F347D"/>
  </g>
  <g filter="url(#Technology_Illustration__filter18_d)">
    <rect width="20.874" height="4.88" rx="2.169" transform="matrix(.86603 .5 -.86603 .5 112.345 136.157)" fill="#C8193C"/>
    <rect y=".5" width="19.874" height="3.88" rx="1.669" transform="matrix(.86603 .5 -.86603 .5 112.778 136.407)" stroke="#4F347D"/>
  </g>
  <defs>
    <filter id="Technology_Illustration__filter0_f" x="4.707" y="34.972" width="308.172" height="179.306" filterUnits="userSpaceOnUse" color-interpolation-filters="sRGB">
      <feFlood flood-opacity="0" result="BackgroundImageFix"/>
      <feBlend in="SourceGraphic" in2="BackgroundImageFix" result="shape"/>
      <feGaussianBlur stdDeviation="2" result="effect1_foregroundBlur"/>
    </filter>
    <filter id="Technology_Illustration__filter1_d" x="7.725" y="31.535" width="306.691" height="179.281" filterUnits="userSpaceOnUse" color-interpolation-filters="sRGB">
      <feFlood flood-opacity="0" result="BackgroundImageFix"/>
      <feColorMatrix in="SourceAlpha" values="0 0 0 0 0 0 0 0 0 0 0 0 0 0 0 0 0 0 127 0"/>
      <feOffset dy="4"/>
      <feGaussianBlur stdDeviation="2"/>
      <feColorMatrix values="0 0 0 0 0 0 0 0 0 0 0 0 0 0 0 0 0 0 0.25 0"/>
      <feBlend in2="BackgroundImageFix" result="effect1_dropShadow"/>
      <feBlend in="SourceGraphic" in2="effect1_dropShadow" result="shape"/>
    </filter>
    <filter id="Technology_Illustration__filter2_d" x="145.326" y="45.985" width="126.615" height="89.531" filterUnits="userSpaceOnUse" color-interpolation-filters="sRGB">
      <feFlood flood-opacity="0" result="BackgroundImageFix"/>
      <feColorMatrix in="SourceAlpha" values="0 0 0 0 0 0 0 0 0 0 0 0 0 0 0 0 0 0 127 0"/>
      <feOffset dy="15"/>
      <feGaussianBlur stdDeviation="2"/>
      <feColorMatrix values="0 0 0 0 0 0 0 0 0 0 0 0 0 0 0 0 0 0 0.1 0"/>
      <feBlend in2="BackgroundImageFix" result="effect1_dropShadow"/>
      <feBlend in="SourceGraphic" in2="effect1_dropShadow" result="shape"/>
    </filter>
    <filter id="Technology_Illustration__filter3_d" x="116.019" y="90.979" width="47.119" height="41.585" filterUnits="userSpaceOnUse" color-interpolation-filters="sRGB">
      <feFlood flood-opacity="0" result="BackgroundImageFix"/>
      <feColorMatrix in="SourceAlpha" values="0 0 0 0 0 0 0 0 0 0 0 0 0 0 0 0 0 0 127 0"/>
      <feOffset dy="15"/>
      <feGaussianBlur stdDeviation="2"/>
      <feColorMatrix values="0 0 0 0 0 0 0 0 0 0 0 0 0 0 0 0 0 0 0.1 0"/>
      <feBlend in2="BackgroundImageFix" result="effect1_dropShadow"/>
      <feBlend in="SourceGraphic" in2="effect1_dropShadow" result="shape"/>
    </filter>
    <filter id="Technology_Illustration__filter4_d" x="93.481" y="103.991" width="26.694" height="29.793" filterUnits="userSpaceOnUse" color-interpolation-filters="sRGB">
      <feFlood flood-opacity="0" result="BackgroundImageFix"/>
      <feColorMatrix in="SourceAlpha" values="0 0 0 0 0 0 0 0 0 0 0 0 0 0 0 0 0 0 127 0"/>
      <feOffset dy="15"/>
      <feGaussianBlur stdDeviation="2"/>
      <feColorMatrix values="0 0 0 0 0 0 0 0 0 0 0 0 0 0 0 0 0 0 0.1 0"/>
      <feBlend in2="BackgroundImageFix" result="effect1_dropShadow"/>
      <feBlend in="SourceGraphic" in2="effect1_dropShadow" result="shape"/>
    </filter>
    <filter id="Technology_Illustration__filter5_d" x="124.94" y="122.154" width="57.214" height="47.413" filterUnits="userSpaceOnUse" color-interpolation-filters="sRGB">
      <feFlood flood-opacity="0" result="BackgroundImageFix"/>
      <feColorMatrix in="SourceAlpha" values="0 0 0 0 0 0 0 0 0 0 0 0 0 0 0 0 0 0 127 0"/>
      <feOffset dy="15"/>
      <feGaussianBlur stdDeviation="2"/>
      <feColorMatrix values="0 0 0 0 0 0 0 0 0 0 0 0 0 0 0 0 0 0 0.1 0"/>
      <feBlend in2="BackgroundImageFix" result="effect1_dropShadow"/>
      <feBlend in="SourceGraphic" in2="effect1_dropShadow" result="shape"/>
    </filter>
    <filter id="Technology_Illustration__filter6_d" x="124.705" y="148.043" width="34.911" height="34.537" filterUnits="userSpaceOnUse" color-interpolation-filters="sRGB">
      <feFlood flood-opacity="0" result="BackgroundImageFix"/>
      <feColorMatrix in="SourceAlpha" values="0 0 0 0 0 0 0 0 0 0 0 0 0 0 0 0 0 0 127 0"/>
      <feOffset dy="15"/>
      <feGaussianBlur stdDeviation="2"/>
      <feColorMatrix values="0 0 0 0 0 0 0 0 0 0 0 0 0 0 0 0 0 0 0.1 0"/>
      <feBlend in2="BackgroundImageFix" result="effect1_dropShadow"/>
      <feBlend in="SourceGraphic" in2="effect1_dropShadow" result="shape"/>
    </filter>
    <filter id="Technology_Illustration__filter7_d" x="70.944" y="117.003" width="41.484" height="38.332" filterUnits="userSpaceOnUse" color-interpolation-filters="sRGB">
      <feFlood flood-opacity="0" result="BackgroundImageFix"/>
      <feColorMatrix in="SourceAlpha" values="0 0 0 0 0 0 0 0 0 0 0 0 0 0 0 0 0 0 127 0"/>
      <feOffset dy="15"/>
      <feGaussianBlur stdDeviation="2"/>
      <feColorMatrix values="0 0 0 0 0 0 0 0 0 0 0 0 0 0 0 0 0 0 0.1 0"/>
      <feBlend in2="BackgroundImageFix" result="effect1_dropShadow"/>
      <feBlend in="SourceGraphic" in2="effect1_dropShadow" result="shape"/>
    </filter>
    <filter id="Technology_Illustration__filter8_d" x="108.506" y="95.317" width="88.672" height="65.576" filterUnits="userSpaceOnUse" color-interpolation-filters="sRGB">
      <feFlood flood-opacity="0" result="BackgroundImageFix"/>
      <feColorMatrix in="SourceAlpha" values="0 0 0 0 0 0 0 0 0 0 0 0 0 0 0 0 0 0 127 0"/>
      <feOffset dy="15"/>
      <feGaussianBlur stdDeviation="2"/>
      <feColorMatrix values="0 0 0 0 0 0 0 0 0 0 0 0 0 0 0 0 0 0 0.1 0"/>
      <feBlend in2="BackgroundImageFix" result="effect1_dropShadow"/>
      <feBlend in="SourceGraphic" in2="effect1_dropShadow" result="shape"/>
    </filter>
    <filter id="Technology_Illustration__filter9_d" x="127.532" y="81.642" width="88.672" height="65.576" filterUnits="userSpaceOnUse" color-interpolation-filters="sRGB">
      <feFlood flood-opacity="0" result="BackgroundImageFix"/>
      <feColorMatrix in="SourceAlpha" values="0 0 0 0 0 0 0 0 0 0 0 0 0 0 0 0 0 0 127 0"/>
      <feOffset dy="15"/>
      <feGaussianBlur stdDeviation="2"/>
      <feColorMatrix values="0 0 0 0 0 0 0 0 0 0 0 0 0 0 0 0 0 0 0.1 0"/>
      <feBlend in2="BackgroundImageFix" result="effect1_dropShadow"/>
      <feBlend in="SourceGraphic" in2="effect1_dropShadow" result="shape"/>
    </filter>
    <filter id="Technology_Illustration__filter10_d" x="85.969" y="108.329" width="88.672" height="65.576" filterUnits="userSpaceOnUse" color-interpolation-filters="sRGB">
      <feFlood flood-opacity="0" result="BackgroundImageFix"/>
      <feColorMatrix in="SourceAlpha" values="0 0 0 0 0 0 0 0 0 0 0 0 0 0 0 0 0 0 127 0"/>
      <feOffset dy="15"/>
      <feGaussianBlur stdDeviation="2"/>
      <feColorMatrix values="0 0 0 0 0 0 0 0 0 0 0 0 0 0 0 0 0 0 0.1 0"/>
      <feBlend in2="BackgroundImageFix" result="effect1_dropShadow"/>
      <feBlend in="SourceGraphic" in2="effect1_dropShadow" result="shape"/>
    </filter>
    <filter id="Technology_Illustration__filter11_d" x="78.456" y="112.666" width="88.672" height="65.576" filterUnits="userSpaceOnUse" color-interpolation-filters="sRGB">
      <feFlood flood-opacity="0" result="BackgroundImageFix"/>
      <feColorMatrix in="SourceAlpha" values="0 0 0 0 0 0 0 0 0 0 0 0 0 0 0 0 0 0 127 0"/>
      <feOffset dy="15"/>
      <feGaussianBlur stdDeviation="2"/>
      <feColorMatrix values="0 0 0 0 0 0 0 0 0 0 0 0 0 0 0 0 0 0 0.1 0"/>
      <feBlend in2="BackgroundImageFix" result="effect1_dropShadow"/>
      <feBlend in="SourceGraphic" in2="effect1_dropShadow" result="shape"/>
    </filter>
    <filter id="Technology_Illustration__filter12_d" x="55.919" y="125.678" width="88.672" height="65.576" filterUnits="userSpaceOnUse" color-interpolation-filters="sRGB">
      <feFlood flood-opacity="0" result="BackgroundImageFix"/>
      <feColorMatrix in="SourceAlpha" values="0 0 0 0 0 0 0 0 0 0 0 0 0 0 0 0 0 0 127 0"/>
      <feOffset dy="15"/>
      <feGaussianBlur stdDeviation="2"/>
      <feColorMatrix values="0 0 0 0 0 0 0 0 0 0 0 0 0 0 0 0 0 0 0.1 0"/>
      <feBlend in2="BackgroundImageFix" result="effect1_dropShadow"/>
      <feBlend in="SourceGraphic" in2="effect1_dropShadow" result="shape"/>
    </filter>
    <filter id="Technology_Illustration__filter13_d" x="63.431" y="121.341" width="88.672" height="65.576" filterUnits="userSpaceOnUse" color-interpolation-filters="sRGB">
      <feFlood flood-opacity="0" result="BackgroundImageFix"/>
      <feColorMatrix in="SourceAlpha" values="0 0 0 0 0 0 0 0 0 0 0 0 0 0 0 0 0 0 127 0"/>
      <feOffset dy="15"/>
      <feGaussianBlur stdDeviation="2"/>
      <feColorMatrix values="0 0 0 0 0 0 0 0 0 0 0 0 0 0 0 0 0 0 0.1 0"/>
      <feBlend in2="BackgroundImageFix" result="effect1_dropShadow"/>
      <feBlend in="SourceGraphic" in2="effect1_dropShadow" result="shape"/>
    </filter>
    <filter id="Technology_Illustration__filter14_d" x="100.994" y="99.654" width="88.672" height="65.576" filterUnits="userSpaceOnUse" color-interpolation-filters="sRGB">
      <feFlood flood-opacity="0" result="BackgroundImageFix"/>
      <feColorMatrix in="SourceAlpha" values="0 0 0 0 0 0 0 0 0 0 0 0 0 0 0 0 0 0 127 0"/>
      <feOffset dy="15"/>
      <feGaussianBlur stdDeviation="2"/>
      <feColorMatrix values="0 0 0 0 0 0 0 0 0 0 0 0 0 0 0 0 0 0 0.1 0"/>
      <feBlend in2="BackgroundImageFix" result="effect1_dropShadow"/>
      <feBlend in="SourceGraphic" in2="effect1_dropShadow" result="shape"/>
    </filter>
    <filter id="Technology_Illustration__filter15_d" x="176.354" y="125.814" width="28.337" height="30.742" filterUnits="userSpaceOnUse" color-interpolation-filters="sRGB">
      <feFlood flood-opacity="0" result="BackgroundImageFix"/>
      <feColorMatrix in="SourceAlpha" values="0 0 0 0 0 0 0 0 0 0 0 0 0 0 0 0 0 0 127 0"/>
      <feOffset dy="15"/>
      <feGaussianBlur stdDeviation="2"/>
      <feColorMatrix values="0 0 0 0 0 0 0 0 0 0 0 0 0 0 0 0 0 0 0.1 0"/>
      <feBlend in2="BackgroundImageFix" result="effect1_dropShadow"/>
      <feBlend in="SourceGraphic" in2="effect1_dropShadow" result="shape"/>
    </filter>
    <filter id="Technology_Illustration__filter16_d" x="155.46" y="113.75" width="28.102" height="30.606" filterUnits="userSpaceOnUse" color-interpolation-filters="sRGB">
      <feFlood flood-opacity="0" result="BackgroundImageFix"/>
      <feColorMatrix in="SourceAlpha" values="0 0 0 0 0 0 0 0 0 0 0 0 0 0 0 0 0 0 127 0"/>
      <feOffset dy="15"/>
      <feGaussianBlur stdDeviation="2"/>
      <feColorMatrix values="0 0 0 0 0 0 0 0 0 0 0 0 0 0 0 0 0 0 0.1 0"/>
      <feBlend in2="BackgroundImageFix" result="effect1_dropShadow"/>
      <feBlend in="SourceGraphic" in2="effect1_dropShadow" result="shape"/>
    </filter>
    <filter id="Technology_Illustration__filter17_d" x="113.671" y="115.648" width="17.773" height="24.642" filterUnits="userSpaceOnUse" color-interpolation-filters="sRGB">
      <feFlood flood-opacity="0" result="BackgroundImageFix"/>
      <feColorMatrix in="SourceAlpha" values="0 0 0 0 0 0 0 0 0 0 0 0 0 0 0 0 0 0 127 0"/>
      <feOffset dy="15"/>
      <feGaussianBlur stdDeviation="2"/>
      <feColorMatrix values="0 0 0 0 0 0 0 0 0 0 0 0 0 0 0 0 0 0 0.1 0"/>
      <feBlend in2="BackgroundImageFix" result="effect1_dropShadow"/>
      <feBlend in="SourceGraphic" in2="effect1_dropShadow" result="shape"/>
    </filter>
    <filter id="Technology_Illustration__filter18_d" x="105.219" y="136.793" width="28.102" height="30.606" filterUnits="userSpaceOnUse" color-interpolation-filters="sRGB">
      <feFlood flood-opacity="0" result="BackgroundImageFix"/>
      <feColorMatrix in="SourceAlpha" values="0 0 0 0 0 0 0 0 0 0 0 0 0 0 0 0 0 0 127 0"/>
      <feOffset dy="15"/>
      <feGaussianBlur stdDeviation="2"/>
      <feColorMatrix values="0 0 0 0 0 0 0 0 0 0 0 0 0 0 0 0 0 0 0.1 0"/>
      <feBlend in2="BackgroundImageFix" result="effect1_dropShadow"/>
      <feBlend in="SourceGraphic" in2="effect1_dropShadow" result="shape"/>
    </filter>
  </defs>
</svg>
