<svg width="328" height="453" viewBox="0 0 328 453" fill="none" xmlns="http://www.w3.org/2000/svg">
<path d="M7.01251 309.561C7.19412 309.379 7.19409 309.379 7.3757 309.197L98.5319 256.294C104.343 253.385 111.061 253.567 116.69 256.839L321.701 375.19C322.064 375.372 322.427 375.554 322.609 375.917C329.691 381.371 328.601 392.824 320.612 397.551H320.43L320.248 397.733L229.092 450.636C223.463 453.545 216.744 453.182 211.297 450.091L7.01251 332.104C6.64935 331.922 6.28619 331.558 5.92303 331.377C-1.88516 326.105 -1.34042 314.288 7.01251 309.561Z" fill="white"/>
<path d="M6.6496 309.016L6.83121 309.38L6.6496 309.016C6.83118 308.834 6.83118 308.834 7.01276 308.834L98.1689 255.749C104.161 252.84 111.062 253.022 116.691 256.294L321.883 374.645C322.246 375.009 322.609 375.191 322.972 375.554C326.241 378.099 328.057 382.281 327.875 386.644C327.512 391.371 324.97 395.552 320.975 397.733L320.793 397.915C320.793 397.915 320.612 397.915 320.612 398.097L229.456 451C226.732 452.273 223.826 453 220.921 453C217.653 453 214.202 452.091 211.297 450.455L7.01276 332.468C6.6496 332.286 6.28644 331.923 5.92328 331.741C2.10995 329.196 0.112488 325.014 0.112488 320.469C0.112488 315.742 2.65472 311.379 6.6496 309.016ZM322.246 376.281C321.883 375.918 321.701 375.736 321.338 375.554L116.328 257.203C113.422 255.567 110.154 254.658 107.067 254.658C105.432 254.658 103.617 254.84 101.982 255.385C105.796 254.84 109.609 255.385 111.606 257.022L212.75 425.73C212.75 425.73 210.026 437.366 212.205 442.819C214.384 448.273 219.832 449.182 220.013 449.364C223.1 449.546 226.369 448.819 229.274 447.364L320.43 394.643C320.612 394.643 320.612 394.461 320.612 394.461H320.793C323.88 392.643 325.878 389.916 326.786 386.826C326.786 386.826 326.786 386.826 326.786 386.644C327.149 382.462 325.515 378.645 322.246 376.281Z" fill="#C8193C"/>
<path d="M6.6496 309.016L6.83121 309.38L6.6496 309.016C6.83118 308.834 6.83118 308.834 7.01276 308.834L98.1689 255.749C104.161 252.84 111.062 253.022 116.691 256.294L321.883 374.645C322.246 375.009 322.609 375.191 322.972 375.554C326.241 378.099 328.057 382.281 327.875 386.644C327.512 391.371 324.97 395.552 320.975 397.733L320.793 397.915C320.793 397.915 320.612 397.915 320.612 398.097L229.456 451C226.732 452.273 223.826 453 220.921 453C217.653 453 214.202 452.091 211.297 450.455L7.01276 332.468C6.6496 332.286 6.28644 331.923 5.92328 331.741C2.10995 329.196 0.112488 325.014 0.112488 320.469C0.112488 315.742 2.65472 311.379 6.6496 309.016ZM322.246 376.281C321.883 375.918 321.701 375.736 321.338 375.554L116.328 257.203C113.422 255.567 110.154 254.658 107.067 254.658C105.432 254.658 103.617 254.84 101.982 255.385C105.796 254.84 109.609 255.385 111.606 257.022L212.75 425.73C212.75 425.73 210.026 437.366 212.205 442.819C214.384 448.273 219.832 449.182 220.013 449.364C223.1 449.546 226.369 448.819 229.274 447.364L320.43 394.643C320.612 394.643 320.612 394.461 320.612 394.461H320.793C323.88 392.643 325.878 389.916 326.786 386.826C326.786 386.826 326.786 386.826 326.786 386.644C327.149 382.462 325.515 378.645 322.246 376.281Z" fill="white" fill-opacity="0.32" style="mix-blend-mode:overlay"/>
<path d="M321.883 376.826L115.964 258.112C110.335 254.839 103.617 254.658 97.8059 257.566L6.64972 310.47C1.9285 313.924 1.02057 320.832 6.28656 323.741L211.297 442.274C216.745 445.546 223.463 445.728 229.093 442.819L320.249 389.916C326.786 385.916 326.423 379.917 321.883 376.826Z" fill="#EDEFF0"/>
<path d="M321.883 376.826L115.964 258.112C110.335 254.839 103.617 254.658 97.8059 257.566L6.64972 310.47C1.9285 313.924 1.02057 320.832 6.28656 323.741L211.297 442.274C216.745 445.546 223.463 445.728 229.093 442.819L320.249 389.916C326.786 385.916 326.423 379.917 321.883 376.826Z" stroke="#31388B" stroke-width="0.648028" stroke-miterlimit="10"/>
<path d="M321.883 376.826L115.964 258.112C110.335 254.839 103.617 254.658 97.8059 257.566L6.64972 310.47C1.9285 313.924 1.02057 320.832 6.28656 323.741L211.297 442.274C216.745 445.546 223.463 445.728 229.093 442.819L320.249 389.916C326.786 385.916 326.423 379.917 321.883 376.826Z" stroke="white" stroke-opacity="0.32" stroke-width="0.648028" stroke-miterlimit="10" style="mix-blend-mode:overlay"/>
<path d="M220.558 443.365C223.463 443.365 226.369 442.637 229.092 441.365L320.249 388.461C323.517 386.462 325.333 383.917 325.333 381.19C325.333 378.826 324.062 376.463 321.701 374.827L116.691 256.658C111.061 253.385 104.161 253.204 98.3504 256.112L7.19421 309.016C4.47043 311.015 3.01773 314.106 3.19931 317.015C3.38092 319.56 4.65201 321.56 6.83105 322.832L210.934 440.819C214.021 442.456 217.289 443.365 220.558 443.365ZM321.52 375.372C323.699 376.826 324.97 379.008 324.788 381.19C324.788 383.735 322.972 386.28 319.885 388.098L228.729 441.001C223.1 443.728 216.563 443.546 211.115 440.456L6.83105 322.469C4.83359 321.196 3.56247 319.378 3.38089 317.015C3.19931 314.288 4.65201 311.379 7.19421 309.561L98.532 256.476C104.161 253.567 110.88 253.749 116.327 257.021L321.52 375.372Z" fill="#31388B"/>
<path d="M220.558 443.365C223.463 443.365 226.369 442.637 229.092 441.365L320.249 388.461C323.517 386.462 325.333 383.917 325.333 381.19C325.333 378.826 324.062 376.463 321.701 374.827L116.691 256.658C111.061 253.385 104.161 253.204 98.3504 256.112L7.19421 309.016C4.47043 311.015 3.01773 314.106 3.19931 317.015C3.38092 319.56 4.65201 321.56 6.83105 322.832L210.934 440.819C214.021 442.456 217.289 443.365 220.558 443.365ZM321.52 375.372C323.699 376.826 324.97 379.008 324.788 381.19C324.788 383.735 322.972 386.28 319.885 388.098L228.729 441.001C223.1 443.728 216.563 443.546 211.115 440.456L6.83105 322.469C4.83359 321.196 3.56247 319.378 3.38089 317.015C3.19931 314.288 4.65201 311.379 7.19421 309.561L98.532 256.476C104.161 253.567 110.88 253.749 116.327 257.021L321.52 375.372Z" fill="white" fill-opacity="0.32" style="mix-blend-mode:overlay"/>
<path d="M20.4045 315.773L20.4159 315.767L108.65 264.873C112.434 262.986 116.916 263.153 120.726 265.231C120.728 265.232 120.731 265.233 120.733 265.234L315.36 377.749C316.826 378.734 317.579 380.159 317.503 381.586C317.427 383.01 316.513 384.607 314.29 385.891L20.4045 315.773ZM20.4045 315.773L20.3927 315.78C17.0234 317.547 16.884 322.171 20.0582 324.082C20.0597 324.083 20.0613 324.084 20.0628 324.085L214.166 436.429C214.167 436.43 214.167 436.43 214.168 436.43C217.787 438.5 222.266 438.674 226.056 436.784L314.29 385.891L20.4045 315.773Z" fill="#31388B" stroke="#C6CACC" stroke-width="1.3174"/>
<g filter="url(#filter0_d)">
<path d="M139.629 288.745L59.7621 333.842L164.659 395.455L243.044 348.028L139.629 288.745Z" fill="#FAFAFA"/>
</g>
<rect x="0.704387" width="34.0239" height="3.15544" rx="1.35723" transform="matrix(0.866025 -0.5 0.866025 0.5 102.084 349.099)" fill="white" stroke="#4F347D" stroke-width="0.813356"/>
<rect x="0.704387" width="14.8414" height="3.15544" rx="1.35723" transform="matrix(0.866025 -0.5 0.866025 0.5 120.415 359.682)" fill="white" stroke="#4F347D" stroke-width="0.813356"/>
<rect x="0.704387" width="43.5049" height="3.15544" rx="1.35723" transform="matrix(0.866025 -0.5 0.866025 0.5 146.002 344.91)" fill="white" stroke="#4F347D" stroke-width="0.813356"/>
<rect x="0.704387" width="22.5585" height="3.15544" rx="1.35723" transform="matrix(0.866025 -0.5 0.866025 0.5 182.473 345.021)" fill="white" stroke="#4F347D" stroke-width="0.813356"/>
<rect x="0.704387" width="28.7322" height="3.15544" rx="1.35723" transform="matrix(0.866025 -0.5 0.866025 0.5 138.746 370.266)" fill="white" stroke="#4F347D" stroke-width="0.813356"/>
<rect x="0.704387" width="73.0504" height="3.15544" rx="1.35723" transform="matrix(0.866025 -0.5 0.866025 0.5 108.194 352.627)" fill="white" stroke="#4F347D" stroke-width="0.813356"/>
<rect x="0.704387" width="73.0504" height="3.15544" rx="1.35723" transform="matrix(0.866025 -0.5 0.866025 0.5 88.9303 343.693)" fill="#C8193C" stroke="#4F347D" stroke-width="0.813356"/>
<rect x="0.704387" width="73.0504" height="3.15544" rx="1.35723" transform="matrix(0.866025 -0.5 0.866025 0.5 126.526 363.21)" fill="white" stroke="#4F347D" stroke-width="0.813356"/>
<rect x="0.704387" width="73.0504" height="3.15544" rx="1.35723" transform="matrix(0.866025 -0.5 0.866025 0.5 132.636 366.739)" fill="white" stroke="#4F347D" stroke-width="0.813356"/>
<rect x="0.704387" width="73.0504" height="3.15544" rx="1.35723" transform="matrix(0.866025 -0.5 0.866025 0.5 150.967 377.322)" fill="white" stroke="#4F347D" stroke-width="0.813356"/>
<rect x="0.704387" width="73.0504" height="3.15544" rx="1.35723" transform="matrix(0.866025 -0.5 0.866025 0.5 144.857 373.795)" fill="white" stroke="#4F347D" stroke-width="0.813356"/>
<rect x="0.704387" width="73.0504" height="3.15544" rx="1.35723" transform="matrix(0.866025 -0.5 0.866025 0.5 114.305 356.154)" fill="white" stroke="#4F347D" stroke-width="0.813356"/>
<rect x="0.704387" width="16.3848" height="3.15544" rx="1.35723" transform="matrix(0.866025 -0.5 0.866025 0.5 151.158 320.766)" fill="white" stroke="#4F347D" stroke-width="0.813356"/>
<rect x="0.704387" width="16.1643" height="3.15544" rx="1.35723" transform="matrix(0.866025 -0.5 0.866025 0.5 134.164 330.578)" fill="#C8193C" stroke="#4F347D" stroke-width="0.813356"/>
<rect x="0.704387" width="6.46278" height="3.15544" rx="1.35723" transform="matrix(0.866025 -0.5 0.866025 0.5 136.837 350.201)" fill="#C8193C" stroke="#4F347D" stroke-width="0.813356"/>
<rect x="0.704387" width="16.1643" height="3.15544" rx="1.35723" transform="matrix(0.866025 -0.5 0.866025 0.5 166.625 354.171)" fill="#C8193C" stroke="#4F347D" stroke-width="0.813356"/>
<path d="M60.7607 360.466C60.7607 359.375 60.2159 358.284 59.308 357.92L51.4998 353.375C51.1366 353.194 50.7735 353.194 50.5919 353.375L51.863 352.466H52.0446C52.4077 352.285 52.5893 352.285 53.1341 352.466L60.9423 357.011C61.6686 357.375 62.2134 358.648 62.2134 359.557C62.2134 360.102 62.2134 360.284 61.8502 360.466L60.3975 361.556C60.5791 361.375 60.7607 361.011 60.7607 360.466Z" fill="#31388B"/>
<path d="M60.7607 360.466C60.7607 359.375 60.2159 358.284 59.308 357.92L51.4998 353.375C51.1366 353.194 50.7735 353.194 50.5919 353.375L51.863 352.466H52.0446C52.4077 352.285 52.5893 352.285 53.1341 352.466L60.9423 357.011C61.6686 357.375 62.2134 358.648 62.2134 359.557C62.2134 360.102 62.2134 360.284 61.8502 360.466L60.3975 361.556C60.5791 361.375 60.7607 361.011 60.7607 360.466Z" fill="white" fill-opacity="0.32" style="mix-blend-mode:overlay"/>
<path d="M60.5802 361.738L62.2145 360.647C62.5776 360.283 62.5776 359.92 62.5776 359.556C62.5776 358.465 61.8513 357.193 61.1249 356.829L53.3167 352.284C52.772 351.921 52.2272 352.102 52.0456 352.284L50.593 353.193L50.9561 353.557C51.1377 353.375 51.5009 353.557 51.6825 353.557L59.4907 358.102C60.217 358.465 60.7618 359.556 60.7618 360.465C60.7618 360.829 60.5802 361.192 60.3986 361.374L60.5802 361.738ZM52.5904 352.284C52.772 352.284 52.772 352.284 52.9536 352.466L60.7618 357.011C61.4881 357.374 62.0329 358.465 62.0329 359.374C62.0329 359.738 62.0329 360.101 61.8513 360.101L61.1249 360.647C61.1249 360.465 61.1249 360.465 61.1249 360.283C61.1249 359.192 60.3986 357.92 59.6723 357.556L51.864 353.011C51.864 353.011 51.6825 353.011 51.6825 352.83L52.4088 352.284C52.4088 352.466 52.4088 352.284 52.5904 352.284Z" fill="#31388B"/>
<path d="M60.5802 361.738L62.2145 360.647C62.5776 360.283 62.5776 359.92 62.5776 359.556C62.5776 358.465 61.8513 357.193 61.1249 356.829L53.3167 352.284C52.772 351.921 52.2272 352.102 52.0456 352.284L50.593 353.193L50.9561 353.557C51.1377 353.375 51.5009 353.557 51.6825 353.557L59.4907 358.102C60.217 358.465 60.7618 359.556 60.7618 360.465C60.7618 360.829 60.5802 361.192 60.3986 361.374L60.5802 361.738ZM52.5904 352.284C52.772 352.284 52.772 352.284 52.9536 352.466L60.7618 357.011C61.4881 357.374 62.0329 358.465 62.0329 359.374C62.0329 359.738 62.0329 360.101 61.8513 360.101L61.1249 360.647C61.1249 360.465 61.1249 360.465 61.1249 360.283C61.1249 359.192 60.3986 357.92 59.6723 357.556L51.864 353.011C51.864 353.011 51.6825 353.011 51.6825 352.83L52.4088 352.284C52.4088 352.466 52.4088 352.284 52.5904 352.284Z" fill="white" fill-opacity="0.32" style="mix-blend-mode:overlay"/>
<path d="M51.6825 357.011L59.4907 361.556C60.217 361.92 60.9434 361.556 60.9434 360.465C60.9434 359.374 60.3986 358.284 59.4907 357.92L51.6825 353.375C50.9562 353.012 50.2298 353.375 50.2298 354.466C50.2298 355.375 50.9562 356.466 51.6825 357.011Z" fill="white"/>
<path d="M60.0355 361.919C60.2171 361.919 60.3986 361.919 60.5802 361.738C60.9434 361.556 61.125 361.01 61.125 360.465C61.125 359.374 60.3986 358.102 59.6723 357.738L51.8641 353.193C51.5009 353.011 51.1378 353.011 50.7746 353.193C50.4114 353.375 50.2298 353.92 50.2298 354.466C50.2298 355.556 50.9562 356.829 51.6825 357.193L59.4907 361.738C59.4907 361.738 59.6723 361.919 60.0355 361.919ZM51.1377 353.375C51.3193 353.375 51.5009 353.375 51.5009 353.557L59.3091 358.102C60.0355 358.465 60.5802 359.556 60.5802 360.465C60.5802 360.829 60.3987 361.192 60.2171 361.374C60.0355 361.556 59.6723 361.374 59.4907 361.374L51.6825 356.829C50.9562 356.465 50.4114 355.375 50.4114 354.466C50.4114 354.102 50.593 353.738 50.7746 353.557C50.9562 353.375 50.9562 353.375 51.1377 353.375Z" fill="#31388B"/>
<path d="M60.0355 361.919C60.2171 361.919 60.3986 361.919 60.5802 361.738C60.9434 361.556 61.125 361.01 61.125 360.465C61.125 359.374 60.3986 358.102 59.6723 357.738L51.8641 353.193C51.5009 353.011 51.1378 353.011 50.7746 353.193C50.4114 353.375 50.2298 353.92 50.2298 354.466C50.2298 355.556 50.9562 356.829 51.6825 357.193L59.4907 361.738C59.4907 361.738 59.6723 361.919 60.0355 361.919ZM51.1377 353.375C51.3193 353.375 51.5009 353.375 51.5009 353.557L59.3091 358.102C60.0355 358.465 60.5802 359.556 60.5802 360.465C60.5802 360.829 60.3987 361.192 60.2171 361.374C60.0355 361.556 59.6723 361.374 59.4907 361.374L51.6825 356.829C50.9562 356.465 50.4114 355.375 50.4114 354.466C50.4114 354.102 50.593 353.738 50.7746 353.557C50.9562 353.375 50.9562 353.375 51.1377 353.375Z" fill="white" fill-opacity="0.32" style="mix-blend-mode:overlay"/>
<path d="M72.2016 281.2C72.9279 280.837 72.7464 280.291 72.2016 279.746C71.4753 279.382 70.5673 279.382 69.841 279.564H69.6594C69.1146 279.928 69.1146 280.473 69.841 280.837C70.5673 281.382 71.4753 281.564 72.2016 281.2Z" fill="#31388B"/>
<path d="M72.2016 281.2C72.9279 280.837 72.7464 280.291 72.2016 279.746C71.4753 279.382 70.5673 279.382 69.841 279.564H69.6594C69.1146 279.928 69.1146 280.473 69.841 280.837C70.5673 281.382 71.4753 281.564 72.2016 281.2Z" fill="white" fill-opacity="0.32" style="mix-blend-mode:overlay"/>
<path d="M48.5964 294.654L68.934 283.019C69.4787 282.656 69.4787 282.11 68.7524 281.747C68.026 281.383 67.1181 281.383 66.3917 281.565L46.0542 293.2C45.5094 293.563 45.5094 294.109 46.2357 294.472C46.9621 295.018 48.0516 295.018 48.5964 294.654Z" fill="#31388B"/>
<path d="M48.5964 294.654L68.934 283.019C69.4787 282.656 69.4787 282.11 68.7524 281.747C68.026 281.383 67.1181 281.383 66.3917 281.565L46.0542 293.2C45.5094 293.563 45.5094 294.109 46.2357 294.472C46.9621 295.018 48.0516 295.018 48.5964 294.654Z" fill="white" fill-opacity="0.32" style="mix-blend-mode:overlay"/>
<path d="M71.1128 280.656C71.476 280.656 72.0208 280.656 72.2024 280.474H72.3839C72.7471 280.292 72.9287 279.928 72.9287 279.565C72.9287 279.201 72.7471 278.838 72.2024 278.656C71.476 278.292 70.3865 278.11 69.6602 278.474H69.4786C69.1154 278.656 68.9338 279.019 68.9338 279.201C68.9338 279.565 69.1154 279.928 69.6602 280.11C70.2049 280.474 70.5681 280.656 71.1128 280.656ZM70.7497 278.656C71.1129 278.656 71.6576 278.838 71.8392 279.019C72.0208 279.201 72.2024 279.383 72.2024 279.565C72.2024 279.747 72.0208 279.747 72.0208 279.928H71.8392C71.2944 280.292 70.3865 280.11 69.8418 279.747C69.6602 279.565 69.4786 279.383 69.4786 279.201C69.4786 279.019 69.6602 279.019 69.6602 278.838H69.8418C70.2049 278.838 70.3865 278.656 70.7497 278.656Z" fill="#31388B"/>
<path d="M71.1128 280.656C71.476 280.656 72.0208 280.656 72.2024 280.474H72.3839C72.7471 280.292 72.9287 279.928 72.9287 279.565C72.9287 279.201 72.7471 278.838 72.2024 278.656C71.476 278.292 70.3865 278.11 69.6602 278.474H69.4786C69.1154 278.656 68.9338 279.019 68.9338 279.201C68.9338 279.565 69.1154 279.928 69.6602 280.11C70.2049 280.474 70.5681 280.656 71.1128 280.656ZM70.7497 278.656C71.1129 278.656 71.6576 278.838 71.8392 279.019C72.0208 279.201 72.2024 279.383 72.2024 279.565C72.2024 279.747 72.0208 279.747 72.0208 279.928H71.8392C71.2944 280.292 70.3865 280.11 69.8418 279.747C69.6602 279.565 69.4786 279.383 69.4786 279.201C69.4786 279.019 69.6602 279.019 69.6602 278.838H69.8418C70.2049 278.838 70.3865 278.656 70.7497 278.656Z" fill="white" fill-opacity="0.32" style="mix-blend-mode:overlay"/>
<path d="M47.5071 294.108C47.8702 294.108 48.415 294.108 48.5966 293.927L68.9342 282.292C69.2974 282.11 69.479 281.746 69.479 281.564C69.479 281.201 69.2974 280.837 68.7526 280.655C68.0263 280.292 66.9368 280.11 66.2104 280.474L45.8728 292.109C45.5096 292.29 45.328 292.654 45.328 292.836C45.328 293.199 45.5096 293.563 46.0544 293.745C46.5991 294.108 47.1439 294.108 47.5071 294.108ZM67.2999 280.655C67.6631 280.655 68.2079 280.837 68.3895 281.019C68.5711 281.201 68.7526 281.383 68.7526 281.564C68.7526 281.746 68.5711 281.746 68.5711 281.928L48.2334 293.563C47.6886 293.927 46.7807 293.745 46.236 293.381C46.0544 293.199 45.8728 293.018 45.8728 292.836C45.8728 292.654 46.0544 292.654 46.0544 292.472L66.5736 280.837C66.7552 280.837 67.1184 280.655 67.2999 280.655Z" fill="#31388B"/>
<path d="M47.5071 294.108C47.8702 294.108 48.415 294.108 48.5966 293.927L68.9342 282.292C69.2974 282.11 69.479 281.746 69.479 281.564C69.479 281.201 69.2974 280.837 68.7526 280.655C68.0263 280.292 66.9368 280.11 66.2104 280.474L45.8728 292.109C45.5096 292.29 45.328 292.654 45.328 292.836C45.328 293.199 45.5096 293.563 46.0544 293.745C46.5991 294.108 47.1439 294.108 47.5071 294.108ZM67.2999 280.655C67.6631 280.655 68.2079 280.837 68.3895 281.019C68.5711 281.201 68.7526 281.383 68.7526 281.564C68.7526 281.746 68.5711 281.746 68.5711 281.928L48.2334 293.563C47.6886 293.927 46.7807 293.745 46.236 293.381C46.0544 293.199 45.8728 293.018 45.8728 292.836C45.8728 292.654 46.0544 292.654 46.0544 292.472L66.5736 280.837C66.7552 280.837 67.1184 280.655 67.2999 280.655Z" fill="white" fill-opacity="0.32" style="mix-blend-mode:overlay"/>
<path d="M236.02 126.315L236.029 126.328L236.038 126.341C236.635 127.253 236.959 128.3 236.952 129.258L236.952 129.274L236.952 129.29C236.875 204.873 215.33 244.197 175.927 259.044C175.489 259.203 175.031 259.195 174.608 259.069C174.183 258.942 173.717 258.673 173.268 258.256C131.633 219.26 106.245 165.949 99.8376 88.4307L99.8369 88.4219L99.8361 88.4131C99.7514 87.4213 99.9985 86.5383 100.537 85.9589L100.543 85.9524C100.775 85.702 101.066 85.5272 101.4 85.4422C101.732 85.3576 102.099 85.364 102.477 85.4624C111.403 87.8495 120.751 85.1324 128.875 81.8741C132.176 80.5499 135.432 79.0644 138.487 77.6705C139.268 77.3144 140.035 76.9643 140.787 76.6245C144.543 74.9255 147.887 73.4915 150.798 72.643C154.695 71.5103 157.803 70.61 160.419 70.0312C163.027 69.4544 164.875 69.2638 166.277 69.3879C166.607 69.4332 166.943 69.5318 167.277 69.6809C168.703 70.4016 170.61 71.7108 173.323 73.8692C176.054 76.0414 179.316 78.8397 183.408 82.3528C186.464 84.9813 190.011 88.4701 194.004 92.4793C194.798 93.2772 195.61 94.0948 196.435 94.9263C199.687 98.2034 203.154 101.696 206.653 105.051C215.255 113.295 225.066 121.723 234.017 124.661C234.393 124.787 234.765 124.999 235.11 125.284C235.456 125.57 235.765 125.922 236.02 126.315ZM210.789 148.545L210.793 148.538C212.02 146.658 212.4 144.008 211.842 141.168C211.285 138.329 209.841 135.552 207.841 133.437L207.835 133.431L207.828 133.424L200.337 125.542L200.331 125.536C198.327 123.433 195.931 122.159 193.661 121.983L194.704 127.404L193.661 121.983C191.39 121.806 189.416 122.741 188.177 124.605L188.171 124.614L188.165 124.623L164.655 160.5L151.56 142.254L151.552 142.243L151.544 142.232C149.797 139.816 147.512 138.081 145.185 137.388C142.858 136.694 140.66 137.094 139.073 138.515L139.064 138.523L139.055 138.532L133.156 143.904L133.153 143.907C131.572 145.35 130.74 147.705 130.854 150.464C130.969 153.223 132.019 156.139 133.76 158.572L133.766 158.58L160.06 195.223L160.06 195.223C162.228 198.244 165.609 201.237 169.001 202.248C172.806 203.382 175.959 201.68 177.725 198.984L210.789 148.545Z" stroke="#31388B" stroke-width="10.5392"/>
<path d="M231.65 128.275L231.656 128.285C232.778 129.999 233.398 131.986 233.386 133.816L233.386 133.828C233.308 210.248 211.453 250.659 171.032 265.885C170.193 266.192 169.266 266.196 168.347 265.922C167.426 265.647 166.476 265.084 165.599 264.267C122.891 224.268 97.0971 169.659 90.6184 91.2835L90.6178 91.277C90.457 89.3932 90.9283 87.7301 91.935 86.6472L91.9373 86.6448C92.4124 86.1308 93.0056 85.7762 93.6808 85.6044C94.3551 85.4327 95.0962 85.4471 95.8584 85.6471C103.987 87.8238 112.793 85.3732 120.926 82.111C124.185 80.8041 127.392 79.341 130.443 77.9488C131.229 77.5905 132.004 77.2369 132.767 76.8918C136.518 75.1956 139.968 73.7106 143.019 72.8216C146.896 71.6945 150.069 70.7745 152.758 70.1797C155.446 69.585 157.549 69.3405 159.295 69.5036C159.916 69.5819 160.55 69.7688 161.18 70.0583C162.955 70.9454 165.13 72.4641 167.934 74.6945C170.74 76.9271 174.071 79.7851 178.143 83.2813C181.345 86.0352 185.006 89.6406 188.992 93.6434C189.799 94.4534 190.618 95.2792 191.449 96.1159C194.697 99.3892 198.112 102.829 201.566 106.14C210.176 114.393 219.408 122.22 227.558 124.893C228.321 125.146 229.078 125.578 229.782 126.16C230.486 126.742 231.122 127.463 231.65 128.275ZM201.976 149.503L201.978 149.5C202.811 148.223 203.068 146.425 202.69 144.5C202.313 142.576 201.332 140.688 199.97 139.247L199.965 139.242L192.474 131.361L192.472 131.358C191.106 129.925 189.47 129.055 187.92 128.934C186.37 128.814 185.025 129.453 184.183 130.719L184.179 130.726L158.889 169.318L143.267 147.552L143.261 147.544C142.072 145.9 140.513 144.715 138.923 144.241C137.333 143.767 135.834 144.041 134.753 145.009L134.747 145.015L128.847 150.387L128.846 150.388C127.771 151.37 127.208 152.969 127.285 154.838C127.362 156.707 128.074 158.686 129.258 160.34L129.26 160.343L155.554 196.986L155.554 196.986C157.278 199.388 159.955 201.708 162.464 202.455C165.121 203.247 167.512 202.08 168.912 199.942C168.912 199.942 168.912 199.942 168.913 199.942L201.976 149.503Z" fill="#C8193C" stroke="#EDEFF0" stroke-width="3.88816"/>
<g filter="url(#filter1_f)">
<path d="M155.726 317.073L185.62 358.664H125.833L155.726 317.073Z" fill="#6E7375" fill-opacity="0.2"/>
</g>
<defs>
<filter id="filter0_d" x="54.4926" y="288.746" width="193.821" height="117.248" filterUnits="userSpaceOnUse" color-interpolation-filters="sRGB">
<feFlood flood-opacity="0" result="BackgroundImageFix"/>
<feColorMatrix in="SourceAlpha" type="matrix" values="0 0 0 0 0 0 0 0 0 0 0 0 0 0 0 0 0 0 127 0" result="hardAlpha"/>
<feOffset dy="5.26959"/>
<feGaussianBlur stdDeviation="2.63479"/>
<feColorMatrix type="matrix" values="0 0 0 0 0 0 0 0 0 0 0 0 0 0 0 0 0 0 0.25 0"/>
<feBlend mode="normal" in2="BackgroundImageFix" result="effect1_dropShadow"/>
<feBlend mode="normal" in="SourceGraphic" in2="effect1_dropShadow" result="shape"/>
</filter>
<filter id="filter1_f" x="103.437" y="294.677" width="104.578" height="86.3828" filterUnits="userSpaceOnUse" color-interpolation-filters="sRGB">
<feFlood flood-opacity="0" result="BackgroundImageFix"/>
<feBlend mode="normal" in="SourceGraphic" in2="BackgroundImageFix" result="shape"/>
<feGaussianBlur stdDeviation="11.1979" result="effect1_foregroundBlur"/>
</filter>
</defs>
</svg>
