<svg width="328" height="453" viewBox="0 0 328 453" fill="none" xmlns="http://www.w3.org/2000/svg">
<path d="M7.01253 309.561C7.19411 309.379 7.19411 309.379 7.37569 309.197L98.5319 256.294C104.343 253.385 111.061 253.567 116.69 256.839L321.701 375.19C322.064 375.372 322.427 375.554 322.609 375.917C329.691 381.371 328.601 392.824 320.612 397.551H320.43L320.248 397.733L229.092 450.636C223.463 453.545 216.744 453.182 211.297 450.091L7.01253 332.104C6.64935 331.922 6.2862 331.558 5.92303 331.377C-1.88517 326.105 -1.34043 314.288 7.01253 309.561Z" fill="white"/>
<path d="M6.6496 309.016L6.8312 309.38L6.6496 309.016C6.83119 308.834 6.83119 308.834 7.01277 308.834L98.1689 255.749C104.161 252.84 111.062 253.022 116.691 256.294L321.883 374.645C322.246 375.009 322.609 375.191 322.972 375.554C326.241 378.099 328.057 382.281 327.875 386.644C327.512 391.371 324.97 395.552 320.975 397.733L320.793 397.915C320.793 397.915 320.612 397.915 320.612 398.097L229.456 451C226.732 452.273 223.826 453 220.921 453C217.653 453 214.202 452.091 211.297 450.455L7.01277 332.468C6.6496 332.286 6.28644 331.923 5.92327 331.741C2.10997 329.196 0.112497 325.014 0.112497 320.469C0.112497 315.742 2.65471 311.379 6.6496 309.016ZM322.246 376.281C321.883 375.918 321.701 375.736 321.338 375.554L116.328 257.203C113.422 255.567 110.154 254.658 107.067 254.658C105.432 254.658 103.617 254.84 101.982 255.385C105.796 254.84 109.609 255.385 111.606 257.022L212.75 425.73C212.75 425.73 210.026 437.366 212.205 442.819C214.384 448.273 219.832 449.182 220.013 449.364C223.1 449.546 226.369 448.819 229.274 447.364L320.43 394.643C320.612 394.643 320.612 394.461 320.612 394.461H320.793C323.88 392.643 325.878 389.916 326.786 386.826C326.786 386.826 326.786 386.826 326.786 386.644C327.149 382.462 325.515 378.645 322.246 376.281Z" fill="#C8193C"/>
<path d="M6.6496 309.016L6.8312 309.38L6.6496 309.016C6.83119 308.834 6.83119 308.834 7.01277 308.834L98.1689 255.749C104.161 252.84 111.062 253.022 116.691 256.294L321.883 374.645C322.246 375.009 322.609 375.191 322.972 375.554C326.241 378.099 328.057 382.281 327.875 386.644C327.512 391.371 324.97 395.552 320.975 397.733L320.793 397.915C320.793 397.915 320.612 397.915 320.612 398.097L229.456 451C226.732 452.273 223.826 453 220.921 453C217.653 453 214.202 452.091 211.297 450.455L7.01277 332.468C6.6496 332.286 6.28644 331.923 5.92327 331.741C2.10997 329.196 0.112497 325.014 0.112497 320.469C0.112497 315.742 2.65471 311.379 6.6496 309.016ZM322.246 376.281C321.883 375.918 321.701 375.736 321.338 375.554L116.328 257.203C113.422 255.567 110.154 254.658 107.067 254.658C105.432 254.658 103.617 254.84 101.982 255.385C105.796 254.84 109.609 255.385 111.606 257.022L212.75 425.73C212.75 425.73 210.026 437.366 212.205 442.819C214.384 448.273 219.832 449.182 220.013 449.364C223.1 449.546 226.369 448.819 229.274 447.364L320.43 394.643C320.612 394.643 320.612 394.461 320.612 394.461H320.793C323.88 392.643 325.878 389.916 326.786 386.826C326.786 386.826 326.786 386.826 326.786 386.644C327.149 382.462 325.515 378.645 322.246 376.281Z" fill="white" fill-opacity="0.32" style="mix-blend-mode:overlay"/>
<path d="M321.883 376.826L115.964 258.112C110.335 254.839 103.617 254.658 97.8059 257.566L6.64972 310.47C1.9285 313.924 1.02057 320.832 6.28656 323.741L211.297 442.274C216.745 445.546 223.463 445.728 229.093 442.819L320.249 389.916C326.786 385.916 326.423 379.917 321.883 376.826Z" fill="#EDEFF0"/>
<path d="M321.883 376.826L115.964 258.112C110.335 254.839 103.617 254.658 97.8059 257.566L6.64972 310.47C1.9285 313.924 1.02057 320.832 6.28656 323.741L211.297 442.274C216.745 445.546 223.463 445.728 229.093 442.819L320.249 389.916C326.786 385.916 326.423 379.917 321.883 376.826Z" stroke="#31388B" stroke-width="0.648028" stroke-miterlimit="10"/>
<path d="M321.883 376.826L115.964 258.112C110.335 254.839 103.617 254.658 97.8059 257.566L6.64972 310.47C1.9285 313.924 1.02057 320.832 6.28656 323.741L211.297 442.274C216.745 445.546 223.463 445.728 229.093 442.819L320.249 389.916C326.786 385.916 326.423 379.917 321.883 376.826Z" stroke="white" stroke-opacity="0.32" stroke-width="0.648028" stroke-miterlimit="10" style="mix-blend-mode:overlay"/>
<path d="M220.558 443.364C223.463 443.364 226.369 442.637 229.092 441.364L320.249 388.461C323.517 386.461 325.333 383.916 325.333 381.189C325.333 378.826 324.062 376.462 321.701 374.826L116.691 256.657C111.061 253.385 104.161 253.203 98.3504 256.112L7.19421 309.015C4.47042 311.015 3.01774 314.105 3.19932 317.014C3.38091 319.559 4.65201 321.559 6.83104 322.832L210.934 440.819C214.021 442.455 217.289 443.364 220.558 443.364ZM321.52 375.372C323.699 376.826 324.97 379.007 324.788 381.189C324.788 383.734 322.972 386.279 319.885 388.097L228.729 441.001C223.1 443.728 216.563 443.546 211.115 440.455L6.83104 322.468C4.8336 321.196 3.56248 319.378 3.38089 317.014C3.19931 314.287 4.65201 311.379 7.19421 309.561L98.532 256.475C104.161 253.567 110.88 253.748 116.327 257.021L321.52 375.372Z" fill="#31388B"/>
<path d="M220.558 443.364C223.463 443.364 226.369 442.637 229.092 441.364L320.249 388.461C323.517 386.461 325.333 383.916 325.333 381.189C325.333 378.826 324.062 376.462 321.701 374.826L116.691 256.657C111.061 253.385 104.161 253.203 98.3504 256.112L7.19421 309.015C4.47042 311.015 3.01774 314.105 3.19932 317.014C3.38091 319.559 4.65201 321.559 6.83104 322.832L210.934 440.819C214.021 442.455 217.289 443.364 220.558 443.364ZM321.52 375.372C323.699 376.826 324.97 379.007 324.788 381.189C324.788 383.734 322.972 386.279 319.885 388.097L228.729 441.001C223.1 443.728 216.563 443.546 211.115 440.455L6.83104 322.468C4.8336 321.196 3.56248 319.378 3.38089 317.014C3.19931 314.287 4.65201 311.379 7.19421 309.561L98.532 256.475C104.161 253.567 110.88 253.748 116.327 257.021L321.52 375.372Z" fill="white" fill-opacity="0.32" style="mix-blend-mode:overlay"/>
<path d="M20.0868 315.196L108.338 264.293C112.333 262.293 117.054 262.475 121.049 264.656L315.709 377.19C318.977 379.371 319.341 383.734 314.619 386.461L226.369 437.365C222.374 439.365 217.652 439.183 213.839 437.001L19.7237 324.65C16.0919 322.468 16.2735 317.196 20.0868 315.196Z" fill="#31388B"/>
<g filter="url(#filter0_d)">
<path d="M139.629 288.745L59.7621 333.842L164.659 395.455L243.044 348.028L139.629 288.745Z" fill="#FAFAFA"/>
</g>
<rect x="0.704387" width="34.0239" height="3.15544" rx="1.35723" transform="matrix(0.866025 -0.5 0.866025 0.5 102.084 349.099)" fill="white" stroke="#4F347D" stroke-width="0.813356"/>
<rect x="0.704387" width="14.8414" height="3.15544" rx="1.35723" transform="matrix(0.866025 -0.5 0.866025 0.5 120.415 359.682)" fill="white" stroke="#4F347D" stroke-width="0.813356"/>
<rect x="0.704387" width="43.5049" height="3.15544" rx="1.35723" transform="matrix(0.866025 -0.5 0.866025 0.5 146.002 344.91)" fill="white" stroke="#4F347D" stroke-width="0.813356"/>
<rect x="0.704387" width="22.5585" height="3.15544" rx="1.35723" transform="matrix(0.866025 -0.5 0.866025 0.5 182.473 345.021)" fill="white" stroke="#4F347D" stroke-width="0.813356"/>
<rect x="0.704387" width="28.7322" height="3.15544" rx="1.35723" transform="matrix(0.866025 -0.5 0.866025 0.5 138.746 370.266)" fill="white" stroke="#4F347D" stroke-width="0.813356"/>
<rect x="0.704387" width="73.0504" height="3.15544" rx="1.35723" transform="matrix(0.866025 -0.5 0.866025 0.5 108.194 352.627)" fill="white" stroke="#4F347D" stroke-width="0.813356"/>
<rect x="0.704387" width="73.0504" height="3.15544" rx="1.35723" transform="matrix(0.866025 -0.5 0.866025 0.5 88.9303 343.693)" fill="#C8193C" stroke="#4F347D" stroke-width="0.813356"/>
<rect x="0.704387" width="73.0504" height="3.15544" rx="1.35723" transform="matrix(0.866025 -0.5 0.866025 0.5 126.526 363.21)" fill="white" stroke="#4F347D" stroke-width="0.813356"/>
<rect x="0.704387" width="73.0504" height="3.15544" rx="1.35723" transform="matrix(0.866025 -0.5 0.866025 0.5 132.636 366.739)" fill="white" stroke="#4F347D" stroke-width="0.813356"/>
<rect x="0.704387" width="73.0504" height="3.15544" rx="1.35723" transform="matrix(0.866025 -0.5 0.866025 0.5 150.967 377.322)" fill="white" stroke="#4F347D" stroke-width="0.813356"/>
<rect x="0.704387" width="73.0504" height="3.15544" rx="1.35723" transform="matrix(0.866025 -0.5 0.866025 0.5 144.857 373.795)" fill="white" stroke="#4F347D" stroke-width="0.813356"/>
<rect x="0.704387" width="73.0504" height="3.15544" rx="1.35723" transform="matrix(0.866025 -0.5 0.866025 0.5 114.305 356.154)" fill="white" stroke="#4F347D" stroke-width="0.813356"/>
<rect x="0.704387" width="16.3848" height="3.15544" rx="1.35723" transform="matrix(0.866025 -0.5 0.866025 0.5 151.158 320.766)" fill="white" stroke="#4F347D" stroke-width="0.813356"/>
<rect x="0.704387" width="16.1643" height="3.15544" rx="1.35723" transform="matrix(0.866025 -0.5 0.866025 0.5 134.164 330.578)" fill="#C8193C" stroke="#4F347D" stroke-width="0.813356"/>
<rect x="0.704387" width="6.46278" height="3.15544" rx="1.35723" transform="matrix(0.866025 -0.5 0.866025 0.5 136.837 350.201)" fill="#C8193C" stroke="#4F347D" stroke-width="0.813356"/>
<rect x="0.704387" width="16.1643" height="3.15544" rx="1.35723" transform="matrix(0.866025 -0.5 0.866025 0.5 166.625 354.171)" fill="#C8193C" stroke="#4F347D" stroke-width="0.813356"/>
<path d="M60.7607 360.466C60.7607 359.375 60.2159 358.284 59.308 357.92L51.4998 353.375C51.1366 353.194 50.7735 353.194 50.5919 353.375L51.863 352.466H52.0446C52.4077 352.285 52.5893 352.285 53.1341 352.466L60.9423 357.011C61.6686 357.375 62.2134 358.648 62.2134 359.557C62.2134 360.102 62.2134 360.284 61.8502 360.466L60.3975 361.556C60.5791 361.375 60.7607 361.011 60.7607 360.466Z" fill="#31388B"/>
<path d="M60.7607 360.466C60.7607 359.375 60.2159 358.284 59.308 357.92L51.4998 353.375C51.1366 353.194 50.7735 353.194 50.5919 353.375L51.863 352.466H52.0446C52.4077 352.285 52.5893 352.285 53.1341 352.466L60.9423 357.011C61.6686 357.375 62.2134 358.648 62.2134 359.557C62.2134 360.102 62.2134 360.284 61.8502 360.466L60.3975 361.556C60.5791 361.375 60.7607 361.011 60.7607 360.466Z" fill="white" fill-opacity="0.32" style="mix-blend-mode:overlay"/>
<path d="M60.5802 361.738L62.2145 360.647C62.5776 360.283 62.5776 359.92 62.5776 359.556C62.5776 358.465 61.8513 357.193 61.1249 356.829L53.3167 352.284C52.772 351.921 52.2272 352.102 52.0456 352.284L50.593 353.193L50.9561 353.557C51.1377 353.375 51.5009 353.557 51.6825 353.557L59.4907 358.102C60.217 358.465 60.7618 359.556 60.7618 360.465C60.7618 360.829 60.5802 361.192 60.3986 361.374L60.5802 361.738ZM52.5904 352.284C52.772 352.284 52.772 352.284 52.9536 352.466L60.7618 357.011C61.4881 357.374 62.0329 358.465 62.0329 359.374C62.0329 359.738 62.0329 360.101 61.8513 360.101L61.1249 360.647C61.1249 360.465 61.1249 360.465 61.1249 360.283C61.1249 359.192 60.3986 357.92 59.6723 357.556L51.864 353.011C51.864 353.011 51.6825 353.011 51.6825 352.83L52.4088 352.284C52.4088 352.466 52.4088 352.284 52.5904 352.284Z" fill="#31388B"/>
<path d="M60.5802 361.738L62.2145 360.647C62.5776 360.283 62.5776 359.92 62.5776 359.556C62.5776 358.465 61.8513 357.193 61.1249 356.829L53.3167 352.284C52.772 351.921 52.2272 352.102 52.0456 352.284L50.593 353.193L50.9561 353.557C51.1377 353.375 51.5009 353.557 51.6825 353.557L59.4907 358.102C60.217 358.465 60.7618 359.556 60.7618 360.465C60.7618 360.829 60.5802 361.192 60.3986 361.374L60.5802 361.738ZM52.5904 352.284C52.772 352.284 52.772 352.284 52.9536 352.466L60.7618 357.011C61.4881 357.374 62.0329 358.465 62.0329 359.374C62.0329 359.738 62.0329 360.101 61.8513 360.101L61.1249 360.647C61.1249 360.465 61.1249 360.465 61.1249 360.283C61.1249 359.192 60.3986 357.92 59.6723 357.556L51.864 353.011C51.864 353.011 51.6825 353.011 51.6825 352.83L52.4088 352.284C52.4088 352.466 52.4088 352.284 52.5904 352.284Z" fill="white" fill-opacity="0.32" style="mix-blend-mode:overlay"/>
<path d="M51.6825 357.011L59.4907 361.556C60.217 361.92 60.9434 361.556 60.9434 360.465C60.9434 359.374 60.3986 358.284 59.4907 357.92L51.6825 353.375C50.9562 353.012 50.2298 353.375 50.2298 354.466C50.2298 355.375 50.9562 356.466 51.6825 357.011Z" fill="white"/>
<path d="M60.0355 361.919C60.2171 361.919 60.3986 361.919 60.5802 361.738C60.9434 361.556 61.125 361.01 61.125 360.465C61.125 359.374 60.3986 358.102 59.6723 357.738L51.8641 353.193C51.5009 353.011 51.1378 353.011 50.7746 353.193C50.4114 353.375 50.2298 353.92 50.2298 354.466C50.2298 355.556 50.9562 356.829 51.6825 357.193L59.4907 361.738C59.4907 361.738 59.6723 361.919 60.0355 361.919ZM51.1377 353.375C51.3193 353.375 51.5009 353.375 51.5009 353.557L59.3091 358.102C60.0355 358.465 60.5802 359.556 60.5802 360.465C60.5802 360.829 60.3987 361.192 60.2171 361.374C60.0355 361.556 59.6723 361.374 59.4907 361.374L51.6825 356.829C50.9562 356.465 50.4114 355.375 50.4114 354.466C50.4114 354.102 50.593 353.738 50.7746 353.557C50.9562 353.375 50.9562 353.375 51.1377 353.375Z" fill="#31388B"/>
<path d="M60.0355 361.919C60.2171 361.919 60.3986 361.919 60.5802 361.738C60.9434 361.556 61.125 361.01 61.125 360.465C61.125 359.374 60.3986 358.102 59.6723 357.738L51.8641 353.193C51.5009 353.011 51.1378 353.011 50.7746 353.193C50.4114 353.375 50.2298 353.92 50.2298 354.466C50.2298 355.556 50.9562 356.829 51.6825 357.193L59.4907 361.738C59.4907 361.738 59.6723 361.919 60.0355 361.919ZM51.1377 353.375C51.3193 353.375 51.5009 353.375 51.5009 353.557L59.3091 358.102C60.0355 358.465 60.5802 359.556 60.5802 360.465C60.5802 360.829 60.3987 361.192 60.2171 361.374C60.0355 361.556 59.6723 361.374 59.4907 361.374L51.6825 356.829C50.9562 356.465 50.4114 355.375 50.4114 354.466C50.4114 354.102 50.593 353.738 50.7746 353.557C50.9562 353.375 50.9562 353.375 51.1377 353.375Z" fill="white" fill-opacity="0.32" style="mix-blend-mode:overlay"/>
<path d="M72.2016 281.2C72.9279 280.837 72.7464 280.291 72.2016 279.746C71.4753 279.382 70.5673 279.382 69.841 279.564H69.6594C69.1146 279.928 69.1146 280.473 69.841 280.837C70.5673 281.382 71.4753 281.564 72.2016 281.2Z" fill="#31388B"/>
<path d="M72.2016 281.2C72.9279 280.837 72.7464 280.291 72.2016 279.746C71.4753 279.382 70.5673 279.382 69.841 279.564H69.6594C69.1146 279.928 69.1146 280.473 69.841 280.837C70.5673 281.382 71.4753 281.564 72.2016 281.2Z" fill="white" fill-opacity="0.32" style="mix-blend-mode:overlay"/>
<path d="M48.5964 294.654L68.934 283.019C69.4787 282.656 69.4787 282.11 68.7524 281.747C68.026 281.383 67.1181 281.383 66.3917 281.565L46.0542 293.2C45.5094 293.563 45.5094 294.109 46.2357 294.472C46.9621 295.018 48.0516 295.018 48.5964 294.654Z" fill="#31388B"/>
<path d="M48.5964 294.654L68.934 283.019C69.4787 282.656 69.4787 282.11 68.7524 281.747C68.026 281.383 67.1181 281.383 66.3917 281.565L46.0542 293.2C45.5094 293.563 45.5094 294.109 46.2357 294.472C46.9621 295.018 48.0516 295.018 48.5964 294.654Z" fill="white" fill-opacity="0.32" style="mix-blend-mode:overlay"/>
<path d="M71.1128 280.656C71.476 280.656 72.0208 280.656 72.2024 280.474H72.3839C72.7471 280.292 72.9287 279.928 72.9287 279.565C72.9287 279.201 72.7471 278.838 72.2024 278.656C71.476 278.292 70.3865 278.11 69.6602 278.474H69.4786C69.1154 278.656 68.9338 279.019 68.9338 279.201C68.9338 279.565 69.1154 279.928 69.6602 280.11C70.2049 280.474 70.5681 280.656 71.1128 280.656ZM70.7497 278.656C71.1129 278.656 71.6576 278.838 71.8392 279.019C72.0208 279.201 72.2024 279.383 72.2024 279.565C72.2024 279.747 72.0208 279.747 72.0208 279.928H71.8392C71.2944 280.292 70.3865 280.11 69.8418 279.747C69.6602 279.565 69.4786 279.383 69.4786 279.201C69.4786 279.019 69.6602 279.019 69.6602 278.838H69.8418C70.2049 278.838 70.3865 278.656 70.7497 278.656Z" fill="#31388B"/>
<path d="M71.1128 280.656C71.476 280.656 72.0208 280.656 72.2024 280.474H72.3839C72.7471 280.292 72.9287 279.928 72.9287 279.565C72.9287 279.201 72.7471 278.838 72.2024 278.656C71.476 278.292 70.3865 278.11 69.6602 278.474H69.4786C69.1154 278.656 68.9338 279.019 68.9338 279.201C68.9338 279.565 69.1154 279.928 69.6602 280.11C70.2049 280.474 70.5681 280.656 71.1128 280.656ZM70.7497 278.656C71.1129 278.656 71.6576 278.838 71.8392 279.019C72.0208 279.201 72.2024 279.383 72.2024 279.565C72.2024 279.747 72.0208 279.747 72.0208 279.928H71.8392C71.2944 280.292 70.3865 280.11 69.8418 279.747C69.6602 279.565 69.4786 279.383 69.4786 279.201C69.4786 279.019 69.6602 279.019 69.6602 278.838H69.8418C70.2049 278.838 70.3865 278.656 70.7497 278.656Z" fill="white" fill-opacity="0.32" style="mix-blend-mode:overlay"/>
<path d="M47.5071 294.108C47.8702 294.108 48.415 294.108 48.5966 293.927L68.9342 282.292C69.2974 282.11 69.479 281.746 69.479 281.564C69.479 281.201 69.2974 280.837 68.7526 280.655C68.0263 280.292 66.9368 280.11 66.2104 280.474L45.8728 292.109C45.5096 292.29 45.328 292.654 45.328 292.836C45.328 293.199 45.5096 293.563 46.0544 293.745C46.5991 294.108 47.1439 294.108 47.5071 294.108ZM67.2999 280.655C67.6631 280.655 68.2079 280.837 68.3895 281.019C68.5711 281.201 68.7526 281.383 68.7526 281.564C68.7526 281.746 68.5711 281.746 68.5711 281.928L48.2334 293.563C47.6886 293.927 46.7807 293.745 46.236 293.381C46.0544 293.199 45.8728 293.018 45.8728 292.836C45.8728 292.654 46.0544 292.654 46.0544 292.472L66.5736 280.837C66.7552 280.837 67.1184 280.655 67.2999 280.655Z" fill="#31388B"/>
<path d="M47.5071 294.108C47.8702 294.108 48.415 294.108 48.5966 293.927L68.9342 282.292C69.2974 282.11 69.479 281.746 69.479 281.564C69.479 281.201 69.2974 280.837 68.7526 280.655C68.0263 280.292 66.9368 280.11 66.2104 280.474L45.8728 292.109C45.5096 292.29 45.328 292.654 45.328 292.836C45.328 293.199 45.5096 293.563 46.0544 293.745C46.5991 294.108 47.1439 294.108 47.5071 294.108ZM67.2999 280.655C67.6631 280.655 68.2079 280.837 68.3895 281.019C68.5711 281.201 68.7526 281.383 68.7526 281.564C68.7526 281.746 68.5711 281.746 68.5711 281.928L48.2334 293.563C47.6886 293.927 46.7807 293.745 46.236 293.381C46.0544 293.199 45.8728 293.018 45.8728 292.836C45.8728 292.654 46.0544 292.654 46.0544 292.472L66.5736 280.837C66.7552 280.837 67.1184 280.655 67.2999 280.655Z" fill="white" fill-opacity="0.32" style="mix-blend-mode:overlay"/>
<path d="M236.021 126.315L236.029 126.328L236.038 126.341C236.635 127.253 236.959 128.3 236.953 129.258L236.953 129.274L236.953 129.29C236.875 204.873 215.33 244.197 175.927 259.044C175.489 259.203 175.032 259.195 174.609 259.069C174.183 258.942 173.718 258.673 173.27 258.257C131.633 219.261 106.246 165.95 99.8381 88.4307L99.8374 88.4219L99.8366 88.4131C99.7519 87.4213 99.999 86.5383 100.538 85.9589L100.544 85.9524C100.775 85.702 101.066 85.5272 101.4 85.4422C101.732 85.3576 102.099 85.364 102.477 85.4624C111.403 87.8495 120.752 85.1324 128.875 81.8741C132.177 80.5499 135.433 79.0644 138.488 77.6705C139.268 77.3144 140.035 76.9643 140.787 76.6245C144.545 74.9251 147.889 73.4909 150.8 72.6424C154.696 71.51 157.804 70.6099 160.42 70.0312C163.027 69.4544 164.875 69.2638 166.278 69.3879C166.607 69.4332 166.944 69.5318 167.277 69.6809C168.703 70.4016 170.61 71.7108 173.324 73.8692C176.054 76.0412 179.316 78.839 183.407 82.3514C186.463 84.9801 190.011 88.4694 194.004 92.4793C194.799 93.2772 195.61 94.0947 196.435 94.9262C199.688 98.2033 203.154 101.696 206.654 105.051C215.255 113.295 225.066 121.723 234.016 124.661C234.393 124.786 234.765 124.999 235.11 125.284C235.456 125.57 235.766 125.922 236.021 126.315ZM210.789 148.545L210.794 148.538C212.02 146.658 212.4 144.008 211.843 141.168C211.286 138.329 209.841 135.552 207.841 133.437L207.835 133.431L207.829 133.424L200.338 125.542L200.332 125.536C198.328 123.433 195.931 122.159 193.661 121.983C191.391 121.806 189.416 122.741 188.177 124.605L188.171 124.614L188.165 124.623L164.656 160.5L151.56 142.254L151.552 142.243L151.544 142.232C149.798 139.816 147.512 138.081 145.185 137.388C142.858 136.694 140.661 137.094 139.074 138.515L139.064 138.523L139.055 138.532L133.156 143.904L133.154 143.907C131.573 145.35 130.741 147.705 130.855 150.464C130.969 153.223 132.019 156.139 133.761 158.572L133.767 158.58L160.06 195.223L160.061 195.223C162.229 198.244 165.61 201.237 169.002 202.248C172.806 203.382 175.959 201.68 177.726 198.984L210.789 148.545Z" stroke="#31388B" stroke-width="10.5392"/>
<path d="M88.9709 90.8876L88.9704 90.8875L88.9709 90.8876ZM88.9709 90.8876L88.9709 90.8876L88.9709 90.8876ZM231.65 128.275L231.656 128.285C232.779 129.999 233.399 131.986 233.387 133.816L233.387 133.828C233.308 210.249 211.454 250.659 171.032 265.885C170.193 266.192 169.266 266.196 168.347 265.922C167.426 265.647 166.477 265.084 165.601 264.268C122.892 224.269 97.0976 169.659 90.6188 91.2835L90.6183 91.277C90.4575 89.3932 90.9287 87.7301 91.9355 86.6472L91.9378 86.6448C92.4129 86.1308 93.0061 85.7762 93.6813 85.6044C94.3556 85.4327 95.0967 85.4471 95.8589 85.6471C103.988 87.8238 112.794 85.3732 120.927 82.111C124.185 80.8041 127.392 79.341 130.444 77.9488C131.229 77.5905 132.004 77.2369 132.767 76.8918C136.518 75.1956 139.969 73.7106 143.019 72.8216C146.897 71.6945 150.07 70.7745 152.758 70.1797C155.447 69.585 157.55 69.3405 159.296 69.5036C159.916 69.5819 160.551 69.7688 161.18 70.0583C162.956 70.9454 165.13 72.4641 167.934 74.6945C170.74 76.9267 174.071 79.7842 178.142 83.2796C181.344 86.0338 185.005 89.6398 188.993 93.6434C189.799 94.4535 190.619 95.2793 191.449 96.1161C194.698 99.3894 198.112 102.83 201.566 106.14C210.176 114.393 219.408 122.219 227.558 124.893C228.321 125.146 229.078 125.577 229.782 126.16C230.487 126.742 231.123 127.463 231.65 128.275ZM201.977 149.503L201.978 149.5C202.811 148.223 203.069 146.425 202.691 144.5C202.313 142.576 201.333 140.688 199.97 139.247L199.966 139.242L192.474 131.361L192.472 131.358C191.107 129.925 189.471 129.055 187.92 128.934C186.37 128.814 185.025 129.453 184.184 130.719L184.179 130.726L158.89 169.318L143.268 147.552L143.262 147.544C142.073 145.9 140.513 144.715 138.923 144.241C137.333 143.767 135.834 144.041 134.754 145.009L134.747 145.015L128.848 150.387L128.847 150.388C127.772 151.37 127.208 152.969 127.286 154.838C127.363 156.707 128.074 158.686 129.259 160.34L129.261 160.343L155.555 196.986L155.555 196.986C157.279 199.388 159.956 201.708 162.465 202.455C165.122 203.247 167.513 202.08 168.913 199.942L201.977 149.503Z" fill="#C8193C" stroke="#EDEFF0" stroke-width="3.88816"/>
<g filter="url(#filter1_f)">
<path d="M155.726 317.073L185.62 358.664H125.833L155.726 317.073Z" fill="#6E7375" fill-opacity="0.2"/>
</g>
<defs>
<filter id="filter0_d" x="54.4926" y="288.746" width="193.821" height="117.248" filterUnits="userSpaceOnUse" color-interpolation-filters="sRGB">
<feFlood flood-opacity="0" result="BackgroundImageFix"/>
<feColorMatrix in="SourceAlpha" type="matrix" values="0 0 0 0 0 0 0 0 0 0 0 0 0 0 0 0 0 0 127 0" result="hardAlpha"/>
<feOffset dy="5.26959"/>
<feGaussianBlur stdDeviation="2.63479"/>
<feColorMatrix type="matrix" values="0 0 0 0 0 0 0 0 0 0 0 0 0 0 0 0 0 0 0.25 0"/>
<feBlend mode="normal" in2="BackgroundImageFix" result="effect1_dropShadow"/>
<feBlend mode="normal" in="SourceGraphic" in2="effect1_dropShadow" result="shape"/>
</filter>
<filter id="filter1_f" x="103.437" y="294.677" width="104.578" height="86.3828" filterUnits="userSpaceOnUse" color-interpolation-filters="sRGB">
<feFlood flood-opacity="0" result="BackgroundImageFix"/>
<feBlend mode="normal" in="SourceGraphic" in2="BackgroundImageFix" result="shape"/>
<feGaussianBlur stdDeviation="11.1979" result="effect1_foregroundBlur"/>
</filter>
</defs>
</svg>
