<svg width="304" height="280" fill="none" xmlns="http://www.w3.org/2000/svg">
  <path d="M211.753 131.576l-147.075 85.05 68.773 39.828.52 4.348 7.969 6.262s3.811 2.087 8.661-.87l147.249-84.875-86.097-49.743z" fill="#EDEFF0"/>
  <g filter="url(#Mobile_scan__filter0_f)">
    <path d="M212.753 138.794L62.56 225.409c-.867.521-.867 1.565 0 2.087l80.38 46.785s3.305 2.719 8.661-.869l147.248-84.875-86.096-49.743z" fill="#EDEFF0"/>
  </g>
  <path d="M133.451 256.28l3.794 2.72 8 5s1.5 1 5.356 2.194l142.571-82.44-81.419-47.134-142.571 82.44 64.269 37.22z" fill="#fff"/>
  <g filter="url(#Mobile_scan__filter1_d)">
    <path fill-rule="evenodd" clip-rule="evenodd" d="M132.932 256.628l-69.64-40.002 148.461-85.745.346.174 86.963 50.438-148.114 85.571-.866.622-17.15-11.058zm163.358-75.309l-146.208 84.353-15.938-9.566-68.08-39.48 145.689-84.354 84.537 49.047z" fill="#31388B"/>
  </g>
  <path d="M256.273 200.451l-.346.174c-1.039.521-2.772.521-3.984-.174l-57.86-33.568c-1.213-.696-1.213-1.739-.347-2.261l.347-.174c1.039-.522 2.772-.522 3.984.174l57.86 33.568c1.213.521 1.213 1.565.346 2.261z" fill="#EDEFF0"/>
  <path d="M254.195 199.407c-.866 0-1.733-.174-2.599-.696l-57.86-33.567c-.866-.522-1.212-1.218-1.212-1.913 0-.696.346-1.218 1.039-1.566l.347-.174c1.212-.695 3.291-.695 4.677.174l57.687 33.742c.866.522 1.212 1.217 1.212 1.913s-.346 1.217-1.039 1.565l-.347.174c-.346.174-1.039.348-1.905.348zm-58.38-36.872c-.52 0-1.039.174-1.386.348l-.346.174c-.173 0-.347.174-.347.348s.174.347.693.695l57.86 33.568c.866.522 2.425.695 3.292.174l.346-.174c.173 0 .347-.174.347-.348s-.174-.348-.693-.696l-57.86-33.741c-.52-.174-1.213-.348-1.906-.348z" fill="#31388B"/>
  <path d="M263.896 195.929l-.347.173c-1.039.522-2.771.522-3.984-.173l-57.86-33.568c-1.212-.696-1.212-1.739-.346-2.261l.346-.174c1.04-.522 2.772-.522 3.985.174l57.859 33.567c1.213.696 1.386 1.74.347 2.262z" fill="#EDEFF0"/>
  <path d="M261.817 195.059c-.866 0-1.732-.174-2.598-.696l-57.86-33.567c-.866-.522-1.213-1.218-1.213-1.913 0-.696.346-1.218 1.039-1.566l.347-.174c1.213-.695 3.291-.695 4.677.174l57.86 33.568c.866.521 1.213 1.217 1.213 1.913s-.347 1.217-1.04 1.565l-.346.174c-.52.348-1.213.522-2.079.522zm-58.38-37.046c-.519 0-1.039.174-1.385.348l-.347.174c-.173 0-.346.174-.346.348 0 .173.173.347.693.695l57.859 33.568c.867.522 2.426.695 3.292.174l.346-.174c.174 0 .347-.174.347-.348s-.173-.348-.693-.696l-57.86-33.567c-.52-.348-1.213-.522-1.906-.522z" fill="#31388B"/>
  <path d="M271.518 191.581l-.346.173c-1.04.522-2.772.522-3.985-.173l-57.86-33.568c-1.212-.696-1.212-1.739-.346-2.261l.346-.174c1.04-.522 2.772-.522 3.985.174l57.86 33.567c1.212.522 1.385 1.566.346 2.262z" fill="#EDEFF0"/>
  <path d="M269.439 190.537c-.866 0-1.732-.174-2.598-.696l-57.86-33.567c-.866-.522-1.213-1.218-1.213-1.913 0-.696.347-1.218 1.04-1.566l.346-.174c1.213-.695 3.292-.695 4.677.174l57.86 33.568c.866.522 1.213 1.217 1.213 1.913s-.347 1.217-1.039 1.565l-.347.174c-.52.348-1.213.522-2.079.522zm-58.379-36.872c-.52 0-1.04.174-1.386.348h-.173c-.174 0-.347.174-.347.348s.173.347.693.695l57.86 33.742c.866.521 2.425.695 3.291.174l.347-.174c.173 0 .346-.174.346-.348s-.173-.348-.693-.696l-58.033-33.741c-.519-.174-1.212-.348-1.905-.348z" fill="#31388B"/>
  <path d="M191.313 220.974l-.347.174c-1.039.521-2.772.521-3.984-.174l-55.435-32.176c-1.212-.696-1.212-1.74-.346-2.261l.346-.174c1.04-.522 2.772-.522 3.985.174l55.434 32.176c1.213.695 1.386 1.739.347 2.261z" fill="#EDEFF0"/>
  <path d="M189.406 220.104c-.867 0-1.733-.174-2.599-.696l-55.261-32.002c-.866-.522-1.213-1.217-1.213-1.913s.347-1.217 1.039-1.565l.347-.174c1.213-.696 3.291-.696 4.677.174l55.435 32.176c.866.522 1.212 1.217 1.212 1.913s-.346 1.217-1.039 1.565l-.346.174c-.693.174-1.56.348-2.252.348zm-55.955-35.481c-.519 0-1.039.174-1.386.348l-.346.174c-.173 0-.347.174-.347.348s.174.348.693.696l55.435 32.176c.866.522 2.425.695 3.291.174l.347-.174c.173 0 .346-.174.346-.348s-.173-.348-.693-.696l-55.434-32.176c-.52-.348-1.213-.522-1.906-.522z" fill="#31388B"/>
  <path d="M198.933 216.626l-.346.174c-1.039.521-2.772.521-3.984-.174l-55.435-32.176c-1.213-.696-1.213-1.74-.346-2.261l.346-.174c1.039-.522 2.772-.522 3.984.174l55.435 32.176c1.386.695 1.386 1.739.346 2.261z" fill="#EDEFF0"/>
  <path d="M197.028 215.756c-.866 0-1.732-.174-2.599-.696l-55.434-32.176c-.866-.522-1.213-1.217-1.213-1.913s.347-1.217 1.04-1.565l.346-.174c1.213-.696 3.291-.696 4.677.174l55.435 32.176c.866.522 1.213 1.217 1.213 1.913s-.347 1.217-1.04 1.565l-.346.174c-.52.348-1.386.522-2.079.522zm-55.954-35.481c-.52 0-1.04.174-1.386.348l-.347.174c-.173 0-.346.174-.346.348s.173.348.693.696l55.434 32.176c.867.522 2.426.695 3.292.174l.346-.174c.173 0 .347-.174.347-.348s-.174-.348-.693-.696l-55.435-32.176c-.52-.522-1.212-.522-1.905-.522z" fill="#31388B"/>
  <path d="M221.107 220.452l-.346.174c-1.04.522-2.772.522-3.985-.174l-69.639-40.351c-1.213-.695-1.213-1.739-.347-2.261l.347-.174c1.039-.521 2.771-.521 3.984.174l69.813 40.525c1.039.522 1.039 1.565.173 2.087z" fill="#EDEFF0"/>
  <path d="M219.028 219.582c-.866 0-1.732-.174-2.598-.695l-69.64-40.351c-.866-.522-1.386-1.217-1.386-1.913s.347-1.218 1.04-1.565l.346-.174c1.213-.696 3.292-.696 4.677.174l69.813 40.524c.867.522 1.213 1.218 1.213 1.913 0 .696-.346 1.218-1.039 1.566l-.347.173a6.434 6.434 0 01-2.079.348zm-70.332-43.829c-.52 0-1.04.174-1.386.348l-.173.174c-.174 0-.347.174-.347.348s.173.348.693.696l69.813 40.524c.866.522 2.425.696 3.291.174l.347-.174c.173 0 .346-.174.346-.348s-.173-.348-.693-.695l-69.986-40.525c-.519-.348-1.212-.522-1.905-.522z" fill="#31388B"/>
  <path d="M183.689 225.496l-.173.174c-1.04.521-2.772.521-3.985-.174l-55.434-32.176c-1.213-.696-1.213-1.74-.347-2.261l.347-.174c1.039-.522 2.771-.522 3.984.174l55.435 32.176c1.039.695 1.212 1.739.173 2.261z" fill="#EDEFF0"/>
  <path d="M181.783 224.452c-.866 0-1.732-.174-2.598-.696L123.75 191.58c-.866-.521-1.212-1.217-1.212-1.913 0-.695.346-1.217 1.039-1.565l.346-.174c1.213-.696 3.292-.696 4.678.174l55.434 32.176c.867.522 1.213 1.217 1.213 1.913s-.346 1.218-1.039 1.565l-.347.174c-.693.522-1.386.522-2.079.522zm-55.954-35.307c-.52 0-1.039.174-1.386.348l-.346.174c-.174 0-.347.174-.347.348s.173.348.693.696l55.435 32.176c.866.522 2.425.696 3.291.174l.347-.174c.173 0 .346-.174.346-.348s-.173-.348-.693-.696l-55.434-32.176c-.52-.522-1.213-.522-1.906-.522z" fill="#31388B"/>
  <path d="M178.492 237.149c-4.331 0-8.489-.87-11.78-2.783-3.291-1.913-5.024-4.522-5.024-7.131 0-2.783 1.733-5.218 5.024-7.131 6.41-3.826 16.977-3.826 23.386 0 3.292 1.913 5.024 4.522 5.024 7.131 0 2.783-1.732 5.218-5.024 7.131-3.118 1.739-7.275 2.783-11.606 2.783zm0-18.784c-3.985 0-7.969.87-11.087 2.609-2.772 1.565-4.331 3.826-4.331 6.087 0 2.261 1.559 4.348 4.331 6.087 6.063 3.479 15.937 3.479 22.001 0 2.771-1.565 4.33-3.826 4.33-6.087 0-2.261-1.559-4.348-4.33-6.087-2.945-1.566-6.93-2.609-10.914-2.609z" fill="#31388B"/>
  <path d="M178.492 234.714c-3.292 0-6.41-.696-8.835-2.087-2.425-1.392-3.811-3.479-3.811-5.566 0-2.087 1.386-4.174 3.811-5.565 4.85-2.783 12.819-2.783 17.843 0 2.425 1.391 3.811 3.478 3.811 5.565s-1.386 4.174-3.811 5.566c-2.599 1.391-5.717 2.087-9.008 2.087zm0-13.914c-2.945 0-5.89.696-8.142 1.913-2.079 1.217-3.118 2.783-3.118 4.348s1.212 3.131 3.118 4.348c4.504 2.609 11.953 2.609 16.457 0 2.079-1.217 3.118-2.783 3.118-4.348s-1.213-3.131-3.118-4.348c-2.252-1.217-5.37-1.913-8.315-1.913zm-63.951-26.455l-.693 1.205 25.203 14.61.693-1.205-25.203-14.61zm-3.024 1.662l-.693 1.205 25.204 14.609.693-1.205-25.204-14.609zm31.731 14.902l-.693 1.205 2.85 1.653.693-1.205-2.85-1.653zm-3.113 1.813l-.692 1.205 2.85 1.652.693-1.205-2.851-1.652z" fill="#31388B"/>
  <path d="M297.745 181.5l-146.5 85-87-50.5 46.5-135.5 69.5-41.5 39.5 23 78 119.5z" fill="#C8193C" fill-opacity=".1"/>
  <path d="M297.745 181.5l-146.5 85-87-50.5 46.5-135.5 69.5-41.5 39.5 23 78 119.5z" fill="#fff" fill-opacity=".32" style="mix-blend-mode:overlay"/>
  <path d="M297.745 181.5l-146.5 85m146.5-85l-78-119.5m78 119.5l-85.5-50m-61 135l-87-50.5m87 50.5l-3-161m-84 110.5l46.5-135.5M64.245 216l148-84.5m7.5-69.5l-71.5 43.5m71.5-43.5l-39.5-23m-32 66.5l-37.5-25m0 0l69.5-41.5m0 0l32 92.5" stroke="#C8193C" stroke-width=".25" stroke-miterlimit="11.474" stroke-linejoin="round" stroke-dasharray="1 1"/>
  <g clip-path="url(#Mobile_scan__clip0)" filter="url(#Mobile_scan__filter2_d)">
    <path d="M290.128 51.316l-.321-.322L209.262 4.25c-5.135-2.57-11.071-2.41-16.045.482L12.07 109.305c-.321.161-.642.322-.803.643-6.257 4.819-5.294 14.939 1.765 19.116h.16l.161.16L93.9 175.97c4.974 2.57 10.91 2.248 15.724-.482L290.128 71.234c.321-.16.642-.481.963-.642 6.899-4.659 6.418-15.1-.963-19.276z" fill="#fff"/>
    <path d="M290.449 50.834l-.161.32.161-.32c-.161-.161-.161-.161-.321-.161L209.583 3.767c-5.295-2.57-11.392-2.41-16.366.482L11.909 108.823c-.32.322-.642.482-.962.804-2.889 2.248-4.493 5.943-4.333 9.798.321 4.177 2.568 7.872 6.097 9.799l.16.161s.161 0 .161.161l80.546 46.745c2.407 1.124 4.974 1.767 7.541 1.767 2.888 0 5.937-.803 8.504-2.249L290.128 71.556c.321-.161.642-.482.963-.643 3.369-2.249 5.134-5.943 5.134-9.96 0-4.176-2.246-8.031-5.776-10.12zm-278.86 59.435c.32-.321.48-.482.802-.642L193.538 5.052c2.567-1.446 5.455-2.249 8.183-2.249 1.444 0 3.048.16 4.492.643-3.369-.482-6.739 0-8.504 1.445l-89.37 149.071s2.407 10.281.482 15.1c-1.926 4.819-6.739 5.622-6.9 5.783-2.727.161-5.616-.482-8.183-1.767l-80.545-46.585c-.16 0-.16-.16-.16-.16h-.161c-2.728-1.607-4.493-4.016-5.295-6.747v-.161c-.32-3.694 1.123-7.068 4.011-9.156z" fill="#31388B"/>
    <path d="M11.91 110.751L193.858 5.855c4.973-2.891 10.91-3.052 16.044-.482l80.546 46.746c4.172 3.052 4.974 9.156.321 11.726L109.623 168.58c-4.814 2.892-10.75 3.052-15.724.482l-80.546-46.745c-5.776-3.534-5.455-8.835-1.444-11.566z" fill="#EDEFF0" stroke="#31388B" stroke-width=".492" stroke-miterlimit="10"/>
    <path d="M101.44 169.544c-2.567 0-5.135-.643-7.541-1.767l-80.546-46.745c-2.888-1.767-4.492-4.016-4.492-6.426 0-2.088 1.123-4.176 3.209-5.622L193.217 4.57c4.974-2.891 11.071-3.052 16.205-.482l80.546 46.746c2.406 1.767 3.69 4.497 3.529 7.068-.16 2.248-1.283 4.015-3.209 5.14L109.944 167.295c-2.728 1.446-5.616 2.249-8.504 2.249zm-89.21-60.078c-1.925 1.285-3.048 3.213-2.888 5.14 0 2.249 1.605 4.498 4.332 6.104l80.546 46.746c4.974 2.409 10.75 2.249 15.563-.482L290.288 62.721c1.765-1.125 2.889-2.731 3.049-4.82.16-2.409-1.123-4.98-3.369-6.586L209.262 4.41c-4.974-2.57-10.911-2.41-15.724.481L12.23 109.466z" fill="#31388B"/>
    <path d="M278.576 56.295l-77.979-44.978c-3.53-1.767-7.701-1.606-11.231.321L17.364 111.072c-2.888 1.928-3.209 5.783.963 8.193l77.978 44.978c3.53 1.767 7.702 1.606 11.071-.321l171.521-99.274c3.208-1.927 3.048-6.586-.321-8.353z" fill="#C8193C"/>
    <path d="M278.576 56.295l-77.979-44.978c-3.53-1.767-7.701-1.606-11.231.321L17.364 111.072c-2.888 1.928-3.209 5.783.963 8.193l77.978 44.978c3.53 1.767 7.702 1.606 11.071-.321l171.521-99.274c3.208-1.927 3.048-6.586-.321-8.353z" fill="#fff" fill-opacity=".32" style="mix-blend-mode:overlay"/>
    <path d="M242.635 96.294c0-.964.481-1.928 1.284-2.25l6.899-4.015c.321-.16.642-.16.802 0l-1.123-.803h-.16c-.321-.16-.482-.16-.963 0l-6.899 4.016c-.642.32-1.123 1.445-1.123 2.248 0 .482 0 .643.32.804l1.284.963c-.16-.16-.321-.481-.321-.963z" fill="#C8193C"/>
    <path d="M242.635 96.294c0-.964.481-1.928 1.284-2.25l6.899-4.015c.321-.16.642-.16.802 0l-1.123-.803h-.16c-.321-.16-.482-.16-.963 0l-6.899 4.016c-.642.32-1.123 1.445-1.123 2.248 0 .482 0 .643.32.804l1.284.963c-.16-.16-.321-.481-.321-.963z" fill="#fff" fill-opacity=".32" style="mix-blend-mode:overlay"/>
    <path d="M242.796 97.418l-1.445-.964c-.32-.32-.32-.642-.32-.963 0-.964.641-2.089 1.283-2.41l6.899-4.016c.482-.321.963-.16 1.124 0l1.283.803-.321.322c-.16-.161-.481 0-.641 0l-6.9 4.016c-.642.32-1.123 1.285-1.123 2.088 0 .321.161.642.321.803l-.16.321zm7.059-8.353c-.16 0-.16 0-.321.16l-6.899 4.017c-.642.32-1.123 1.285-1.123 2.088 0 .321 0 .642.16.642l.642.482v-.32c0-.965.642-2.09 1.284-2.41l6.899-4.016s.161 0 .161-.161l-.642-.482c0 .16 0 0-.161 0z" fill="#31388B"/>
    <path d="M250.658 93.242l-6.9 4.016c-.642.32-1.283 0-1.283-.964s.481-1.928 1.283-2.25l6.9-4.015c.641-.321 1.283 0 1.283.964 0 .803-.642 1.767-1.283 2.249z" fill="#fff"/>
    <path d="M243.277 97.579c-.161 0-.321 0-.481-.16-.321-.161-.482-.643-.482-1.125 0-.964.642-2.088 1.284-2.41l6.899-4.016c.321-.16.642-.16.963 0 .321.16.481.643.481 1.125 0 .964-.642 2.088-1.283 2.41l-6.9 4.015s-.16.16-.481.16zm7.862-7.55c-.161 0-.321 0-.321.16l-6.899 4.017c-.642.32-1.123 1.285-1.123 2.088 0 .321.16.642.32.803.161.16.482 0 .642 0l6.9-4.016c.641-.321 1.123-1.285 1.123-2.088a1.23 1.23 0 00-.321-.803c-.161-.161-.161-.161-.321-.161z" fill="#31388B"/>
    <path d="M232.527 26.256c-.642-.321-.482-.803 0-1.285.642-.321 1.444-.321 2.086-.16h.16c.481.32.481.803-.16 1.124-.642.482-1.444.643-2.086.321z" fill="#C8193C"/>
    <path d="M232.527 26.256c-.642-.321-.482-.803 0-1.285.642-.321 1.444-.321 2.086-.16h.16c.481.32.481.803-.16 1.124-.642.482-1.444.643-2.086.321z" fill="#fff" fill-opacity=".32" style="mix-blend-mode:overlay"/>
    <path d="M253.385 38.143l-17.97-10.28c-.482-.322-.481-.804.16-1.125.642-.321 1.444-.321 2.086-.16l17.97 10.28c.482.322.482.803-.16 1.125-.642.482-1.605.482-2.086.16z" fill="#C8193C"/>
    <path d="M253.385 38.143l-17.97-10.28c-.482-.322-.481-.804.16-1.125.642-.321 1.444-.321 2.086-.16l17.97 10.28c.482.322.482.803-.16 1.125-.642.482-1.605.482-2.086.16z" fill="#fff" fill-opacity=".32" style="mix-blend-mode:overlay"/>
    <path d="M233.489 25.774c-.32 0-.802 0-.962-.16h-.161a.883.883 0 01-.481-.804c0-.32.16-.642.642-.803.642-.321 1.604-.482 2.246-.16h.16c.321.16.482.481.482.642 0 .321-.161.643-.642.803-.481.322-.802.482-1.284.482zm.321-1.767c-.321 0-.802.16-.962.321-.161.161-.321.322-.321.482 0 .161.16.161.16.322h.161c.481.321 1.283.16 1.765-.16.16-.162.32-.322.32-.483 0-.16-.16-.16-.16-.321h-.16c-.321 0-.482-.16-.803-.16zm20.538 13.654c-.321 0-.802 0-.963-.16l-17.97-10.281c-.321-.16-.482-.482-.482-.643 0-.32.161-.642.642-.803.642-.321 1.605-.482 2.247-.16l17.97 10.28c.321.161.481.482.481.643 0 .321-.16.642-.642.803-.481.321-.962.321-1.283.321zm-17.489-11.887c-.321 0-.802.16-.963.322-.16.16-.321.32-.321.481 0 .161.161.161.161.322l17.97 10.28c.481.322 1.284.161 1.765-.16.16-.16.321-.322.321-.482 0-.16-.161-.16-.161-.321l-18.13-10.281c-.161 0-.482-.16-.642-.16z" fill="#31388B"/>
    <path d="M90.85 142.557l-38.989-22.489c-4.813-2.731-4.172-7.711 1.284-10.923 5.615-3.213 14.12-3.534 18.933-.804l38.989 22.49c4.813 2.73 4.171 7.71-1.284 10.923-5.616 3.213-13.959 3.534-18.933.803z" fill="#fff"/>
    <path d="M99.194 141.433c-3.21 0-6.097-.643-8.344-1.928l-38.989-22.489c-2.246-1.285-3.53-3.052-3.53-5.141 0-2.409 1.765-4.819 4.814-6.586 5.776-3.373 14.44-3.694 19.254-.803l38.989 22.489c2.246 1.285 3.53 3.052 3.53 5.141 0 2.409-1.765 4.819-4.814 6.586-3.209 1.767-7.22 2.731-10.91 2.731zm-8.023-2.731c4.653 2.731 12.996 2.409 18.452-.803 2.888-1.607 4.492-3.695 4.492-5.783 0-1.607-1.123-3.213-3.048-4.338l-38.99-22.489c-4.652-2.73-12.996-2.409-18.451.804-2.888 1.606-4.493 3.694-4.493 5.782 0 1.607 1.124 3.213 3.049 4.338l38.99 22.489z" fill="#31388B"/>
    <path d="M72.238 113.482c-.16-.161-.32-.321-.16-.482.16-.321 0-.803-.482-1.125-.962-.481-2.246-.481-2.888 0-.802.482-.481.964.16 1.607 1.124 1.124 1.605 2.249.161 3.052-1.444.803-3.69.642-5.134-.161-1.284-.803-1.605-1.767-.803-2.57.161-.161.482-.161.803 0l.16.161c.16.16.16.321.16.482-.32.482-.16 1.124.642 1.606.963.643 2.407.643 3.37.161.802-.482.642-.964-.16-1.928-1.124-1.124-1.284-2.088 0-2.731 1.283-.803 3.208-.803 4.653.161.962.642 1.283 1.446.802 2.088-.16.161-.482.161-.803 0l-.48-.321zm4.653 8.192c.321.161.16.322-.32.322-1.766.16-3.691-.161-5.135-.964-2.407-1.446-2.407-3.695 0-5.141 2.246-1.285 6.257-1.285 8.664 0 1.444.803 1.925 1.928 1.765 2.892 0 .321-.32.321-.642.16l-.16-.16c-.16-.161-.321-.161-.321-.321 0-.804-.481-1.446-1.444-2.089-1.925-1.124-5.135-1.124-6.9 0-1.925 1.125-1.925 2.892 0 4.016.963.643 2.247.803 3.53.803.321 0 .482 0 .642.161l.321.321zm-.481 1.928c-.321-.161-.16-.321.16-.482l11.232-2.41c.32 0 .481 0 .641.161l.321.161c.16.16.321.321.16.482l-4.331 6.425c-.16.161-.482.321-.642.161l-.16-.161c-.161-.161-.322-.321-.161-.482l1.765-2.57-3.69-2.088-4.493.964c-.32.16-.481.16-.802-.161zm11.231-2.088l-4.653.963 2.888 1.607 1.765-2.57zm-1.925 7.55c-.321-.161-.321-.322 0-.482l7.701-4.498c.321-.161.482-.161.803 0l.32.16c.161.161.322.161.161.322l-1.925 7.068 6.899-4.016c.32-.161.481-.161.802 0h.161c.321.16.321.321 0 .482l-7.702 4.498c-.32.16-.481.16-.802 0l-.321-.161c-.16-.161-.321-.161-.16-.321l1.925-7.068-6.9 4.016c-.32.16-.641.16-.962 0z" fill="#31388B"/>
    <path d="M72.238 113.482c-.16-.161-.32-.321-.16-.482.16-.321 0-.803-.482-1.125-.962-.481-2.246-.481-2.888 0-.802.482-.481.964.16 1.607 1.124 1.124 1.605 2.249.161 3.052-1.444.803-3.69.642-5.134-.161-1.284-.803-1.605-1.767-.803-2.57.161-.161.482-.161.803 0l.16.161c.16.16.16.321.16.482-.32.482-.16 1.124.642 1.606.963.643 2.407.643 3.37.161.802-.482.642-.964-.16-1.928-1.124-1.124-1.284-2.088 0-2.731 1.283-.803 3.208-.803 4.653.161.962.642 1.283 1.446.802 2.088-.16.161-.482.161-.803 0l-.48-.321zm4.653 8.192c.321.161.16.322-.32.322-1.766.16-3.691-.161-5.135-.964-2.407-1.446-2.407-3.695 0-5.141 2.246-1.285 6.257-1.285 8.664 0 1.444.803 1.925 1.928 1.765 2.892 0 .321-.32.321-.642.16l-.16-.16c-.16-.161-.321-.161-.321-.321 0-.804-.481-1.446-1.444-2.089-1.925-1.124-5.135-1.124-6.9 0-1.925 1.125-1.925 2.892 0 4.016.963.643 2.247.803 3.53.803.321 0 .482 0 .642.161l.321.321zm-.481 1.928c-.321-.161-.16-.321.16-.482l11.232-2.41c.32 0 .481 0 .641.161l.321.161c.16.16.321.321.16.482l-4.331 6.425c-.16.161-.482.321-.642.161l-.16-.161c-.161-.161-.322-.321-.161-.482l1.765-2.57-3.69-2.088-4.493.964c-.32.16-.481.16-.802-.161zm11.231-2.088l-4.653.963 2.888 1.607 1.765-2.57zm-1.925 7.55c-.321-.161-.321-.322 0-.482l7.701-4.498c.321-.161.482-.161.803 0l.32.16c.161.161.322.161.161.322l-1.925 7.068 6.899-4.016c.32-.161.481-.161.802 0h.161c.321.16.321.321 0 .482l-7.702 4.498c-.32.16-.481.16-.802 0l-.321-.161c-.16-.161-.321-.161-.16-.321l1.925-7.068-6.9 4.016c-.32.16-.641.16-.962 0zm60.168-83.531l9.306-5.301c4.974-2.892 13.157-2.892 18.292 0l8.503 4.819 3.209-1.928-8.504-4.82c-6.738-3.854-17.809-3.854-24.709 0l-9.306 5.463 3.209 1.767zm36.743 64.897l-9.306 5.461c-4.974 2.892-13.157 2.892-18.291 0l-8.504-4.819-3.209 1.928 8.504 4.819c6.739 3.855 17.81 3.855 24.709 0l9.306-5.462-3.209-1.927zm37.545-42.89l9.306 5.46c4.974 2.892 4.974 7.711-.16 10.602l-8.504 4.82 3.209 1.927 8.504-4.819c6.899-3.855 6.899-10.28.16-14.297l-9.306-5.461-3.209 1.767zM107.858 88.583l-9.306-5.461c-4.974-2.892-4.974-7.711 0-10.602l8.504-4.82-3.209-1.927-8.504 4.819c-6.74 3.855-6.9 10.28 0 14.297l9.306 5.461 3.209-1.767z" fill="#31388B"/>
    <path d="M143.317 32.2l10.429-6.104c5.616-3.213 14.922-3.213 20.538 0l9.466 5.461 3.691-2.088-9.467-5.462c-7.701-4.498-20.056-4.498-27.758 0l-10.429 6.104 3.53 2.089zm41.556 72.929l-10.429 6.104c-5.616 3.213-14.761 3.373-20.537 0l-9.467-5.462-3.53 2.089 9.467 5.461c7.701 4.337 20.056 4.337 27.758 0l10.429-6.104-3.691-2.088zm42.038-48.031l10.429 6.105c5.616 3.212 5.616 8.674-.16 11.887l-9.467 5.461 3.53 2.089 9.467-5.462c7.701-4.337 7.701-11.566.16-16.064l-10.429-6.104-3.53 2.088zM100.638 80.551l-10.43-6.104c-5.615-3.213-5.615-8.674 0-11.887l9.467-5.462-3.53-2.088-9.466 5.462c-7.702 4.337-7.702 11.566-.16 16.063l10.428 6.105 3.691-2.089z" fill="#fff" stroke="#31388B" stroke-width=".492" stroke-miterlimit="10"/>
    <path d="M180.372 38.583l-69.997 40.316 32.731 18.88.248 2.06 3.792 2.969s1.814.989 4.122-.412l70.079-40.234-40.975-23.58z" fill="#31388B"/>
    <path d="M180.372 41.056l-71.481 41.058c-.412.247-.412.742 0 .99l38.255 22.177s1.814.99 4.123-.412l70.079-40.234-40.976-23.58z" fill="#31388B"/>
    <path d="M143.106 97.696l.248 2.061 3.792 3.051s1.814.989 4.122-.412l67.853-39.08-38.749-22.343-67.853 39.08 30.587 17.643z" fill="#31388B"/>
    <path d="M148.795 103.468c-1.072 0-1.731-.33-1.731-.413l-3.958-3.133-.247-2.06-33.143-18.963 70.656-40.646.165.082 41.388 23.91-70.492 40.563c-.989.495-1.978.66-2.638.66zm-5.112-3.793l3.628 2.886s1.649.824 3.71-.413l69.585-39.986-40.234-23.25L111.035 78.9l32.401 18.715.247 2.061z" fill="#31388B"/>
    <path d="M201.56 71.231l-.165.083c-.494.247-1.319.247-1.896-.083L171.962 55.32c-.577-.33-.577-.824-.165-1.072l.165-.082c.495-.248 1.319-.248 1.896.082l27.537 15.912c.578.248.578.742.165 1.072z" fill="#31388B"/>
    <path d="M200.571 70.737c-.412 0-.825-.083-1.237-.33l-27.537-15.912c-.412-.248-.577-.578-.577-.907 0-.33.165-.577.495-.742l.165-.083c.577-.33 1.566-.33 2.226.083L201.56 68.84c.413.248.577.577.577.907 0 .33-.164.577-.494.742l-.165.083c-.165.082-.495.165-.907.165zm-27.784-17.479c-.248 0-.495.082-.66.165l-.165.082c-.082 0-.165.083-.165.165 0 .083.083.165.33.33l27.537 15.912c.412.247 1.154.33 1.567.082l.164-.082a.177.177 0 00.165-.165c0-.082-.082-.165-.329-.33l-27.537-15.994a2.974 2.974 0 00-.907-.165zm32.401 15.83l-.165.082c-.494.247-1.319.247-1.896-.082L175.59 53.176c-.577-.33-.577-.825-.165-1.072l.165-.083c.495-.247 1.319-.247 1.896.083l27.537 15.912c.577.33.66.824.165 1.072z" fill="#31388B"/>
    <path d="M204.198 68.675c-.412 0-.824-.082-1.236-.33l-27.537-15.911c-.412-.248-.577-.578-.577-.907 0-.33.165-.578.494-.742l.165-.083c.577-.33 1.567-.33 2.226.083l27.537 15.912c.412.247.577.577.577.906 0 .33-.165.578-.494.743l-.165.082c-.248.165-.577.247-.99.247zm-27.784-17.56a1.55 1.55 0 00-.659.164l-.165.083a.177.177 0 00-.165.165c0 .082.082.164.33.33l27.536 15.911c.413.248 1.155.33 1.567.083l.165-.083c.082 0 .165-.082.165-.165 0-.082-.083-.164-.33-.33l-27.537-15.911c-.247-.165-.577-.248-.907-.248zm32.402 15.911l-.165.083c-.495.247-1.32.247-1.897-.083l-27.537-15.912c-.577-.33-.577-.824-.164-1.071l.164-.083c.495-.247 1.32-.247 1.897.083l27.537 15.912c.577.247.659.742.165 1.071z" fill="#31388B"/>
    <path d="M207.827 66.532c-.413 0-.825-.083-1.237-.33L179.053 50.29c-.412-.247-.577-.577-.577-.907 0-.33.165-.577.495-.742l.164-.082c.578-.33 1.567-.33 2.226.082l27.537 15.912c.413.247.578.577.578.907 0 .33-.165.577-.495.742l-.165.082c-.247.165-.577.248-.989.248zm-27.785-17.479c-.247 0-.494.083-.659.165h-.083c-.082 0-.165.083-.165.165s.083.165.33.33l27.537 15.994c.412.248 1.154.33 1.567.083l.165-.083c.082 0 .164-.082.164-.165 0-.082-.082-.165-.329-.33l-27.62-15.994a2.963 2.963 0 00-.907-.165zm-9.399 31.907l-.165.082c-.494.248-1.319.248-1.896-.082l-26.383-15.253c-.577-.33-.577-.824-.165-1.072l.165-.082c.495-.247 1.319-.247 1.897.082l26.382 15.253c.577.33.66.824.165 1.072z" fill="#31388B"/>
    <path d="M169.736 80.548a2.33 2.33 0 01-1.237-.33l-26.3-15.17c-.412-.248-.577-.577-.577-.907 0-.33.165-.577.495-.742l.165-.083c.577-.33 1.566-.33 2.226.083L170.89 78.65c.413.248.578.577.578.907 0 .33-.165.577-.495.742l-.165.083c-.33.082-.742.165-1.072.165zm-26.63-16.82a1.54 1.54 0 00-.659.166l-.165.082a.177.177 0 00-.165.165c0 .082.082.165.33.33l26.382 15.252c.413.247 1.155.33 1.567.083l.165-.083c.082 0 .165-.082.165-.165 0-.082-.083-.165-.33-.33l-26.383-15.252c-.247-.165-.577-.247-.907-.247zm31.165 15.171l-.165.082c-.495.248-1.319.248-1.897-.082l-26.382-15.253c-.577-.33-.577-.824-.165-1.072l.165-.082c.494-.247 1.319-.247 1.896.082l26.383 15.253c.659.33.659.824.165 1.072z" fill="#31388B"/>
    <path d="M173.364 78.487c-.412 0-.825-.083-1.237-.33l-26.383-15.253c-.412-.247-.577-.577-.577-.907 0-.33.165-.577.495-.742l.165-.082c.577-.33 1.566-.33 2.226.082l26.383 15.253c.412.247.577.577.577.907 0 .33-.165.577-.495.742l-.165.082c-.247.165-.659.248-.989.248zm-26.63-16.82a1.56 1.56 0 00-.66.165l-.165.083c-.082 0-.165.082-.165.165 0 .082.083.165.33.33l26.383 15.252c.412.247 1.154.33 1.566.082l.165-.082a.177.177 0 00.165-.165c0-.082-.082-.165-.33-.33l-26.382-15.252c-.248-.248-.577-.248-.907-.248zm38.09 19.046l-.165.082c-.495.247-1.319.247-1.896-.082l-33.144-19.128c-.577-.33-.577-.824-.165-1.072l.165-.082c.495-.247 1.319-.247 1.897.082l33.225 19.21c.495.248.495.742.083.99z" fill="#31388B"/>
    <path d="M183.835 80.3a2.32 2.32 0 01-1.237-.33l-33.143-19.127c-.413-.247-.66-.577-.66-.907 0-.33.165-.577.495-.742l.165-.082c.577-.33 1.566-.33 2.226.082l33.225 19.21c.413.247.578.577.578.907 0 .33-.165.577-.495.742l-.165.082a3.073 3.073 0 01-.989.165zm-33.473-20.776c-.248 0-.495.082-.66.165l-.082.082a.177.177 0 00-.165.165c0 .083.082.165.33.33l33.225 19.21c.412.247 1.154.33 1.567.082l.165-.082c.082 0 .164-.083.164-.165 0-.083-.082-.165-.329-.33l-33.308-19.21c-.248-.165-.578-.247-.907-.247zm16.654 23.579l-.083.083c-.494.247-1.319.247-1.896-.083l-26.383-15.252c-.577-.33-.577-.825-.164-1.072l.164-.082c.495-.248 1.32-.248 1.897.082l26.382 15.252c.495.33.577.825.083 1.072z" fill="#31388B"/>
    <path d="M166.109 82.609c-.413 0-.825-.083-1.237-.33l-26.383-15.253c-.412-.247-.577-.577-.577-.906 0-.33.165-.578.495-.743l.165-.082c.577-.33 1.566-.33 2.226.082L167.18 80.63c.413.247.577.577.577.907 0 .33-.164.577-.494.742l-.165.082c-.33.248-.66.248-.989.248zm-26.631-16.737c-.247 0-.494.083-.659.165l-.165.082c-.082 0-.165.083-.165.165 0 .083.083.165.33.33l26.383 15.253c.412.247 1.154.33 1.566.082l.165-.082c.082 0 .165-.083.165-.165 0-.083-.083-.165-.33-.33L140.385 66.12c-.247-.248-.577-.248-.907-.248z" fill="#31388B"/>
    <path d="M164.542 88.627c-2.061 0-4.04-.412-5.606-1.319-1.567-.907-2.391-2.143-2.391-3.38 0-1.32.824-2.474 2.391-3.38 3.05-1.814 8.08-1.814 11.13 0 1.567.906 2.391 2.143 2.391 3.38 0 1.319-.824 2.473-2.391 3.38-1.484.825-3.463 1.32-5.524 1.32zm0-8.904c-1.896 0-3.792.412-5.276 1.237-1.319.742-2.061 1.814-2.061 2.886 0 1.071.742 2.06 2.061 2.885 2.885 1.649 7.585 1.649 10.47 0 1.32-.742 2.062-1.814 2.062-2.885 0-1.072-.742-2.062-2.062-2.886-1.401-.742-3.297-1.237-5.194-1.237z" fill="#31388B"/>
    <path d="M164.542 87.473c-1.566 0-3.05-.33-4.205-.99-1.154-.659-1.814-1.648-1.814-2.638 0-.989.66-1.978 1.814-2.638 2.309-1.319 6.101-1.319 8.492 0 1.154.66 1.814 1.649 1.814 2.638 0 .99-.66 1.98-1.814 2.639-1.236.66-2.72.989-4.287.989zm0-6.596c-1.402 0-2.803.33-3.875.907-.989.577-1.484 1.32-1.484 2.061 0 .742.577 1.484 1.484 2.061 2.144 1.237 5.689 1.237 7.832 0 .99-.577 1.484-1.319 1.484-2.06 0-.743-.577-1.485-1.484-2.062-1.071-.577-2.555-.907-3.957-.907zm-30.436-12.54l-.33.571 11.995 6.926.33-.572-11.995-6.925zm-1.439.788l-.33.57 11.995 6.926.33-.57-11.995-6.926zm15.101 7.064l-.33.571 1.357.783.33-.57-1.357-.784zm-1.481.859l-.329.572 1.356.783.33-.572-1.357-.783zm-3.923 29.14c.247.165.247.33 0 .495a.893.893 0 01-.907 0c-.247-.165-.247-.33 0-.495.33-.082.66-.082.907 0zm2.309-1.319c.247.165.247.33 0 .495a.893.893 0 01-.907 0c-.247-.165-.247-.33 0-.495.247-.082.66-.082.907 0zm2.308-1.319c.248.165.248.33 0 .495a.891.891 0 01-.906 0c-.248-.165-.248-.33 0-.495a1.7 1.7 0 01.906 0zm2.226-1.319c.248.165.248.33 0 .495-.247.164-.659.164-.907 0-.247-.165-.247-.33 0-.495.248-.083.66-.083.907 0zm2.309-1.237c.247.165.247.33 0 .495a.893.893 0 01-.907 0c-.247-.165-.247-.33 0-.495a.893.893 0 01.907 0zm2.226-1.319c.247.165.247.33 0 .495-.248.165-.66.165-.907 0s-.247-.33 0-.495c.33-.165.659-.165.907 0zm2.308-1.319c.248.165.248.33 0 .495-.247.165-.659.165-.907 0-.247-.165-.247-.33 0-.495.248-.165.66-.165.907 0zm2.227-1.319c.247.165.247.33 0 .494-.248.165-.66.165-.907 0-.248-.165-.248-.33 0-.494.329-.165.742-.165.907 0zm2.308-1.319c.247.165.247.33 0 .494a.893.893 0 01-.907 0c-.247-.165-.247-.33 0-.494a.893.893 0 01.907 0zm2.308-1.319c.248.165.248.33 0 .494-.247.165-.659.165-.907 0-.247-.165-.247-.33 0-.494.248-.165.66-.165.907 0zm2.226-1.319c.247.164.247.33 0 .494-.247.165-.659.165-.907 0-.247-.165-.247-.33 0-.495.33-.164.66-.164.907 0zm2.309-1.32c.247.165.247.33 0 .495-.248.165-.66.165-.907 0-.248-.165-.248-.33 0-.495.247-.165.659-.165.907 0zm2.226-1.319c.247.165.247.33 0 .495a.893.893 0 01-.907 0c-.247-.165-.247-.33 0-.495.33-.165.66-.165.907 0zm2.309-1.319c.247.165.247.33 0 .495-.248.165-.66.165-.907 0s-.247-.33 0-.495c.247-.082.659-.082.907 0zm-31.825 15.747c.247.165.247.33 0 .495-.247.165-.659.165-.907 0-.247-.165-.247-.33 0-.495.248-.082.66-.082.907 0zm2.226-1.319c.247.165.247.33 0 .495a.893.893 0 01-.907 0c-.247-.165-.247-.33 0-.495.33-.082.66-.082.907 0zm1.897-.659c.318 0 .577-.148.577-.33 0-.182-.259-.33-.577-.33-.319 0-.577.148-.577.33 0 .182.258.33.577.33zm2.225-1.32c.319 0 .577-.147.577-.329 0-.183-.258-.33-.577-.33-.318 0-.577.147-.577.33 0 .182.259.329.577.329zm2.309-1.319c.319 0 .577-.147.577-.33 0-.182-.258-.33-.577-.33-.319 0-.577.148-.577.33 0 .183.258.33.577.33zm2.721-1.896c.247.165.247.33 0 .495a.893.893 0 01-.907 0c-.247-.165-.247-.33 0-.495a.893.893 0 01.907 0zm2.226-1.319c.247.165.247.33 0 .494-.248.165-.66.165-.907 0s-.247-.33 0-.494c.33-.165.659-.165.907 0zm2.308-1.319c.248.165.248.33 0 .494-.247.165-.659.165-.907 0-.247-.165-.247-.33 0-.494.248-.165.66-.165.907 0zm2.227-1.319c.247.165.247.33 0 .494-.248.165-.66.165-.907 0-.248-.165-.248-.33 0-.494.329-.165.742-.165.907 0zm2.308-1.319c.247.164.247.33 0 .494a.894.894 0 01-.907 0c-.247-.165-.247-.33 0-.495a.893.893 0 01.907 0zm2.308-1.32c.248.165.248.33 0 .495-.247.165-.659.165-.907 0-.247-.165-.247-.33 0-.495.248-.165.66-.165.907 0zm2.226-1.319c.247.165.247.33 0 .495-.247.165-.659.165-.907 0-.247-.165-.247-.33 0-.495.33-.165.66-.165.907 0zm2.309-1.319c.247.165.247.33 0 .495-.248.165-.66.165-.907 0-.248-.165-.248-.33 0-.495.247-.082.659-.082.907 0zm1.814-.742c.318 0 .577-.148.577-.33 0-.182-.259-.33-.577-.33-.319 0-.577.148-.577.33 0 .182.258.33.577.33zm-31.412 15.17c.247.165.247.33 0 .495-.248.165-.66.165-.907 0-.248-.165-.248-.33 0-.495.329-.082.659-.082.907 0zm1.896-.659c.319 0 .577-.148.577-.33 0-.182-.258-.33-.577-.33-.319 0-.577.148-.577.33 0 .182.258.33.577.33zm2.638-1.897c.247.165.247.33 0 .495a.893.893 0 01-.907 0c-.247-.165-.247-.33 0-.495.33-.165.66-.165.907 0zm2.309-1.319c.247.165.247.33 0 .495a.893.893 0 01-.907 0c-.247-.165-.247-.33 0-.495a.893.893 0 01.907 0zm2.308-1.319c.248.165.248.33 0 .495a.891.891 0 01-.906 0c-.248-.165-.248-.33 0-.495a.891.891 0 01.906 0zm1.814-.742c.319 0 .577-.148.577-.33 0-.182-.258-.33-.577-.33-.319 0-.577.148-.577.33 0 .182.258.33.577.33zm2.721-1.896c.247.165.247.33 0 .494a.893.893 0 01-.907 0c-.247-.165-.247-.33 0-.494a.893.893 0 01.907 0zm2.226-1.319c.247.165.247.33 0 .494-.248.165-.66.165-.907 0s-.247-.33 0-.494c.33-.165.659-.165.907 0zm2.308-1.319c.248.164.248.33 0 .494-.247.165-.659.165-.907 0-.247-.165-.247-.33 0-.495.248-.164.66-.164.907 0zm2.227-1.32c.247.165.247.33 0 .495-.248.165-.66.165-.907 0-.248-.165-.248-.33 0-.495.329-.165.742-.165.907 0zm2.308-1.319c.247.165.247.33 0 .495a.893.893 0 01-.907 0c-.247-.165-.247-.33 0-.495a.893.893 0 01.907 0zm2.308-1.319c.248.165.248.33 0 .495-.247.165-.659.165-.907 0-.247-.165-.247-.33 0-.495.248-.082.66-.082.907 0zm2.226-1.319c.247.165.247.33 0 .495-.247.165-.659.165-.907 0-.247-.165-.247-.33 0-.495.33-.082.66-.082.907 0z" fill="#31388B"/>
    <g filter="url(#Mobile_scan__filter3_f)">
      <path d="M180.372 41.056l-71.481 41.058c-.412.247-.412.742 0 .99l38.255 22.177s1.814.99 4.123-.412l70.079-40.234-40.976-23.58z" fill="#2A2D2E" fill-opacity=".5"/>
    </g>
    <path d="M143.106 97.696L144.745 99l3.5 2s1.5 1 3.023 1.396l67.853-39.08-38.749-22.343-67.853 39.08 30.587 17.643z" fill="#EDEFF0"/>
    <path d="M143.107 97.427l-32.386-18.53 69.662-40.074 40.538 23.42-69.894 39.923-7.911-4.734h0l-.009-.005z" fill="#fff" stroke="#31388B"/>
    <path d="M201.56 71.231l-.165.083c-.494.247-1.319.247-1.896-.083L171.962 55.32c-.577-.33-.577-.824-.165-1.072l.165-.082c.495-.248 1.319-.248 1.896.082l27.537 15.912c.578.248.578.742.165 1.072z" fill="#EDEFF0"/>
    <path d="M200.571 70.737c-.412 0-.825-.083-1.237-.33l-27.537-15.912c-.412-.248-.577-.578-.577-.907 0-.33.165-.577.495-.742l.165-.083c.577-.33 1.566-.33 2.226.083L201.56 68.84c.413.248.577.577.577.907 0 .33-.164.577-.494.742l-.165.083c-.165.082-.495.165-.907.165zm-27.784-17.479c-.248 0-.495.082-.66.165l-.165.082c-.082 0-.165.083-.165.165 0 .083.083.165.33.33l27.537 15.912c.412.247 1.154.33 1.567.082l.164-.082a.177.177 0 00.165-.165c0-.082-.082-.165-.329-.33l-27.537-15.994a2.974 2.974 0 00-.907-.165z" fill="#31388B"/>
    <path d="M205.188 69.088l-.165.082c-.494.247-1.319.247-1.896-.082L175.59 53.176c-.577-.33-.577-.825-.165-1.072l.165-.083c.495-.247 1.319-.247 1.896.083l27.537 15.912c.577.33.66.824.165 1.072z" fill="#EDEFF0"/>
    <path d="M204.198 68.675c-.412 0-.824-.082-1.236-.33l-27.537-15.911c-.412-.248-.577-.578-.577-.907 0-.33.165-.578.494-.742l.165-.083c.577-.33 1.567-.33 2.226.083l27.537 15.912c.412.247.577.577.577.906 0 .33-.165.578-.494.743l-.165.082c-.248.165-.577.247-.99.247zm-27.784-17.56a1.55 1.55 0 00-.659.164l-.165.083a.177.177 0 00-.165.165c0 .082.082.164.33.33l27.536 15.911c.413.248 1.155.33 1.567.083l.165-.083c.082 0 .165-.082.165-.165 0-.082-.083-.164-.33-.33l-27.537-15.911c-.247-.165-.577-.248-.907-.248z" fill="#31388B"/>
    <path d="M208.816 67.026l-.165.083c-.495.247-1.32.247-1.897-.083l-27.537-15.912c-.577-.33-.577-.824-.164-1.071l.164-.083c.495-.247 1.32-.247 1.897.083l27.537 15.912c.577.247.659.742.165 1.071z" fill="#EDEFF0"/>
    <path d="M207.827 66.532c-.413 0-.825-.083-1.237-.33L179.053 50.29c-.412-.247-.577-.577-.577-.907 0-.33.165-.577.495-.742l.164-.082c.578-.33 1.567-.33 2.226.082l27.537 15.912c.413.247.578.577.578.907 0 .33-.165.577-.495.742l-.165.082c-.247.165-.577.248-.989.248zm-27.785-17.479c-.247 0-.494.083-.659.165h-.083c-.082 0-.165.083-.165.165s.083.165.33.33l27.537 15.994c.412.248 1.154.33 1.567.083l.165-.083c.082 0 .164-.082.164-.165 0-.082-.082-.165-.329-.33l-27.62-15.994a2.963 2.963 0 00-.907-.165z" fill="#31388B"/>
    <path d="M170.643 80.96l-.165.082c-.494.248-1.319.248-1.896-.082l-26.383-15.253c-.577-.33-.577-.824-.165-1.072l.165-.082c.495-.247 1.319-.247 1.897.082l26.382 15.253c.577.33.66.824.165 1.072z" fill="#EDEFF0"/>
    <path d="M169.736 80.548a2.33 2.33 0 01-1.237-.33l-26.3-15.17c-.412-.248-.577-.577-.577-.907 0-.33.165-.577.495-.742l.165-.083c.577-.33 1.566-.33 2.226.083L170.89 78.65c.413.248.578.577.578.907 0 .33-.165.577-.495.742l-.165.083c-.33.082-.742.165-1.072.165zm-26.63-16.82a1.54 1.54 0 00-.659.166l-.165.082a.177.177 0 00-.165.165c0 .082.082.165.33.33l26.382 15.252c.413.247 1.155.33 1.567.083l.165-.083c.082 0 .165-.082.165-.165 0-.082-.083-.165-.33-.33l-26.383-15.252c-.247-.165-.577-.247-.907-.247z" fill="#31388B"/>
    <path d="M174.271 78.899l-.165.082c-.495.248-1.319.248-1.897-.082l-26.382-15.253c-.577-.33-.577-.824-.165-1.072l.165-.082c.494-.247 1.319-.247 1.896.082l26.383 15.253c.659.33.659.824.165 1.072z" fill="#EDEFF0"/>
    <path d="M173.364 78.487c-.412 0-.825-.083-1.237-.33l-26.383-15.253c-.412-.247-.577-.577-.577-.907 0-.33.165-.577.495-.742l.165-.082c.577-.33 1.566-.33 2.226.082l26.383 15.253c.412.247.577.577.577.907 0 .33-.165.577-.495.742l-.165.082c-.247.165-.659.248-.989.248zm-26.63-16.82a1.56 1.56 0 00-.66.165l-.165.083c-.082 0-.165.082-.165.165 0 .082.083.165.33.33l26.383 15.252c.412.247 1.154.33 1.566.082l.165-.082a.177.177 0 00.165-.165c0-.082-.082-.165-.33-.33l-26.382-15.252c-.248-.248-.577-.248-.907-.248z" fill="#31388B"/>
    <path d="M184.824 80.713l-.165.082c-.495.247-1.319.247-1.896-.082l-33.144-19.128c-.577-.33-.577-.824-.165-1.072l.165-.082c.495-.247 1.319-.247 1.897.082l33.225 19.21c.495.248.495.742.083.99z" fill="#EDEFF0"/>
    <path d="M183.835 80.3a2.32 2.32 0 01-1.237-.33l-33.143-19.127c-.413-.247-.66-.577-.66-.907 0-.33.165-.577.495-.742l.165-.082c.577-.33 1.566-.33 2.226.082l33.225 19.21c.413.247.578.577.578.907 0 .33-.165.577-.495.742l-.165.082a3.073 3.073 0 01-.989.165zm-33.473-20.776c-.248 0-.495.082-.66.165l-.082.082a.177.177 0 00-.165.165c0 .083.082.165.33.33l33.225 19.21c.412.247 1.154.33 1.567.082l.165-.082c.082 0 .164-.083.164-.165 0-.083-.082-.165-.329-.33l-33.308-19.21c-.248-.165-.578-.247-.907-.247z" fill="#31388B"/>
    <path d="M167.016 83.103l-.083.083c-.494.247-1.319.247-1.896-.083l-26.383-15.252c-.577-.33-.577-.825-.164-1.072l.164-.082c.495-.248 1.32-.248 1.897.082l26.382 15.252c.495.33.577.825.083 1.072z" fill="#EDEFF0"/>
    <path d="M166.109 82.609c-.413 0-.825-.083-1.237-.33l-26.383-15.253c-.412-.247-.577-.577-.577-.906 0-.33.165-.578.495-.743l.165-.082c.577-.33 1.566-.33 2.226.082L167.18 80.63c.413.247.577.577.577.907 0 .33-.164.577-.494.742l-.165.082c-.33.248-.66.248-.989.248zm-26.631-16.737c-.247 0-.494.083-.659.165l-.165.082c-.082 0-.165.083-.165.165 0 .083.083.165.33.33l26.383 15.253c.412.247 1.154.33 1.566.082l.165-.082c.082 0 .165-.083.165-.165 0-.083-.083-.165-.33-.33L140.385 66.12c-.247-.248-.577-.248-.907-.248z" fill="#31388B"/>
    <path d="M164.542 88.627c-2.061 0-4.04-.412-5.606-1.319-1.567-.907-2.391-2.143-2.391-3.38 0-1.32.824-2.474 2.391-3.38 3.05-1.814 8.08-1.814 11.13 0 1.567.906 2.391 2.143 2.391 3.38 0 1.319-.824 2.473-2.391 3.38-1.484.825-3.463 1.32-5.524 1.32zm0-8.904c-1.896 0-3.792.412-5.276 1.237-1.319.742-2.061 1.814-2.061 2.886 0 1.071.742 2.06 2.061 2.885 2.885 1.649 7.585 1.649 10.47 0 1.32-.742 2.062-1.814 2.062-2.885 0-1.072-.742-2.062-2.062-2.886-1.401-.742-3.297-1.237-5.194-1.237z" fill="#31388B"/>
    <path d="M164.542 87.473c-1.566 0-3.05-.33-4.205-.99-1.154-.659-1.814-1.648-1.814-2.638 0-.989.66-1.978 1.814-2.638 2.309-1.319 6.101-1.319 8.492 0 1.154.66 1.814 1.649 1.814 2.638 0 .99-.66 1.98-1.814 2.639-1.236.66-2.72.989-4.287.989zm0-6.596c-1.402 0-2.803.33-3.875.907-.989.577-1.484 1.32-1.484 2.061 0 .742.577 1.484 1.484 2.061 2.144 1.237 5.689 1.237 7.832 0 .99-.577 1.484-1.319 1.484-2.06 0-.743-.577-1.485-1.484-2.062-1.071-.577-2.555-.907-3.957-.907zm-30.436-12.54l-.33.571 11.995 6.926.33-.572-11.995-6.925zm-1.439.788l-.33.57 11.995 6.926.33-.57-11.995-6.926zm15.101 7.064l-.33.571 1.357.783.33-.57-1.357-.784zm-1.481.859l-.329.572 1.356.783.33-.572-1.357-.783z" fill="#31388B"/>
  </g>
  <defs>
    <filter id="Mobile_scan__filter0_f" x="57.91" y="134.794" width="244.94" height="144.474" filterUnits="userSpaceOnUse" color-interpolation-filters="sRGB">
      <feFlood flood-opacity="0" result="BackgroundImageFix"/>
      <feBlend in="SourceGraphic" in2="BackgroundImageFix" result="shape"/>
      <feGaussianBlur stdDeviation="2" result="effect1_foregroundBlur"/>
    </filter>
    <filter id="Mobile_scan__filter1_d" x="59.292" y="130.881" width="243.77" height="144.805" filterUnits="userSpaceOnUse" color-interpolation-filters="sRGB">
      <feFlood flood-opacity="0" result="BackgroundImageFix"/>
      <feColorMatrix in="SourceAlpha" values="0 0 0 0 0 0 0 0 0 0 0 0 0 0 0 0 0 0 127 0"/>
      <feOffset dy="4"/>
      <feGaussianBlur stdDeviation="2"/>
      <feColorMatrix values="0 0 0 0 0 0 0 0 0 0 0 0 0 0 0 0 0 0 0.25 0"/>
      <feBlend in2="BackgroundImageFix" result="effect1_dropShadow"/>
      <feBlend in="SourceGraphic" in2="effect1_dropShadow" result="shape"/>
    </filter>
    <filter id="Mobile_scan__filter2_d" x="-2.755" y="0" width="308.51" height="201.23" filterUnits="userSpaceOnUse" color-interpolation-filters="sRGB">
      <feFlood flood-opacity="0" result="BackgroundImageFix"/>
      <feColorMatrix in="SourceAlpha" values="0 0 0 0 0 0 0 0 0 0 0 0 0 0 0 0 0 0 127 0"/>
      <feOffset dy="4"/>
      <feGaussianBlur stdDeviation="3"/>
      <feColorMatrix values="0 0 0 0 0 0 0 0 0 0 0 0 0 0 0 0 0 0 0.8 0"/>
      <feBlend in2="BackgroundImageFix" result="effect1_dropShadow"/>
      <feBlend in="SourceGraphic" in2="effect1_dropShadow" result="shape"/>
    </filter>
    <filter id="Mobile_scan__filter3_f" x="102.582" y="35.056" width="124.765" height="76.564" filterUnits="userSpaceOnUse" color-interpolation-filters="sRGB">
      <feFlood flood-opacity="0" result="BackgroundImageFix"/>
      <feBlend in="SourceGraphic" in2="BackgroundImageFix" result="shape"/>
      <feGaussianBlur stdDeviation="3" result="effect1_foregroundBlur"/>
    </filter>
    <clipPath id="Mobile_scan__clip0">
      <path fill="#fff" transform="translate(3.245 2)" d="M0 0h296.51v189.23H0z"/>
    </clipPath>
  </defs>
</svg>
