<svg width="212" height="29" viewBox="0 0 212 29" fill="none" xmlns="http://www.w3.org/2000/svg">
<path d="M11.062 1.60987C6.08647 1.60987 2.46456 4.39032 2.46456 8.59758C2.46456 12.439 4.76941 14.5609 10.0742 16.2072C14.0254 17.4145 15.0864 18.3658 15.0864 20.4877C15.0864 22.9389 13.1474 24.2559 10.4401 24.2559C7.80596 24.2559 5.7572 23.3047 4.00113 21.6584L1.44019 24.512C3.52552 26.5608 6.52549 27.9876 10.5498 27.9876C16.5863 27.9876 20.1351 24.7681 20.1351 20.2316C20.1351 15.4755 17.0619 13.6463 12.6352 12.2561C8.4279 10.939 7.44011 10.1341 7.44011 8.3049C7.44011 6.32932 9.08643 5.30494 11.3547 5.30494C13.44 5.30494 15.1961 5.96347 16.9522 7.50004L19.4034 4.71958C17.2083 2.70741 14.7571 1.60987 11.062 1.60987Z" fill="white"/>
<path d="M31.8997 7.53662C26.3388 7.53662 22.8632 11.7439 22.8632 17.9267C22.8632 24.1096 26.3388 27.9876 31.9363 27.9876C34.424 27.9876 36.4362 27.1827 38.1923 25.7559L36.0338 22.6828C34.6801 23.7071 33.6558 24.1827 32.1924 24.1827C29.5582 24.1827 27.8388 22.5364 27.8388 17.8536C27.8388 13.2073 29.4851 11.2317 32.1924 11.2317C33.6558 11.2317 34.8265 11.6707 36.0704 12.6585L38.1923 9.80488C36.363 8.23173 34.424 7.53662 31.8997 7.53662Z" fill="white"/>
<path d="M55.8825 22.3169V14.1951C55.8825 9.91464 53.6143 7.53662 48.4558 7.53662C46.2607 7.53662 43.8095 8.01222 41.4315 8.92685L42.529 12.1097C44.468 11.4512 46.3339 11.0854 47.6509 11.0854C50.1387 11.0854 51.2728 11.9268 51.2728 14.4512V15.5487H48.8582C43.2241 15.5487 40.0413 17.817 40.0413 22.0242C40.0413 25.5364 42.4193 27.9876 46.2973 27.9876C48.6021 27.9876 50.724 27.1461 52.0777 25.0974C52.846 26.9632 54.2362 27.7315 56.3581 27.9144L57.3459 24.8047C56.3947 24.4388 55.8825 23.8901 55.8825 22.3169ZM47.5412 24.5852C45.7485 24.5852 44.7973 23.5242 44.7973 21.6584C44.7973 19.3901 46.2973 18.2926 49.3338 18.2926H51.2728V22.2072C50.3948 23.7437 49.1875 24.5852 47.5412 24.5852Z" fill="white"/>
<path d="M71.8664 7.53662C69.4152 7.53662 67.4762 8.67075 65.9762 10.6098L65.6104 8.08539H61.5495V27.4388H66.2323V13.9756C67.3665 12.1829 68.6103 11.0488 70.2932 11.0488C71.7566 11.0488 72.6713 11.7439 72.6713 14.1585V27.4388H77.3541V13.4268C77.3541 9.73171 75.342 7.53662 71.8664 7.53662Z" fill="white"/>
<path d="M91.734 7.90247C89.2096 7.90247 87.3438 9.14636 85.9902 10.9756V0.256226L83.8682 0.512319V27.4388H85.7341L85.9536 25.0242C87.1609 26.6339 89.0267 27.8412 91.4413 27.8412C96.051 27.8412 98.7217 23.9267 98.7217 17.7804C98.7217 11.4146 96.1242 7.90247 91.734 7.90247ZM91.0389 26.0852C88.8438 26.0852 87.1609 24.8047 85.9902 23.012V12.9512C87.2706 11.1219 88.8072 9.65854 91.295 9.65854C94.551 9.65854 96.4535 12.1463 96.4535 17.7804C96.4535 23.3413 94.4413 26.0852 91.0389 26.0852Z" fill="white"/>
<path d="M111.711 7.90247C106.699 7.90247 103.59 11.7439 103.59 17.8901C103.59 24.0364 106.589 27.8412 111.675 27.8412C116.723 27.8412 119.797 23.9998 119.797 17.817C119.797 11.561 116.797 7.90247 111.711 7.90247ZM111.711 9.69513C115.406 9.69513 117.565 12.439 117.565 17.817C117.565 23.3047 115.333 26.0486 111.675 26.0486C108.016 26.0486 105.858 23.2681 105.858 17.8901C105.858 12.4024 108.089 9.69513 111.711 9.69513Z" fill="white"/>
<path d="M134.734 26.6339L133.892 25.134C132.941 25.7193 132.027 26.012 130.966 26.012C129.027 26.012 128.149 24.9144 128.149 22.6828V10.0244H132.831L133.088 8.3049H128.149V3.4757L126.027 3.73179V8.3049H122.807V10.0244H126.027V22.7925C126.027 26.1217 127.819 27.8412 130.709 27.8412C132.246 27.8412 133.563 27.4022 134.734 26.6339Z" fill="white"/>
<path d="M154.007 1.60987C149.032 1.60987 145.41 4.39032 145.41 8.59758C145.41 12.439 147.715 14.5609 153.02 16.2072C156.971 17.4145 158.032 18.3658 158.032 20.4877C158.032 22.9389 156.093 24.2559 153.386 24.2559C150.751 24.2559 148.703 23.3047 146.947 21.6584L144.386 24.512C146.471 26.5608 149.471 27.9876 153.495 27.9876C159.532 27.9876 163.081 24.7681 163.081 20.2316C163.081 15.4755 160.007 13.6463 155.581 12.2561C151.373 10.939 150.386 10.1341 150.386 8.3049C150.386 6.32932 152.032 5.30494 154.3 5.30494C156.386 5.30494 158.142 5.96347 159.898 7.50004L162.349 4.71958C160.154 2.70741 157.703 1.60987 154.007 1.60987Z" fill="white"/>
<path d="M173.418 2.15864H167.199V27.4388H174.077C180.113 27.4388 186.369 24.9144 186.369 14.6707C186.369 4.20739 180.077 2.15864 173.418 2.15864ZM172.028 5.78055H174.26C177.991 5.78055 181.284 7.06102 181.284 14.6707C181.284 22.134 178.174 23.8169 174.406 23.8169H172.028V5.78055Z" fill="white"/>
<path d="M195.751 27.4388V2.15864H190.922V27.4388H195.751ZM201.202 13.6097L209.946 2.15864H204.714L195.971 13.939L204.897 27.4388H210.641L201.202 13.6097Z" fill="white"/>
</svg>
