<svg width="185" height="25" viewBox="0 0 185 25" fill="none" xmlns="http://www.w3.org/2000/svg">
<path d="M9.46 1.408C5.108 1.408 1.94 3.84 1.94 7.52C1.94 10.88 3.956 12.736 8.596 14.176C12.052 15.232 12.98 16.064 12.98 17.92C12.98 20.064 11.284 21.216 8.916 21.216C6.612 21.216 4.82 20.384 3.284 18.944L1.044 21.44C2.868 23.232 5.492 24.48 9.012 24.48C14.292 24.48 17.396 21.664 17.396 17.696C17.396 13.536 14.708 11.936 10.836 10.72C7.156 9.568 6.292 8.864 6.292 7.264C6.292 5.536 7.732 4.64 9.716 4.64C11.54 4.64 13.076 5.216 14.612 6.56L16.756 4.128C14.836 2.368 12.692 1.408 9.46 1.408Z" fill="#C8193C"/>
<path d="M27.6862 6.592C22.8222 6.592 19.7822 10.272 19.7822 15.68C19.7822 21.088 22.8222 24.48 27.7182 24.48C29.8942 24.48 31.6543 23.776 33.1903 22.528L31.3022 19.84C30.1182 20.736 29.2222 21.152 27.9422 21.152C25.6382 21.152 24.1342 19.712 24.1342 15.616C24.1342 11.552 25.5742 9.824 27.9422 9.824C29.2222 9.824 30.2462 10.208 31.3342 11.072L33.1903 8.576C31.5903 7.2 29.8942 6.592 27.6862 6.592Z" fill="#C8193C"/>
<path d="M48.6635 19.52V12.416C48.6635 8.672 46.6795 6.592 42.1675 6.592C40.2475 6.592 38.1035 7.008 36.0235 7.808L36.9835 10.592C38.6795 10.016 40.3115 9.696 41.4635 9.696C43.6395 9.696 44.6315 10.432 44.6315 12.64V13.6H42.5195C37.5915 13.6 34.8075 15.584 34.8075 19.264C34.8075 22.336 36.8875 24.48 40.2795 24.48C42.2955 24.48 44.1515 23.744 45.3355 21.952C46.0075 23.584 47.2235 24.256 49.0795 24.416L49.9435 21.696C49.1115 21.376 48.6635 20.896 48.6635 19.52ZM41.3675 21.504C39.7995 21.504 38.9675 20.576 38.9675 18.944C38.9675 16.96 40.2795 16 42.9355 16H44.6315V19.424C43.8635 20.768 42.8075 21.504 41.3675 21.504Z" fill="#C8193C"/>
<path d="M62.6442 6.592C60.5002 6.592 58.8042 7.584 57.4922 9.28L57.1722 7.072H53.6203V24H57.7163V12.224C58.7083 10.656 59.7962 9.664 61.2682 9.664C62.5482 9.664 63.3483 10.272 63.3483 12.384V24H67.4443V11.744C67.4443 8.512 65.6842 6.592 62.6442 6.592Z" fill="#C8193C"/>
<path d="M80.022 6.912C77.814 6.912 76.182 8 74.998 9.6V0.223999L73.142 0.447998V24H74.774L74.966 21.888C76.022 23.296 77.654 24.352 79.766 24.352C83.798 24.352 86.134 20.928 86.134 15.552C86.134 9.984 83.862 6.912 80.022 6.912ZM79.414 22.816C77.494 22.816 76.022 21.696 74.998 20.128V11.328C76.118 9.728 77.462 8.448 79.638 8.448C82.486 8.448 84.15 10.624 84.15 15.552C84.15 20.416 82.39 22.816 79.414 22.816Z" fill="#C8193C"/>
<path d="M97.4958 6.912C93.1118 6.912 90.3917 10.272 90.3917 15.648C90.3917 21.024 93.0158 24.352 97.4638 24.352C101.88 24.352 104.568 20.992 104.568 15.584C104.568 10.112 101.944 6.912 97.4958 6.912ZM97.4958 8.48C100.728 8.48 102.616 10.88 102.616 15.584C102.616 20.384 100.664 22.784 97.4638 22.784C94.2638 22.784 92.3757 20.352 92.3757 15.648C92.3757 10.848 94.3278 8.48 97.4958 8.48Z" fill="#C8193C"/>
<path d="M117.633 23.296L116.897 21.984C116.065 22.496 115.265 22.752 114.337 22.752C112.641 22.752 111.873 21.792 111.873 19.84V8.768H115.969L116.193 7.264H111.873V3.04L110.017 3.264V7.264H107.201V8.768H110.017V19.936C110.017 22.848 111.585 24.352 114.113 24.352C115.457 24.352 116.609 23.968 117.633 23.296Z" fill="#C8193C"/>
<path d="M134.491 1.408C130.139 1.408 126.971 3.84 126.971 7.52C126.971 10.88 128.987 12.736 133.627 14.176C137.083 15.232 138.011 16.064 138.011 17.92C138.011 20.064 136.315 21.216 133.947 21.216C131.643 21.216 129.851 20.384 128.315 18.944L126.075 21.44C127.899 23.232 130.523 24.48 134.043 24.48C139.323 24.48 142.427 21.664 142.427 17.696C142.427 13.536 139.739 11.936 135.867 10.72C132.187 9.568 131.323 8.864 131.323 7.264C131.323 5.536 132.763 4.64 134.747 4.64C136.571 4.64 138.107 5.216 139.643 6.56L141.787 4.128C139.867 2.368 137.723 1.408 134.491 1.408Z" fill="#C8193C"/>
<path d="M151.469 1.888H146.029V24H152.045C157.325 24 162.797 21.792 162.797 12.832C162.797 3.68 157.293 1.888 151.469 1.888ZM150.253 5.056H152.205C155.469 5.056 158.349 6.176 158.349 12.832C158.349 19.36 155.629 20.832 152.333 20.832H150.253V5.056Z" fill="#C8193C"/>
<path d="M171.003 24V1.888H166.779V24H171.003ZM175.771 11.904L183.419 1.888H178.843L171.195 12.192L179.003 24H184.027L175.771 11.904Z" fill="#C8193C"/>
</svg>
