<svg width="249" height="296" viewBox="0 0 249 296" fill="none" xmlns="http://www.w3.org/2000/svg">
<path d="M5.33521 186.46C5.47305 186.322 5.47304 186.322 5.61088 186.184L74.805 146.026C79.2158 143.818 84.3158 143.956 88.5887 146.44L244.207 236.277C244.482 236.415 244.758 236.553 244.896 236.829C250.271 240.969 249.444 249.663 243.38 253.251H243.242L243.104 253.389L173.91 293.546C169.637 295.754 164.537 295.478 160.402 293.132L5.33521 203.571C5.05954 203.433 4.78387 203.157 4.5082 203.019C-1.41879 199.017 -1.00529 190.047 5.33521 186.46Z" fill="white"/>
<path d="M5.05955 186.045L5.1974 186.321L5.05955 186.045C5.19739 185.907 5.19739 185.907 5.33522 185.907L74.5294 145.612C79.078 143.404 84.3158 143.542 88.5888 146.026L244.345 235.863C244.62 236.139 244.896 236.277 245.172 236.553C247.653 238.485 249.031 241.659 248.893 244.971C248.617 248.559 246.688 251.733 243.655 253.389L243.518 253.527C243.518 253.527 243.38 253.527 243.38 253.665L174.186 293.822C172.118 294.788 169.913 295.34 167.707 295.34C165.226 295.34 162.607 294.65 160.402 293.408L5.33522 203.847C5.05955 203.709 4.78389 203.433 4.50822 203.295C1.61364 201.363 0.0974155 198.189 0.0974155 194.739C0.0974155 191.151 2.02714 187.839 5.05955 186.045ZM244.62 237.105C244.345 236.829 244.207 236.691 243.931 236.553L88.3131 146.716C86.1077 145.474 83.6266 144.784 81.2834 144.784C80.0429 144.784 78.6645 144.922 77.424 145.336C80.3185 144.922 83.2131 145.336 84.7293 146.578L161.505 274.64C161.505 274.64 159.437 283.472 161.091 287.612C162.745 291.752 166.88 292.442 167.018 292.58C169.361 292.718 171.842 292.166 174.048 291.062L243.242 251.043C243.38 251.043 243.38 250.905 243.38 250.905H243.518C245.861 249.525 247.377 247.455 248.066 245.109C248.066 245.109 248.066 245.109 248.066 244.971C248.342 241.797 247.101 238.899 244.62 237.105Z" fill="#C8193C"/>
<path d="M5.05955 186.045L5.1974 186.321L5.05955 186.045C5.19739 185.907 5.19739 185.907 5.33522 185.907L74.5294 145.612C79.078 143.404 84.3158 143.542 88.5888 146.026L244.345 235.863C244.62 236.139 244.896 236.277 245.172 236.553C247.653 238.485 249.031 241.659 248.893 244.971C248.617 248.559 246.688 251.733 243.655 253.389L243.518 253.527C243.518 253.527 243.38 253.527 243.38 253.665L174.186 293.822C172.118 294.788 169.913 295.34 167.707 295.34C165.226 295.34 162.607 294.65 160.402 293.408L5.33522 203.847C5.05955 203.709 4.78389 203.433 4.50822 203.295C1.61364 201.363 0.0974155 198.189 0.0974155 194.739C0.0974155 191.151 2.02714 187.839 5.05955 186.045ZM244.62 237.105C244.345 236.829 244.207 236.691 243.931 236.553L88.3131 146.716C86.1077 145.474 83.6266 144.784 81.2834 144.784C80.0429 144.784 78.6645 144.922 77.424 145.336C80.3185 144.922 83.2131 145.336 84.7293 146.578L161.505 274.64C161.505 274.64 159.437 283.472 161.091 287.612C162.745 291.752 166.88 292.442 167.018 292.58C169.361 292.718 171.842 292.166 174.048 291.062L243.242 251.043C243.38 251.043 243.38 250.905 243.38 250.905H243.518C245.861 249.525 247.377 247.455 248.066 245.109C248.066 245.109 248.066 245.109 248.066 244.971C248.342 241.797 247.101 238.899 244.62 237.105Z" fill="white" fill-opacity="0.32" style="mix-blend-mode:overlay"/>
<path d="M244.345 237.519L88.0374 147.406C83.7645 144.922 78.6645 144.784 74.2537 146.992L5.05955 187.15C1.47579 189.772 0.78661 195.016 4.78388 197.223L160.402 287.198C164.537 289.682 169.637 289.82 173.91 287.612L243.104 247.455C248.066 244.419 247.79 239.865 244.345 237.519Z" fill="#EDEFF0"/>
<path d="M244.345 237.519L88.0374 147.406C83.7645 144.922 78.6645 144.784 74.2537 146.992L5.05955 187.15C1.47579 189.772 0.78661 195.016 4.78388 197.223L160.402 287.198C164.537 289.682 169.637 289.82 173.91 287.612L243.104 247.455C248.066 244.419 247.79 239.865 244.345 237.519Z" stroke="#31388B" stroke-width="0.4919" stroke-miterlimit="10"/>
<path d="M244.345 237.519L88.0374 147.406C83.7645 144.922 78.6645 144.784 74.2537 146.992L5.05955 187.15C1.47579 189.772 0.78661 195.016 4.78388 197.223L160.402 287.198C164.537 289.682 169.637 289.82 173.91 287.612L243.104 247.455C248.066 244.419 247.79 239.865 244.345 237.519Z" stroke="white" stroke-opacity="0.32" stroke-width="0.4919" stroke-miterlimit="10" style="mix-blend-mode:overlay"/>
<path d="M167.431 288.026C169.637 288.026 171.842 287.474 173.91 286.508L243.104 246.351C245.585 244.833 246.963 242.901 246.963 240.831C246.963 239.037 245.998 237.243 244.207 236.001L88.5886 146.302C84.3157 143.818 79.0778 143.68 74.6671 145.888L5.47289 186.046C3.40533 187.564 2.30264 189.91 2.44048 192.118C2.57832 194.049 3.54318 195.567 5.19722 196.533L160.126 286.094C162.469 287.336 164.95 288.026 167.431 288.026ZM244.069 236.415C245.723 237.519 246.688 239.175 246.55 240.831C246.55 242.763 245.171 244.695 242.828 246.075L173.634 286.232C169.361 288.302 164.399 288.164 160.264 285.818L5.19722 196.257C3.68101 195.291 2.71614 193.911 2.5783 192.118C2.44047 190.048 3.54317 187.84 5.47289 186.46L74.8049 146.164C79.0779 143.956 84.1778 144.094 88.3129 146.578L244.069 236.415Z" fill="#31388B"/>
<path d="M167.431 288.026C169.637 288.026 171.842 287.474 173.91 286.508L243.104 246.351C245.585 244.833 246.963 242.901 246.963 240.831C246.963 239.037 245.998 237.243 244.207 236.001L88.5886 146.302C84.3157 143.818 79.0778 143.68 74.6671 145.888L5.47289 186.046C3.40533 187.564 2.30264 189.91 2.44048 192.118C2.57832 194.049 3.54318 195.567 5.19722 196.533L160.126 286.094C162.469 287.336 164.95 288.026 167.431 288.026ZM244.069 236.415C245.723 237.519 246.688 239.175 246.55 240.831C246.55 242.763 245.171 244.695 242.828 246.075L173.634 286.232C169.361 288.302 164.399 288.164 160.264 285.818L5.19722 196.257C3.68101 195.291 2.71614 193.911 2.5783 192.118C2.44047 190.048 3.54317 187.84 5.47289 186.46L74.8049 146.164C79.0779 143.956 84.1778 144.094 88.3129 146.578L244.069 236.415Z" fill="white" fill-opacity="0.32" style="mix-blend-mode:overlay"/>
<path d="M15.5093 191.171L15.5006 191.176L15.4917 191.18C12.9341 192.521 12.8284 196.032 15.2381 197.483C15.2391 197.483 15.2402 197.484 15.2413 197.485L162.58 282.762C162.58 282.762 162.581 282.763 162.581 282.763C165.328 284.334 168.729 284.466 171.606 283.031L238.581 244.4C240.269 243.425 240.962 242.213 241.02 241.132C241.077 240.049 240.506 238.967 239.394 238.219L91.6572 152.813C91.6555 152.812 91.6539 152.811 91.6522 152.81C88.76 151.233 85.3577 151.106 82.4851 152.539L15.5093 191.171Z" fill="#31388B" stroke="#C6CACC"/>
<g filter="url(#filter0_d)">
<path d="M106 170.659L45.3754 204.89L125 251.659L184.5 215.659L106 170.659Z" fill="#FAFAFA"/>
</g>
<rect x="0.534681" width="25.8266" height="2.39521" rx="1.03024" transform="matrix(0.866025 -0.5 0.866025 0.5 77.5012 216.472)" fill="white" stroke="#4F347D" stroke-width="0.617396"/>
<rect x="0.534681" width="11.2657" height="2.39521" rx="1.03024" transform="matrix(0.866025 -0.5 0.866025 0.5 91.4158 224.505)" fill="white" stroke="#4F347D" stroke-width="0.617396"/>
<rect x="0.534681" width="33.0234" height="2.39521" rx="1.03024" transform="matrix(0.866025 -0.5 0.866025 0.5 110.838 213.292)" fill="white" stroke="#4F347D" stroke-width="0.617396"/>
<rect x="0.534681" width="17.1235" height="2.39521" rx="1.03024" transform="matrix(0.866025 -0.5 0.866025 0.5 138.523 213.375)" fill="white" stroke="#4F347D" stroke-width="0.617396"/>
<rect x="0.534681" width="21.8098" height="2.39521" rx="1.03024" transform="matrix(0.866025 -0.5 0.866025 0.5 105.33 232.539)" fill="white" stroke="#4F347D" stroke-width="0.617396"/>
<rect x="0.534681" width="55.4506" height="2.39521" rx="1.03024" transform="matrix(0.866025 -0.5 0.866025 0.5 82.1394 219.149)" fill="white" stroke="#4F347D" stroke-width="0.617396"/>
<rect x="0.534681" width="55.4506" height="2.39521" rx="1.03024" transform="matrix(0.866025 -0.5 0.866025 0.5 67.5165 212.368)" fill="#C8193C" stroke="#4F347D" stroke-width="0.617396"/>
<rect x="0.534681" width="55.4506" height="2.39521" rx="1.03024" transform="matrix(0.866025 -0.5 0.866025 0.5 96.0541 227.183)" fill="white" stroke="#4F347D" stroke-width="0.617396"/>
<rect x="0.534681" width="55.4506" height="2.39521" rx="1.03024" transform="matrix(0.866025 -0.5 0.866025 0.5 100.692 229.861)" fill="white" stroke="#4F347D" stroke-width="0.617396"/>
<rect x="0.534681" width="55.4506" height="2.39521" rx="1.03024" transform="matrix(0.866025 -0.5 0.866025 0.5 114.607 237.895)" fill="white" stroke="#4F347D" stroke-width="0.617396"/>
<rect x="0.534681" width="55.4506" height="2.39521" rx="1.03024" transform="matrix(0.866025 -0.5 0.866025 0.5 109.969 235.217)" fill="white" stroke="#4F347D" stroke-width="0.617396"/>
<rect x="0.534681" width="55.4506" height="2.39521" rx="1.03024" transform="matrix(0.866025 -0.5 0.866025 0.5 86.7776 221.827)" fill="white" stroke="#4F347D" stroke-width="0.617396"/>
<rect x="0.534681" width="12.4372" height="2.39521" rx="1.03024" transform="matrix(0.866025 -0.5 0.866025 0.5 114.752 194.965)" fill="white" stroke="#4F347D" stroke-width="0.617396"/>
<rect x="0.534681" width="12.2699" height="2.39521" rx="1.03024" transform="matrix(0.866025 -0.5 0.866025 0.5 101.852 202.413)" fill="#C8193C" stroke="#4F347D" stroke-width="0.617396"/>
<rect x="0.534681" width="4.90572" height="2.39521" rx="1.03024" transform="matrix(0.866025 -0.5 0.866025 0.5 103.881 217.308)" fill="#C8193C" stroke="#4F347D" stroke-width="0.617396"/>
<rect x="0.534681" width="12.2699" height="2.39521" rx="1.03024" transform="matrix(0.866025 -0.5 0.866025 0.5 126.492 220.321)" fill="#C8193C" stroke="#4F347D" stroke-width="0.617396"/>
<path d="M46.1341 225.099C46.1341 224.271 45.7206 223.443 45.0314 223.167L39.1044 219.717C38.8288 219.579 38.5531 219.579 38.4153 219.717L39.3801 219.027H39.518C39.7936 218.889 39.9315 218.889 40.345 219.027L46.2719 222.477C46.8233 222.753 47.2368 223.719 47.2368 224.409C47.2368 224.823 47.2368 224.961 46.9611 225.099L45.8584 225.927C45.9963 225.789 46.1341 225.513 46.1341 225.099Z" fill="#31388B"/>
<path d="M46.1341 225.099C46.1341 224.271 45.7206 223.443 45.0314 223.167L39.1044 219.717C38.8288 219.579 38.5531 219.579 38.4153 219.717L39.3801 219.027H39.518C39.7936 218.889 39.9315 218.889 40.345 219.027L46.2719 222.477C46.8233 222.753 47.2368 223.719 47.2368 224.409C47.2368 224.823 47.2368 224.961 46.9611 225.099L45.8584 225.927C45.9963 225.789 46.1341 225.513 46.1341 225.099Z" fill="white" fill-opacity="0.32" style="mix-blend-mode:overlay"/>
<path d="M45.9971 226.065L47.2376 225.237C47.5133 224.961 47.5133 224.685 47.5133 224.409C47.5133 223.581 46.962 222.615 46.4106 222.339L40.4836 218.889C40.0701 218.613 39.6566 218.751 39.5188 218.889L38.4161 219.579L38.6917 219.855C38.8296 219.717 39.1053 219.855 39.2431 219.855L45.1701 223.305C45.7214 223.581 46.1349 224.409 46.1349 225.099C46.1349 225.375 45.9971 225.651 45.8593 225.789L45.9971 226.065ZM39.9323 218.889C40.0701 218.889 40.0701 218.889 40.2079 219.027L46.1349 222.477C46.6863 222.753 47.0998 223.581 47.0998 224.271C47.0998 224.547 47.0998 224.823 46.9619 224.823L46.4106 225.237C46.4106 225.099 46.4106 225.099 46.4106 224.961C46.4106 224.133 45.8593 223.167 45.3079 222.891L39.3809 219.441C39.3809 219.441 39.2431 219.441 39.2431 219.303L39.7944 218.889C39.7944 219.027 39.7944 218.889 39.9323 218.889Z" fill="#31388B"/>
<path d="M45.9971 226.065L47.2376 225.237C47.5133 224.961 47.5133 224.685 47.5133 224.409C47.5133 223.581 46.962 222.615 46.4106 222.339L40.4836 218.889C40.0701 218.613 39.6566 218.751 39.5188 218.889L38.4161 219.579L38.6917 219.855C38.8296 219.717 39.1053 219.855 39.2431 219.855L45.1701 223.305C45.7214 223.581 46.1349 224.409 46.1349 225.099C46.1349 225.375 45.9971 225.651 45.8593 225.789L45.9971 226.065ZM39.9323 218.889C40.0701 218.889 40.0701 218.889 40.2079 219.027L46.1349 222.477C46.6863 222.753 47.0998 223.581 47.0998 224.271C47.0998 224.547 47.0998 224.823 46.9619 224.823L46.4106 225.237C46.4106 225.099 46.4106 225.099 46.4106 224.961C46.4106 224.133 45.8593 223.167 45.3079 222.891L39.3809 219.441C39.3809 219.441 39.2431 219.441 39.2431 219.303L39.7944 218.889C39.7944 219.027 39.7944 218.889 39.9323 218.889Z" fill="white" fill-opacity="0.32" style="mix-blend-mode:overlay"/>
<path d="M39.243 222.477L45.17 225.927C45.7214 226.203 46.2727 225.927 46.2727 225.099C46.2727 224.271 45.8592 223.443 45.17 223.167L39.243 219.717C38.6917 219.441 38.1403 219.717 38.1403 220.545C38.1403 221.235 38.6917 222.063 39.243 222.477Z" fill="white"/>
<path d="M45.5836 226.203C45.7214 226.203 45.8592 226.203 45.9971 226.065C46.2727 225.927 46.4106 225.513 46.4106 225.099C46.4106 224.271 45.8592 223.305 45.3079 223.029L39.3809 219.579C39.1052 219.441 38.8295 219.441 38.5539 219.579C38.2782 219.717 38.1403 220.131 38.1403 220.545C38.1403 221.373 38.6917 222.339 39.243 222.615L45.1701 226.065C45.1701 226.065 45.3079 226.203 45.5836 226.203ZM38.8295 219.717C38.9674 219.717 39.1052 219.717 39.1052 219.855L45.0322 223.305C45.5836 223.581 45.9971 224.409 45.9971 225.099C45.9971 225.375 45.8592 225.651 45.7214 225.789C45.5836 225.927 45.3079 225.789 45.1701 225.789L39.243 222.339C38.6917 222.063 38.2782 221.235 38.2782 220.545C38.2782 220.269 38.416 219.993 38.5539 219.855C38.6917 219.717 38.6917 219.717 38.8295 219.717Z" fill="#31388B"/>
<path d="M45.5836 226.203C45.7214 226.203 45.8592 226.203 45.9971 226.065C46.2727 225.927 46.4106 225.513 46.4106 225.099C46.4106 224.271 45.8592 223.305 45.3079 223.029L39.3809 219.579C39.1052 219.441 38.8295 219.441 38.5539 219.579C38.2782 219.717 38.1403 220.131 38.1403 220.545C38.1403 221.373 38.6917 222.339 39.243 222.615L45.1701 226.065C45.1701 226.065 45.3079 226.203 45.5836 226.203ZM38.8295 219.717C38.9674 219.717 39.1052 219.717 39.1052 219.855L45.0322 223.305C45.5836 223.581 45.9971 224.409 45.9971 225.099C45.9971 225.375 45.8592 225.651 45.7214 225.789C45.5836 225.927 45.3079 225.789 45.1701 225.789L39.243 222.339C38.6917 222.063 38.2782 221.235 38.2782 220.545C38.2782 220.269 38.416 219.993 38.5539 219.855C38.6917 219.717 38.6917 219.717 38.8295 219.717Z" fill="white" fill-opacity="0.32" style="mix-blend-mode:overlay"/>
<path d="M54.8186 164.932C55.3699 164.656 55.2321 164.242 54.8186 163.828C54.2673 163.552 53.5781 163.552 53.0267 163.69H52.8889C52.4754 163.966 52.4754 164.38 53.0267 164.656C53.5781 165.07 54.2673 165.208 54.8186 164.932Z" fill="#31388B"/>
<path d="M54.8186 164.932C55.3699 164.656 55.2321 164.242 54.8186 163.828C54.2673 163.552 53.5781 163.552 53.0267 163.69H52.8889C52.4754 163.966 52.4754 164.38 53.0267 164.656C53.5781 165.07 54.2673 165.208 54.8186 164.932Z" fill="white" fill-opacity="0.32" style="mix-blend-mode:overlay"/>
<path d="M36.8999 175.144L52.3376 166.312C52.7511 166.036 52.7511 165.622 52.1998 165.346C51.6484 165.07 50.9593 165.07 50.4079 165.208L34.9702 174.04C34.5567 174.316 34.5567 174.73 35.108 175.006C35.6594 175.42 36.4864 175.42 36.8999 175.144Z" fill="#31388B"/>
<path d="M36.8999 175.144L52.3376 166.312C52.7511 166.036 52.7511 165.622 52.1998 165.346C51.6484 165.07 50.9593 165.07 50.4079 165.208L34.9702 174.04C34.5567 174.316 34.5567 174.73 35.108 175.006C35.6594 175.42 36.4864 175.42 36.8999 175.144Z" fill="white" fill-opacity="0.32" style="mix-blend-mode:overlay"/>
<path d="M53.9917 164.518C54.2674 164.518 54.6809 164.518 54.8188 164.38H54.9566C55.2323 164.242 55.3701 163.966 55.3701 163.69C55.3701 163.414 55.2323 163.138 54.8188 163C54.2674 162.724 53.4404 162.586 52.889 162.862H52.7512C52.4755 163 52.3377 163.276 52.3377 163.414C52.3377 163.69 52.4755 163.966 52.889 164.104C53.3026 164.38 53.5782 164.518 53.9917 164.518ZM53.7161 163C53.9918 163 54.4052 163.138 54.5431 163.276C54.6809 163.414 54.8188 163.552 54.8188 163.69C54.8188 163.828 54.6809 163.828 54.6809 163.966H54.5431C54.1296 164.242 53.4404 164.104 53.0269 163.828C52.8891 163.69 52.7512 163.552 52.7512 163.414C52.7512 163.276 52.889 163.276 52.889 163.138H53.0269C53.3026 163.138 53.4404 163 53.7161 163Z" fill="#31388B"/>
<path d="M53.9917 164.518C54.2674 164.518 54.6809 164.518 54.8188 164.38H54.9566C55.2323 164.242 55.3701 163.966 55.3701 163.69C55.3701 163.414 55.2323 163.138 54.8188 163C54.2674 162.724 53.4404 162.586 52.889 162.862H52.7512C52.4755 163 52.3377 163.276 52.3377 163.414C52.3377 163.69 52.4755 163.966 52.889 164.104C53.3026 164.38 53.5782 164.518 53.9917 164.518ZM53.7161 163C53.9918 163 54.4052 163.138 54.5431 163.276C54.6809 163.414 54.8188 163.552 54.8188 163.69C54.8188 163.828 54.6809 163.828 54.6809 163.966H54.5431C54.1296 164.242 53.4404 164.104 53.0269 163.828C52.8891 163.69 52.7512 163.552 52.7512 163.414C52.7512 163.276 52.889 163.276 52.889 163.138H53.0269C53.3026 163.138 53.4404 163 53.7161 163Z" fill="white" fill-opacity="0.32" style="mix-blend-mode:overlay"/>
<path d="M36.0728 174.73C36.3485 174.73 36.762 174.73 36.8998 174.592L52.3376 165.76C52.6133 165.622 52.7511 165.346 52.7511 165.208C52.7511 164.932 52.6132 164.656 52.1997 164.518C51.6484 164.242 50.8214 164.104 50.27 164.38L34.8323 173.212C34.5566 173.35 34.4188 173.626 34.4188 173.764C34.4188 174.04 34.5566 174.316 34.9701 174.454C35.3836 174.73 35.7971 174.73 36.0728 174.73ZM51.097 164.518C51.3727 164.518 51.7862 164.656 51.9241 164.794C52.0619 164.932 52.1997 165.07 52.1997 165.208C52.1997 165.346 52.0619 165.346 52.0619 165.484L36.6241 174.316C36.2106 174.592 35.5215 174.454 35.108 174.178C34.9701 174.04 34.8323 173.902 34.8323 173.764C34.8323 173.626 34.9701 173.626 34.9701 173.488L50.5457 164.656C50.6835 164.656 50.9592 164.518 51.097 164.518Z" fill="#31388B"/>
<path d="M36.0728 174.73C36.3485 174.73 36.762 174.73 36.8998 174.592L52.3376 165.76C52.6133 165.622 52.7511 165.346 52.7511 165.208C52.7511 164.932 52.6132 164.656 52.1997 164.518C51.6484 164.242 50.8214 164.104 50.27 164.38L34.8323 173.212C34.5566 173.35 34.4188 173.626 34.4188 173.764C34.4188 174.04 34.5566 174.316 34.9701 174.454C35.3836 174.73 35.7971 174.73 36.0728 174.73ZM51.097 164.518C51.3727 164.518 51.7862 164.656 51.9241 164.794C52.0619 164.932 52.1997 165.07 52.1997 165.208C52.1997 165.346 52.0619 165.346 52.0619 165.484L36.6241 174.316C36.2106 174.592 35.5215 174.454 35.108 174.178C34.9701 174.04 34.8323 173.902 34.8323 173.764C34.8323 173.626 34.9701 173.626 34.9701 173.488L50.5457 164.656C50.6835 164.656 50.9592 164.518 51.097 164.518Z" fill="white" fill-opacity="0.32" style="mix-blend-mode:overlay"/>
<path d="M178.259 47.6583L178.255 47.6518C177.94 47.1679 177.58 46.7681 177.219 46.4693C176.856 46.1698 176.542 46.011 176.323 45.9381C176.322 45.9377 176.321 45.9374 176.32 45.9371L177.577 42.1398C169.426 39.4664 159.479 29.4443 150.821 20.7207C147.092 16.9629 143.602 13.4461 140.597 10.8615L178.259 47.6583ZM178.259 47.6583L178.263 47.6648M178.259 47.6583L178.263 47.6648M178.263 47.6648C178.968 48.7424 179.291 49.9074 179.285 50.8067L179.285 50.8176L179.285 50.8284C179.256 79.6966 175.096 101.406 167.383 117.204C159.746 132.848 148.567 142.831 134.022 148.327C133.997 148.325 133.944 148.32 133.861 148.295C133.638 148.229 133.23 148.031 132.742 147.578C100.706 117.575 81.2756 76.5427 76.3917 17.461L76.3908 17.4503C76.3489 16.9594 76.3983 16.5921 76.4666 16.3516C76.4841 16.2901 76.5023 16.2387 76.5195 16.1966M178.263 47.6648L76.5195 16.1966M76.5195 16.1966C83.6832 18.1094 91.193 15.8951 97.4643 13.3797C100.014 12.3569 102.536 11.2061 104.859 10.1464C105.446 9.87843 106.021 9.61631 106.579 9.36356C109.437 8.07152 111.867 7.03411 113.939 6.4302L76.5195 16.1966ZM130.302 7.42899C132.395 9.09326 134.889 11.2332 137.991 13.896L113.939 6.43014C116.914 5.56557 119.211 4.90105 121.129 4.47677C123.01 4.06057 124.226 3.94896 125.082 4.01941C125.216 4.04037 125.399 4.08907 125.627 4.19028C126.73 4.74815 128.214 5.76774 130.302 7.42899ZM76.3441 16.1692C76.3441 16.1691 76.345 16.1691 76.3467 16.169L76.3441 16.1692ZM160.46 63.3351L160.465 63.3267C161.64 61.5246 161.779 59.4039 161.431 57.6282C161.075 55.8173 160.177 54.0965 158.915 52.7621L158.909 52.755L153.222 46.7723L153.219 46.7689C151.975 45.463 150.203 44.3633 148.118 44.2012C145.866 44.0262 143.709 45.0119 142.415 46.9581L142.408 46.9689L142.401 46.9798L125.61 72.603L116.03 59.2554L116.022 59.2442C114.966 57.7833 113.423 56.4956 111.527 55.9306C109.548 55.3411 107.213 55.5945 105.412 57.2078L105.4 57.2188L105.388 57.23L100.91 61.3082L100.906 61.3112C99.2091 62.8603 98.6721 65.0238 98.7486 66.873C98.8262 68.7467 99.5152 70.5737 100.576 72.0562L100.579 72.0602L120.538 99.8744L120.538 99.8747C121.94 101.828 124.318 104.042 126.989 104.838C130.455 105.87 133.652 104.232 135.362 101.622C135.362 101.622 135.362 101.622 135.363 101.621L160.46 63.3351Z" stroke="#31388B" stroke-width="8"/>
<path d="M175.517 48.9618L175.514 48.957C175.069 48.2717 174.541 47.6757 173.969 47.2034C173.398 46.7306 172.811 46.4043 172.256 46.2206C169.117 45.1904 165.822 43.1843 162.535 40.7035C159.235 38.212 155.864 35.1813 152.577 32.0305C149.906 29.4699 147.312 26.8552 144.842 24.3662C141.157 20.6517 137.75 17.217 134.777 14.6598C131.688 12.008 129.154 9.83309 127.016 8.133C124.877 6.43149 123.213 5.26902 121.858 4.59181C121.385 4.37452 120.931 4.24397 120.509 4.18992C119.262 4.0747 117.735 4.24715 115.726 4.69161C113.71 5.13756 111.325 5.82893 108.375 6.6862L175.517 48.9618ZM175.517 48.9618C176.462 50.4053 176.961 52.0502 176.952 53.5026L176.952 53.5106C176.922 82.5818 172.739 104.717 164.794 120.991C156.874 137.215 145.193 147.665 129.994 153.391C129.516 153.566 128.934 153.588 128.283 153.394C127.62 153.197 126.879 152.771 126.158 152.1C93.5813 121.589 73.9434 79.9283 69.0184 20.3485L69.018 20.3446C68.8869 18.8085 69.2888 17.6543 69.9017 16.9951L69.9047 16.992M175.517 48.9618L69.9047 16.992M69.9047 16.992C70.1817 16.6923 70.5169 16.4934 70.9021 16.3953C71.2921 16.296 71.7639 16.2932 72.3019 16.4343M69.9047 16.992L72.3019 16.4343M72.3019 16.4343C78.6163 18.1248 85.4541 16.2083 91.667 13.7164C94.1566 12.7178 96.6095 11.5987 98.9272 10.5412C99.5215 10.2701 100.107 10.003 100.682 9.74307C103.531 8.45466 106.11 7.34635 108.375 6.68634L72.3019 16.4343ZM153.491 64.6307L153.493 64.6277C154.215 63.5198 154.356 62.1149 154.096 60.794C153.834 59.46 153.164 58.1699 152.224 57.1763L152.221 57.1737L146.535 51.1909L146.534 51.1897C145.599 50.2088 144.375 49.4994 143.065 49.3975C141.693 49.2908 140.429 49.8775 139.66 51.0349L139.655 51.043L120.847 79.7437L109.122 63.4069L109.119 63.4027C108.316 62.292 107.203 61.4033 105.948 61.0293C104.663 60.6463 103.279 60.8358 102.239 61.7676L102.239 61.7676L102.23 61.7758L97.7517 65.8541L97.7505 65.8552C96.7509 66.7675 96.3582 68.1198 96.4132 69.4482C96.4685 70.7855 96.9687 72.145 97.7714 73.2666L97.7725 73.2681L117.731 101.082L117.731 101.082C118.95 102.781 120.913 104.52 122.853 105.098C125.082 105.762 127.194 104.748 128.393 102.918C128.393 102.918 128.393 102.918 128.393 102.918L153.491 64.6307Z" fill="#C8193C" stroke="#EDEFF0" stroke-width="2.95139"/>
<g filter="url(#filter1_f)">
<path d="M118.22 192.161L140.911 223.732H95.5282L118.22 192.161Z" fill="#6E7375" fill-opacity="0.2"/>
</g>
<defs>
<filter id="filter0_d" x="41.3754" y="170.659" width="147.124" height="89" filterUnits="userSpaceOnUse" color-interpolation-filters="sRGB">
<feFlood flood-opacity="0" result="BackgroundImageFix"/>
<feColorMatrix in="SourceAlpha" type="matrix" values="0 0 0 0 0 0 0 0 0 0 0 0 0 0 0 0 0 0 127 0"/>
<feOffset dy="4"/>
<feGaussianBlur stdDeviation="2"/>
<feColorMatrix type="matrix" values="0 0 0 0 0 0 0 0 0 0 0 0 0 0 0 0 0 0 0.25 0"/>
<feBlend mode="normal" in2="BackgroundImageFix" result="effect1_dropShadow"/>
<feBlend mode="normal" in="SourceGraphic" in2="effect1_dropShadow" result="shape"/>
</filter>
<filter id="filter1_f" x="78.5283" y="175.161" width="79.3825" height="65.5708" filterUnits="userSpaceOnUse" color-interpolation-filters="sRGB">
<feFlood flood-opacity="0" result="BackgroundImageFix"/>
<feBlend mode="normal" in="SourceGraphic" in2="BackgroundImageFix" result="shape"/>
<feGaussianBlur stdDeviation="8.5" result="effect1_foregroundBlur"/>
</filter>
</defs>
</svg>
